/* XPM */
static const char * exit_1[] = {
"199 85 53 1",
" 	c #93AB8E",
".	c #92AA8D",
"+	c #91AA8D",
"@	c #91A98C",
"#	c #90A98B",
"$	c #27561D",
"%	c #26561C",
"&	c #25551B",
"*	c #24541B",
"=	c #23541A",
"-	c #235319",
";	c #225218",
">	c #215217",
",	c #10290B",
"'	c #10280B",
")	c #205116",
"!	c #205016",
"~	c #FFFFFF",
"{	c #5D8056",
"]	c #C4D1C1",
"^	c #4E7546",
"/	c #89A383",
"(	c #F0F3F0",
"_	c #6B8C64",
":	c #5C8055",
"<	c #305E26",
"[	c #88A283",
"}	c #1F5016",
"|	c #0F280B",
"1	c #B5C5B2",
"2	c #97AE92",
"3	c #799773",
"4	c #4D7545",
"5	c #4D7445",
"6	c #F0F3EF",
"7	c #2F5D26",
"8	c #D2DCD0",
"9	c #5B7F54",
"0	c #A6B9A2",
"a	c #6A8B64",
"b	c #3E6835",
"c	c #B5C5B1",
"d	c #E1E8E0",
"e	c #1F4F16",
"f	c #0F270B",
"g	c #799673",
"h	c #2F5C26",
"i	c #C4D0C1",
"j	c #97AD92",
"k	c #1F4F15",
"l	c #0F270A",
"m	c #90A88B",
"n	c #1F4E15",
"                                                                                             ....................................+++++++++++++++++++++++++++++@@@@@@@@@@@@@@@@@@@@@@@@@################",
" $$$$$$$$$$$$$$$$$$$$$$$$$$%%%%%%%%%%%%%%%%%%%%%%%%%%%%%%%%%%%%%%%%%%%%%%%%%%%%%%%%%%%%%&&&&&&&&&&&&&&&&&&&&&*****************==============================------------;;;;;;;;;;;;;>>>>>>>>>>>>>>>>>,",
" $$$$$$$$$$$$$$$$$$%%%%%%%%%%%%%%%%%%%%%%%%%%%%%%%%%%%%%%%%%%%%%%%%%%%%%%%%%%%%%%%%%&&&&&&&&&&&&&&&&&&&&*******************==============================-------------;;;;;;;;;;;;;>>>>>>>>>>>>>>>>>>>,",
" $$$$$$$$$$$$%%%%%%%%%%%%%%%%%%%%%%%%%%%%%%%%%%%%%%%%%%%%%%%%%%%%%%%%%%%%%%%%%%%&&&&&&&&&&&&&&&&&&&&*******************===============================--------------;;;;;;;;;;;;;>>>>>>>>>>>>>>>>>>>>>,",
" %$%%%%%%%%%%%%%%%%%%%%%%%%%%%%%%%%%%%%%%%%%%%%%%%%%%%%%%%%%%%%%%%%%%%%%%%%&&&&&&&&&&&&&&&&&&&&&&******************================================--------------;;;;;;;;;;;;;;>>>>>>>>>>>>>>>>>>>>>>>'",
" %%%%%%%%%%%%%%%%%%%%%%%%%%%%%%%%%%%%%%%%%%%%%%%%%%%%%%%%%%%%%%%%%%%%%%&&&&&&&&&&&&&&&&&&&&&&&******************=================================--------------;;;;;;;;;;;;;>>>>>>>>>>>>>>>>>>>>>>>>))'",
" %%%%%%%%%%%%%%%%%%%%%%%%%%%%%%%%%%%%%%%%%%%%%%%%%%%%%%%%%%%%%%%%%&&&&&&&&&&&&&&&&&&&&&&&*******************=================================---------------;;;;;;;;;;;;;;>>>>>>>>>>>>>>>>>>>>>>>>))))'",
" %%%%%%%%%%%%%%%%%%%%%%%%%%%%%%%%%%%%%%%%%%%%%%%%%%%%%%%%%%%%&&&&&&&&&&&&&&&&&&&&&&&&********************==================================---------------;;;;;;;;;;;;;>>>>>>>>>>>>>>>>>>>>>>>>>))))))'",
" %%%%%%%%%%%%%%%%%%%%%%%%%%%%%%%%%%%%%%%%%%%%%%%%%%%%%%%%&&&&&&&&&&&&&&&&&&&&&&&&********************===================================---------------;;;;;;;;;;;;;;>>>>>>>>>>>>>>>>>>>>>>>>>))))))))'",
" %%%%%%%%%%%%%%%%%%%%%%%%%%%%%%%%%%%%%%%%%%%%%%%%%%%&&&&&&&&&&&&&&&&&&&&&&&&&*********************===================================---------------;;;;;;;;;;;;;;>>>>>>>>>>>>>>>>>>>>>>>>>>>)))))))))'",
" %%%%%%%%%%%%%%%%%%%%%%%%%%%%%%%%%%%%%%%%%%%%%%%&&&&&&&&&&&&&&&&&&&&&&&&&********************=====================================---------------;;;;;;;;;;;;;;;>>>>>>>>>>>>>>>>>>>>>>>>>>))))))))))))'",
" %%%%%%%%%%%%%%%%%%%%%%%%%%%%%%%%%%%%%%%%%%&&&&&&&&&&&&&&&&&&&&&&&&&**********************=====================================---------------;;;;;;;;;;;;;;;>>>>>>>>>>>>>>>>>>>>>>>>>>>))))))))))))))'",
" %%%%%%%%%%%%%%%%%%%%%%%%%%%%%%%%%%%%&&&&&&&&&&&&&&&&&&&&&&&&&&&**********************=====================================----------------;;;;;;;;;;;;;;;>>>>>>>>>>>>>>>>>>>>>>>>>>>>))))))))))))))))'",
" %%%%%%%%%%%%%%%%%%%%%%%%%%%%%%%%&&&&&&&&&&&&&&&&&&&&&&&&&&&***********************=====================================----------------;;;;;;;;;;;;;;;;>>>>>>>>>>>>>>>>>>>>>>>>>>>>))))))))))))))))))'",
" %%%%%%%%%%%%%%%%%%%%%%%%%%%&&&&&&&&&&&&&&&&&&&&&&&&&&&***********************=======================================-----------------;;;;;;;;;;;;;;>>>>>>>>>>>>>>>>>>>>>>>>>>>>>)))))))))))))))))))))'",
" %%%%%%%%%%%%%%%%%%%%&&&&&&&&&&&&&&&&&&&&&&&&&&&&&&***********************=======================================-----------------;;;;;;;;;;;;;;;;>>>>>>>>>>>>>>>>>>>>>>>>>>>>))))))))))))))))))))))))'",
" %%%%%%%%%%%%%%%%&&&&&&&&&&&&&&&&&&&&&&&&&&&&&************************========================================-----------------;;;;;;;;;;;;;;;;>>>>>>>>>>>>>>>>>>>>>>>>>>>>>))))))))))))))))))))))))))'",
" %%%%%%%%%%%%&&&&&&&&&&&&&&&&&&&&&&&&&&&&&************************=========================================-----------------;;;;;;;;;;;;;;;;>>>>>>>>>>>>>>>>>>>>>>>>>>>>>)))))))))))))))))))))))))))))'",
" %%%%%%%&&&&&&&&&&&&&&&&&&&&&&&&&&&&&&*************************========================================------------------;;;;;;;;;;;;;;;;>>>>>>>>>>>>>>>>>>>>>>>>>>>>>>)))))))))))))))))))))))))))))))'",
" %%&&&&&&&&&&&&&&&&&&&&&&&&&&&&&&*************************=========================================------------------;;;;;;;;;;;;;;;;>>>>>>>>>>>>>>>>>>>>>>>>>>>>>>>))))))))))))))))))))))))))))))))))'",
".&&&&&&&&&&&&&&&&&&&&&&&&&&&*************************==========================================-------------------;;;;;;;;;;;;;;;;;>>>>>>>>>>>>>>>>>>>>>>>>>>>>>>>))))))))))))))))))))))))))))))))))))'",
".&&&&&&&&&&&&&&&&&&&&&&&*************************===========================================------------------;;;;;;;;;;;;;;;;;>>>>>>>>>>>>>>>>>>>>>>>>>>>>>>>>)))))))))))))))))))))))))))))))))))))))'",
".&&&&&&&&&&&&&&&&&&***************************===========================================-----------------;;;;;;;;;;;;;;;;;;>>>>>>>>>>>>>>>>>>>>>>>>>>>>>>>>>)))))))))))))))))))))))))))))))))))))))))'",
".&&&&&&&&&&&&&&&&************************===========================================-------------------;;;;;;;;;;;;;;;;;;>>>>>>>>>>>>>>>>>>>>>>>>>>>>>>>>))))))))))))))))))))))))))))))))))))))))))))!'",
".&&&&&&&&&&&*************************============================================-------------------;;;;;;;;;;;;;;;;;;>>>>>>>>>>>>>>>>>>>>>>>>>>>>>>>>>))))))))))))))))))))))))))))))))))))))))))))!!!'",
".&&&&&&***************************===========================================-------------------;;;;;;;;;;;;;;;;;;>>>>>>>>>>>>>>>>>>>>>>>>>>>>>>>>>>))))))))))))))))))))))))))))))))))))))))))))!!!!!!'",
".&&&*************************============================================-------------------;;;;;;;;;;;;;;;;;;;>>>>>>>>>>>>>>>>>>>>>>>>>>>>>>>>>)))))))))))))))))))))))))))))))))))))))))))))))!!!!!!!'",
".************************============================================-------------------;;;;;;;;;;;;;;;;;;;>>>>>>>>>>>>>>>>>>>>>>>>>>>>>>>>>>>))))))))))))))))))))))))))))))))))))))))))))))!!!!!!!!!!'",
".*********************===========================================--------------------;;;;;;;;;;;;;;;;;;>>>>>>>>>>>>>>>>>>>>>>>>>>>>>>>>>>>)))))))))))))))))))))))))))))))))))))))))))))))!!!!!!!!!!!!!'",
".******************===========================================------------------;;;;;;;;;;;;;;;;;;;;>>>>>>>>>>>>>>>>>>>>>>>>>>>>>>>>>>>>))))))))))))))))))))))))))))))))))))))))))))))))!!!!!!!!!!!!!!'",
".*************============================================-----------------~~~~~~~~~~~~~~~{;;;;;;>>>>>>>>>>>>>>>>>>>>>>>>>>>>>>>>>>>)))))))))))))))))))))))))))))))))))))))))))))))))!!!!!!!!!!!!!!!!!'",
".***********==========================================--------------------;~~]]]]]]]]]]]]]^;;>>>>>>>>>>>>>>>>>>>/~/>>>>>>]]>>>>>))))))))))))))))))))))))))))))))))))))))))))))))))!!!!!!!!!!!!!!!!!!!!'",
".******===========================================--------------------;;;;;~~;;;;;;;;;;;;;>>>>>>>>>>>>>>>>>>>>>>(~(>>>>>>~~>>))))))))))))))))))))))))))))))))))))))))))))))))))!!!!!!!!!!!!!!!!!!!!!!!'",
".***===========================================--------------------;;;;;;;;~~;;;;;;;;;>>>>>>>>>>>>>>>>>>>>>>>>>>_]_>>>>>>~~)))))))))))))))))))))))))))))))))))))))))))))))))!!!!!!!!!!!!!!!!!!!!!!!!!!'",
"+==========================================--------------------;;;;;;;;;;;;~~;;;;;>>>>>>>>>>>>>>>>>>>>>>>>>>>>>>>>>>>>>))~~)))))))))))))))))))))))))))))))))))))))))))))))!!!!!!!!!!!!!!!!!!!!!!!!!!!!'",
"+=======================================-------------------;;;;;;;;;;;;;;;;~~;>>>>>>>>>>>>>>>>>>>>>>>>>>>>>>>>>>>>>))))))~~))))))))))))))))))))))))))))))))))))))))))))!!!!!!!!!!!!!!!!!!!!!!!!!!!!!!!'",
"+===================================-------------------;;;;;;;;;;;;;;;;;;;;~~>>>>>>>>>>>>>>>>>:~(<>>>>>>>><(~:>))~~)))]~~~~~~~[)))))))))))))))))))))))))))))))))))))!!!!!!!!!!!!!!!!!!!!!!!!!!!!!!!!!}|",
"+================================-------------------;;;;;;;;;;;;;;;;;;;;>>>~~>>>>>>>>>>>>>>>>>>/~1>>>>>>>>1~[))))~~)))2]]~~]]]3))))))))))))))))))))))))))))))))))!!!!!!!!!!!!!!!!!!!!!!!!!!!!!!!!!!}}}|",
"+=============================------------------;;;;;;;;;;;;;;;;;;;>>>>>>>>~~>>>>>>>>>>>>>>>>>>>]~/>>>>>>[~])))))~~))))))~~))))))))))))))))))))))))))))))))))!!!!!!!!!!!!!!!!!!!!!!!!!!!!!!!!!!!}}}}}}|",
"+=========================--------------------;;;;;;;;;;;;;;;;;>>>>>>>>>>>>~~>>>>>>>>>>>>>>>>>>><(~4>)))5~67)))))~~))))))~~)))))))))))))))))))))))))))))))!!!!!!!!!!!!!!!!!!!!!!!!!!!!!!!!!!!!}}}}}}}}|",
"+======================-------------------;;;;;;;;;;;;;;;;;;;>>>>>>>>>>>>>>~~>>>>>>>>>>>>>>>>>>>>:~87))78~9))))))~~))))))~~)))))))))))))))))))))))))))))!!!!!!!!!!!!!!!!!!!!!!!!!!!!!!!!!!}}}}}}}}}}}}|",
"+==================-------------------;;;;;;;;;;;;;;;;;;;;>>>>>>>>>>>>>>>>>~~~~~~~~~~~~~~~>>>>))))2~0))2~2)))))))~~))))))~~)))))))))))))))))))))))))!!!!!!!!!!!!!!!!!!!!!!!!!!!!!!!!!!!!}}}}}}}}}}}}}}|",
"+===============-------------------;;;;;;;;;;;;;;;;;;;>>>>>>>>>>>>>>>>>>>>>~~]]]]]]]]]]]]]>))))))))8~aa~8))))))))~~))))))~~))))))))))))))))))))))!!!!!!!!!!!!!!!!!!!!!!!!!!!!!!!!!!!!}}}}}}}}}}}}}}}}}|",
"+=============------------------;;;;;;;;;;;;;;;;;;;>>>>>>>>>>>>>>>>>>>>>>>>~~>>>>>>>>>)))))))))))))b6666b))))))))~~))))))~~))))))))))))))))))!!!!!!!!!!!!!!!!!!!!!!!!!!!!!!!!!!!!!!}}}}}}}}}}}}}}}}}}}|",
"+==========-------------------;;;;;;;;;;;;;;;;;>>>>>>>>>>>>>>>>>>>>>>>>>>>>~~>>>>>>>))))))))))))))))3~~3)))))))))~~))))))~~)))))))))))))))!!!!!!!!!!!!!!!!!!!!!!!!!!!!!!!!!!!!!}}}}}}}}}}}}}}}}}}}}}}}|",
"+=======-----------------;;;;;;;;;;;;;;;;;;>>>>>>>>>>>>>>>>>>>>>>>>>>>>>>>>~~>>>))))))))))))))))))))c~~c)))))))))~~))))))~~)))))))))))))!!!!!!!!!!!!!!!!!!!!!!!!!!!!!!!!!!!!}}}}}}}}}}}}}}}}}}}}}}}}}}|",
"+====------------------;;;;;;;;;;;;;;;;;;>>>>>>>>>>>>>>>>>>>>>>>>>>>>>>>>>>~~))))))))))))))))))))))[~cc~[))))))))~~))))))~~)))))))))!!!!!!!!!!!!!!!!!!!!!!!!!!!!!!!!!!!!!}}}}}}}}}}}}}}}}}}}}}}}}}}}}}|",
"+==-----------------;;;;;;;;;;;;;;;;;>>>>>>>>>>>>>>>>>>>>>>>>>>>>>>>>>>>)))~~)))))))))))))))))))))5~677d~5)))))))~~))))))~~))))!!!!!!!!!!!!!!!!!!!!!!!!!!!!!!!!!!!!!!!}}}}}}}}}}}}}}}}}}}}}}}}}}}}}}}}|",
"@---------------;;;;;;;;;;;;;;;;;;>>>>>>>>>>>>>>>>>>>>>>>>>>>>>>>>>>>>)))))~~))))))))))))))))))))7d~9))5~d7))))))~~))))))~~))!!!!!!!!!!!!!!!!!!!!!!!!!!!!!!!!!!!!!!}}}}}}}}}}}}}}}}}}}}}}}}}}}}}}}}}}}|",
"@-------------;;;;;;;;;;;;;;;;;>>>>>>>>>>>>>>>>>>>>>>>>>>>>>>>>>>>)))))))))~~))))))))))))))))))))0~[))))[~0))))))~~))))))~~!!!!!!!!!!!!!!!!!!!!!!!!!!!!!!!!!!!!}}}}}}}}}}}}}}}}}}}}}}}}}}}}}}}}}}}}}}}|",
"@-----------;;;;;;;;;;;;;;;;;>>>>>>>>>>>>>>>>>>>>>>>>>>>>>>>>>>))))))))))))~~)))))))))))))))))))3~]))))))]~3)))))~~))!!!!~~!!!!!!!!!!!!!!!!!!!!!!!!!!!!!!!!}}}}}}}}}}}}}}}}}}}}}}}}}}}}}}}}}}}}}}}}}eef",
"@--------;;;;;;;;;;;;;;;;>>>>>>>>>>>>>>>>>>>>>>>>>>>>>>>>>>))))))))))))))))~~))))))))))))))))))566b))))))b665))))~~!!!!!!8~g!!9!!!!!!!!!!!!!!!!!!!!!!!!!}}}}}}}}}}}}}}}}}}}}}}}}}}}}}}}}}}}}}}}}}eeeeef",
"@----;;;;;;;;;;;;;;;;;;>>>>>>>>>>>>>>>>>>>>>>>>>>>>>>>>>)))))))))))))))))))~~]]]]]]]]]]]]]5)))78~a))))))))a~8h!!!~~!!!!!!g~~i8~9!!!!!!!!!!!!!!!!!!!!!}}}}}}}}}}}}}}}}}}}}}}}}}}}}}}}}}}}}}}}}eeeeeeeeef",
"@--;;;;;;;;;;;;;;;;;>>>>>>>>>>>>>>>>>>>>>>>>>>>>>>>>)))))))))))))))))))))))~~~~~~~~~~~~~~~9)))0~2)))))))))!j~0!!!~~!!!!!!![d~djh!!!!!!!!!!!!!!!!!}}}}}}}}}}}}}}}}}}}}}}}}}}}}}}}}}}}}}}}}}eeeeeeeeeeeef",
"@;;;;;;;;;;;;;;;>>>>>>>>>>>>>>>>>>>>>>>>>>>>>>>>>>)))))))))))))))))))))))))))))))))))))))))))))))))))))!!!!!!!!!!!!!!!!!!!!!!!!!!!!!!!!!!!!!!}}}}}}}}}}}}}}}}}}}}}}}}}}}}}}}}}}}}}}}}}}eeeeeeeeeeeeeeef",
"@;;;;;;;;;;;;;>>>>>>>>>>>>>>>>>>>>>>>>>>>>>>>>)))))))))))))))))))))))))))))))))))))))))))))))))))))!!!!!!!!!!!!!!!!!!!!!!!!!!!!!!!!!!!!!!}}}}}}}}}}}}}}}}}}}}}}}}}}}}}}}}}}}}}}}}}}}eeeeeeeeeeeeeeeeeef",
"@;;;;;;;;;;;>>>>>>>>>>>>>>>>>>>>>>>>>>>>>>>>))))))))))))))))))))))))))))))))))))))))))))))))))))!!!!!!!!!!!!!!!!!!!!!!!!!!!!!!!!!!!!!!}}}}}}}}}}}}}}}}}}}}}}}}}}}}}}}}}}}}}}}}}}eeeeeeeeeeeeeeeeeeeeeef",
"@;;;;;;;;>>>>>>>>>>>>>>>>>>>>>>>>>>>>>>>>)))))))))))))))))))))))))))))))))))))))))))))))))))!!!!!!!!!!!!!!!!!!!!!!!!!!!!!!!!!!!!!!}}}}}}}}}}}}}}}}}}}}}}}}}}}}}}}}}}}}}}}}}eeeeeeeeeeeeeeeeeeeeeeeeekkl",
"@;;;;;;>>>>>>>>>>>>>>>>>>>>>>>>>>>>>>)))))))))))))))))))))))))))))))))))))))))))))))))))!!!!!!!!!!!!!!!!!!!!!!!!!!!!!!!!!!!!!!!}}}}}}}}}}}}}}}}}}}}}}}}}}}}}}}}}}}}}}}}}eeeeeeeeeeeeeeeeeeeeeeeekkkkkkl",
"@;;;;>>>>>>>>>>>>>>>>>>>>>>>>>>>>>)))))))))))))))))))))))))))))))))))))))))))))))))))!!!!!!!!!!!!!!!!!!!!!!!!!!!!!!!!!!!!!}}}}}}}}}}}}}}}}}}}}}}}}}}}}}}}}}}}}}}}}}}eeeeeeeeeeeeeeeeeeeeeeeeekkkkkkkkkl",
"@;;>>>>>>>>>>>>>>>>>>>>>>>>>>>>>)))))))))))))))))))))))))))))))))))))))))))))))))!!!!!!!!!!!!!!!!!!!!!!!!!!!!!!!!!!!!!}}}}}}}}}}}}}}}}}}}}}}}}}}}}}}}}}}}}}}}}}}}}eeeeeeeeeeeeeeeeeeeeeekkkkkkkkkkkkkkl",
"#>>>>>>>>>>>>>>>>>>>>>>>>>>>>)))))))))))))))))))))))))))))))))))))))))))))))))!!!!!!!!!!!!!!!!!!!!!!!!!!!!!!!!!!!!!}}}}}}}}}}}}}}}}}}}}}}}}}}}}}}}}}}}}}}}}}}}eeeeeeeeeeeeeeeeeeeeeeekkkkkkkkkkkkkkkkkl",
"#>>>>>>>>>>>>>>>>>>>>>>>>>>)))))))))))))))))))))))))))))))))))))))))))))))!!!!!!!!!!!!!!!!!!!!!!!!!!!!!!!!!!!!}}}}}}}}}}}}}}}}}}}}}}}}}}}}}}}}}}}}}}}}}}}eeeeeeeeeeeeeeeeeeeeeeekkkkkkkkkkkkkkkkkkkkkkl",
"#>>>>>>>>>>>>>>>>>>>>>>>)))))))))))))))))))))))))))))))))))))))))))))))!!!!!!!!!!!!!!!!!!!!!!!!!!!!!!!!!!!!}}}}}}}}}}}}}}}}}}}}}}}}}}}}}}}}}}}}}}}}}}eeeeeeeeeeeeeeeeeeeeeeeeekkkkkkkkkkkkkkkkkkkkkkkkl",
"#>>>>>>>>>>>>>>>>>>>>>))))))))))))))))))))))))))))))))))))))))))))))!!!!!!!!!!!!!!!!!!!!!!!!!!!!!!!!!!!!}}}}}}}}}}}}}}}}}}}}}}}}}}}}}}}}}}}}}}}}}eeeeeeeeeeeeeeeeeeeeeeeeekkkkkkkkkkkkkkkkkkkkkkkkkkkkl",
"#>>>>>>>>>>>>>>>>>>))))))))))))))))))))))))))))))))))))))))))))))!!!!!!!!!!!!!!!!!!!!!!!!!!!!!!!!!!!}}}}}}}}}}}}}}}}}}}}}}}}}}}}}}}}}}}}}}}}eeeeeeeeeeeeeeeeeeeeeeeeekkkkkkkkkkkkkkkkkkkkkkkkkkkkkkkkkl",
"#>>>>>>>>>>>>>>>)))))))))))))))))))))))))))))))))))))))))))))!!!!!!!!!!!!!!!!!!!!!!!!!!!!!!!!!!!}}}}}}}}}}}}}}}}}}}}}}}}}}}}}}}}}}}}}}}}eeeeeeeeeeeeeeeeeeeeeeeekkkkkkkkkkkkkkkkkkkkkkkkkkkkkkkkkkkkkkl",
"#>>>>>>>>>>>>>)))))))))))))))))))))))))))))))))))))))))))))!!!!!!!!!!!!!!!!!!!!!!!!!!!!!!!!!}}}}}}}}}}}}}}}}}}}}}}}}}}}}}}}}}}}}}}}}}eeeeeeeeeeeeeeeeeeeeeeeekkkkkkkkkkkkkkkkkkkkkkkkkkkkkkkkkkkkkkkkkl",
"#>>>>>>>>>>))))))))))))))))))))))))))))))))))))))))))))!!!!!!!!!!!!!!!!!!!!!!!!!!!!!!!!!!}}}}}}}}}}}}}}}}}}}}}}}}}}}}}}}}}}}}}}}eeeeeeeeeeeeeeeeeeeeeeeekkkkkkkkkkkkkkkkkkkkkkkkkkkkkkkkkkkkkkkkkkkkkkl",
"#>>>>>>>>>))))))))))))))))))))))))))))))))))))))))))!!!!!!!!!!!!!!!!!!!!!!!!!!!!!!!!!!}}}}}}}}}}}}}}}}}}}}}}}}}}}}}}}}}}}}}}eeeeeeeeeeeeeeeeeeeeeeeekkkkkkkkkkkkkkkkkkkkkkkkkkkkkkkkkkkkkkkkkkkkkkkkkkl",
"#>>>>>>)))))))))))))))))))))))))))))))))))))))))))!!!!!!!!!!!!!!!!!!!!!!!!!!!!!!!!}}}}}}}}}}}}}}}}}}}}}}}}}}}}}}}}}}}}}}eeeeeeeeeeeeeeeeeeeeeeekkkkkkkkkkkkkkkkkkkkkkkkkkkkkkkkkkkkkkkkkkkkkkkkkkkkkkkl",
"#>>>>)))))))))))))))))))))))))))))))))))))))))!!!!!!!!!!!!!!!!!!!!!!!!!!!!!!!!!}}}}}}}}}}}}}}}}}}}}}}}}}}}}}}}}}}}}}eeeeeeeeeeeeeeeeeeeeeeekkkkkkkkkkkkkkkkkkkkkkkkkkkkkkkkkkkkkkkkkkkkkkkkkkkkkkkkkkkl",
"#>>))))))))))))))))))))))))))))))))))))))))!!!!!!!!!!!!!!!!!!!!!!!!!!!!!!!!}}}}}}}}}}}}}}}}}}}}}}}}}}}}}}}}}}}}}eeeeeeeeeeeeeeeeeeeeeeekkkkkkkkkkkkkkkkkkkkkkkkkkkkkkkkkkkkkkkkkkkkkkkkkkkkkkkkkkkkkkkl",
"m))))))))))))))))))))))))))))))))))))))))!!!!!!!!!!!!!!!!!!!!!!!!!!!!!!!}}}}}}}}}}}}}}}}}}}}}}}}}}}}}}}}}}}}eeeeeeeeeeeeeeeeeeeeeekkkkkkkkkkkkkkkkkkkkkkkkkkkkkkkkkkkkkkkkkkkkkkkkkkkkkkkkkkkkkkkkkkkkl",
"m)))))))))))))))))))))))))))))))))))))!!!!!!!!!!!!!!!!!!!!!!!!!!!!!!}}}}}}}}}}}}}}}}}}}}}}}}}}}}}}}}}}}}}eeeeeeeeeeeeeeeeeeeeekkkkkkkkkkkkkkkkkkkkkkkkkkkkkkkkkkkkkkkkkkkkkkkkkkkkkkkkkkkkkkkkkkkkkkkkl",
"m))))))))))))))))))))))))))))))))))!!!!!!!!!!!!!!!!!!!!!!!!!!!!!!}}}}}}}}}}}}}}}}}}}}}}}}}}}}}}}}}}}eeeeeeeeeeeeeeeeeeeeekkkkkkkkkkkkkkkkkkkkkkkkkkkkkkkkkkkkkkkkkkkkkkkkkkkkkkkkkkkkkkkkkkkkkkkkkkkkkl",
"m))))))))))))))))))))))))))))))))!!!!!!!!!!!!!!!!!!!!!!!!!!!!!}}}}}}}}}}}}}}}}}}}}}}}}}}}}}}}}}}}eeeeeeeeeeeeeeeeeeeekkkkkkkkkkkkkkkkkkkkkkkkkkkkkkkkkkkkkkkkkkkkkkkkkkkkkkkkkkkkkkkkkkkkkkkkkkkkkkkkkl",
"m)))))))))))))))))))))))))))))!!!!!!!!!!!!!!!!!!!!!!!!!!!!!!}}}}}}}}}}}}}}}}}}}}}}}}}}}}}}}}}eeeeeeeeeeeeeeeeeeeeekkkkkkkkkkkkkkkkkkkkkkkkkkkkkkkkkkkkkkkkkkkkkkkkkkkkkkkkkkkkkkkkkkkkkkkkkkkkkkkkkkkkl",
"m)))))))))))))))))))))))))))!!!!!!!!!!!!!!!!!!!!!!!!!!!!}}}}}}}}}}}}}}}}}}}}}}}}}}}}}}}}}}eeeeeeeeeeeeeeeeeeeekkkkkkkkkkkkkkkkkkkkkkkkkkkkkkkkkkkkkkkkkkkkkkkkkkkkkkkkkkkkkkkkkkkkkkkkkkkkkkkkkkkkkkkkl",
"m))))))))))))))))))))))))!!!!!!!!!!!!!!!!!!!!!!!!!!!!}}}}}}}}}}}}}}}}}}}}}}}}}}}}}}}}eeeeeeeeeeeeeeeeeeeekkkkkkkkkkkkkkkkkkkkkkkkkkkkkkkkkkkkkkkkkkkkkkkkkkkkkkkkkkkkkkkkkkkkkkkkkkkkkkkkkkkkkkkkkkknkl",
"m))))))))))))))))))))))!!!!!!!!!!!!!!!!!!!!!!!!!!!!}}}}}}}}}}}}}}}}}}}}}}}}}}}}}}}eeeeeeeeeeeeeeeeeeekkkkkkkkkkkkkkkkkkkkkkkkkkkkkkkkkkkkkkkkkkkkkkkkkkkkkkkkkkkkkkkkkkkkkkkkkkkkkkkkkkkkkkknnnnnnnnnnl",
"m))))))))))))))))))))!!!!!!!!!!!!!!!!!!!!!!!!!!!}}}}}}}}}}}}}}}}}}}}}}}}}}}}}}eeeeeeeeeeeeeeeeeeekkkkkkkkkkkkkkkkkkkkkkkkkkkkkkkkkkkkkkkkkkkkkkkkkkkkkkkkkkkkkkkkkkkkkkkkkkkkkkkkkkkknnnnnnnnnnnnnnnnnl",
"m))))))))))))))))))!!!!!!!!!!!!!!!!!!!!!!!!!!}}}}}}}}}}}}}}}}}}}}}}}}}}}}}}eeeeeeeeeeeeeeeeeeekkkkkkkkkkkkkkkkkkkkkkkkkkkkkkkkkkkkkkkkkkkkkkkkkkkkkkkkkkkkkkkkkkkkkkkkkkkkkkkkknnnnnnnnnnnnnnnnnnnnnnnl",
"m)))))))))))))))!!!!!!!!!!!!!!!!!!!!!!!!!!}}}}}}}}}}}}}}}}}}}}}}}}}}}}}}eeeeeeeeeeeeeeeeeekkkkkkkkkkkkkkkkkkkkkkkkkkkkkkkkkkkkkkkkkkkkkkkkkkkkkkkkkkkkkkkkkkkkkkkkkkkkknnnnnnnnnnnnnnnnnnnnnnnnnnnnnnnl",
"m''''''''''''''''''''''''''''''''''''''||||||||||||||||||||||||||||||ffffffffffffffffflllllllllllllllllllllllllllllllllllllllllllllllllllllllllllllllllllllllllllllllllllllllllllllllllllllllllllllllll"};
