/* XPM */
static char * web_1[] = {
"199 85 44 1",
" 	c #91A98C",
".	c #90A98B",
"+	c #90A88B",
"@	c #8FA88B",
"#	c #8FA78B",
"$	c #8FA78A",
"%	c #225218",
"&	c #215217",
"*	c #205116",
"=	c #205016",
"-	c #1F5016",
";	c #1F4F16",
">	c #1F4F15",
",	c #1F4E15",
"'	c #0F270A",
")	c #0F260A",
"!	c #1E4D15",
"~	c #5B7D53",
"{	c #E1E7E0",
"]	c #FFFFFF",
"^	c #88A182",
"/	c #4C7144",
"(	c #F0F3EF",
"_	c #B4C4B1",
":	c #A5B8A1",
"<	c #96AC92",
"[	c #6A8963",
"}	c #C3D0C1",
"|	c #2E5A25",
"1	c #D2DCD0",
"2	c #799573",
"3	c #3D6634",
"4	c #87A082",
"5	c #D2DBD0",
"6	c #5A7C53",
"7	c #789473",
"8	c #2D5925",
"9	c #3C6534",
"0	c #698863",
"a	c #4B7144",
"b	c #1E4C15",
"c	c #8FA68A",
"d	c #1E4B14",
"e	c #0F250A",
"     ...............++++++++++++++++++++++++++++++++++++++++++++++++++++++++++++++@@@@@@@@@@@@@@@@@@@@@@@@@##############$$$$$$$$$$$$$$$$$$$$$$$$$$$$$$$$$$$$$$$$$$$$$$$$$$$$$$$$$$$$$$$$$$$$$$$$$$$$$$",
" %%&&&&&&&&&&&&&&&********************************============================--------------------------;;;;;;;;;;;;;;>>>>>>>>>>>>>>>>>>>>>>>>>>>>>>>>>>>>,,,,,,,,,,,,,,,,,,,,,,,,,,,,,,,,,,,,,,,,,,,,'",
" &&&&&&&&&&&&&&&&*****************************============================---------------------------;;;;;;;;;;;;;>>>>>>>>>>>>>>>>>>>>>>>>>>>>>>>>>>>>>>,,,,,,,,,,,,,,,,,,,,,,,,,,,,,,,,,,,,,,,,,,,,,,'",
".&&&&&&&&&&&&&****************************=============================---------------------------;;;;;;;;;;;;;>>>>>>>>>>>>>>>>>>>>>>>>>>>>>>>>>>>>>>>,,,,,,,,,,,,,,,,,,,,,,,,,,,,,,,,,,,,,,,,,,,,,,,,'",
".&&&&&&&&&&&**************************=============================----------------------------;;;;;;;;;;;;;>>>>>>>>>>>>>>>>>>>>>>>>>>>>>>>>>>>>>>>>,,,,,,,,,,,,,,,,,,,,,,,,,,,,,,,,,,,,,,,,,,,,,,,,,,'",
".&&&&&&&&&************************=============================----------------------------;;;;;;;;;;;;;;;>>>>>>>>>>>>>>>>>>>>>>>>>>>>>>>>>>>>>>>,,,,,,,,,,,,,,,,,,,,,,,,,,,,,,,,,,,,,,,,,,,,,,,,,,,,,'",
".&&&&&&&***********************=============================-----------------------------;;;;;;;;;;;;;>>>>>>>>>>>>>>>>>>>>>>>>>>>>>>>>>>>>>>>>,,,,,,,,,,,,,,,,,,,,,,,,,,,,,,,,,,,,,,,,,,,,,,,,,,,,,,,,'",
".&&&&&***********************===========================-----------------------------;;;;;;;;;;;;;;>>>>>>>>>>>>>>>>>>>>>>>>>>>>>>>>>>>>>>>>,,,,,,,,,,,,,,,,,,,,,,,,,,,,,,,,,,,,,,,,,,,,,,,,,,,,,,,,,,,'",
".&&&***********************==========================-----------------------------;;;;;;;;;;;;;>>>>>>>>>>>>>>>>>>>>>>>>>>>>>>>>>>>>>>>>>>,,,,,,,,,,,,,,,,,,,,,,,,,,,,,,,,,,,,,,,,,,,,,,,,,,,,,,,,,,,,,'",
".&***********************=======================-----------------------------;;;;;;;;;;;;;;;>>>>>>>>>>>>>>>>>>>>>>>>>>>>>>>>>>>>>>>>>>,,,,,,,,,,,,,,,,,,,,,,,,,,,,,,,,,,,,,,,,,,,,,,,,,,,,,,,,,,,,,,,,'",
"+**********************======================------------------------------;;;;;;;;;;;;;;>>>>>>>>>>>>>>>>>>>>>>>>>>>>>>>>>>>>>>>>>>,,,,,,,,,,,,,,,,,,,,,,,,,,,,,,,,,,,,,,,,,,,,,,,,,,,,,,,,,,,,,,,,,,,)",
"+********************====================------------------------------;;;;;;;;;;;;;;>>>>>>>>>>>>>>>>>>>>>>>>>>>>>>>>>>>>>>>>>>>,,,,,,,,,,,,,,,,,,,,,,,,,,,,,,,,,,,,,,,,,,,,,,,,,,,,,,,,,,,,,,,,,,,,!!)",
"+*****************===================------------------------------;;;;;;;;;;;;;;;>>>>>>>>>>>>>>>>>>>>>>>>>>>>>>>>>>>>>>>>>>>,,,,,,,,,,,,,,,,,,,,,,,,,,,,,,,,,,,,,,,,,,,,,,,,,,,,,,,,,,,,,,,,,,,,,!!!!)",
"+****************================------------------------------;;;;;;;;;;;;;;;>>>>>>>>>>>>>>>>>>>>>>>>>>>>>>>>>>>>>>>>>>>>,,,,,,,,,,,,,,,,,,,,,,,,,,,,,,,,,,,,,,,,,,,,,,,,,,,,,,,,,,,,,,,,,,,,,!!!!!!!)",
"+**************===============-----------------------------;;;;;;;;;;;;;;;>>>>>>>>>>>>>>>>>>>>>>>>>>>>>>>>>>>>>>>>>>>>,,,,,,,,,,,,,,,,,,,,,,,,,,,,,,,,,,,,,,,,,,,,,,,,,,,,,,,,,,,,,,,,,,,,,,,,!!!!!!!!)",
"+************===============----------------------------;;;;;;;;;;;;;;;>>>>>>>>>>>>>>>>>>>>>>>>>>>>>>>>>>>>>>>>>>>>>,,,,,,,,,,,,,,,,,,,,,,,,,,,,,,,,,,,,,,,,,,,,,,,,,,,,,,,,,,,,,,,,,,,,,,,!!!!!!!!!!!)",
"+**********===============-------------------------;;;;;;;;;;;;;;;;>>>>>>>>>>>>>>>>>>>>>>>>>>>>>>>>>>>>>>>>>>>>>,,,,,,,,,,,,,,,,,,,,,,,,,,,,,,,,,,,,,,,,,,,,,,,,,,,,,,,,,,,,,,,,,,,,,,,,,!!!!!!!!!!!!!)",
"+********===============------------------------;;;;;;;;;;;;;;;>>>>>>>>>>>>>>>>>>>>>>>>>>>>>>>>>>>>>>>>>>>>>>>,,,,,,,,,,,,,,,,,,,,,,,,,,,,,,,,,,,,,,,,,,,,,,,,,,,,,,,,,,,,,,,,,,,,,,,,,!!!!!!!!!!!!!!!)",
"+******===============---------------------;;;;;;;;;;;;;;;;>>>>>>>>>>>>>>>>>>>>>>>>>>>>>>>>>>>>>>>>>>>>>>>,,,,,,,,,,,,,,,,,,,,,,,,,,,,,,,,,,,,,,,,,,,,,,,,,,,,,,,,,,,,,,,,,,,,,,,,,,!!!!!!!!!!!!!!!!!!)",
"+***================-------------------;;;;;;;;;;;;;;;;>>>>>>>>>>>>>>>>>>>>>>>>>>>>>>>>>>>>>>>>>>>>>>>,,,,,,,,,,,,,,,,,,,,,,,,,,,,,,,,,,,,,,,,,,,,,,,,,,,,,,,,,,,,,,,,,,,,,,,,,,,,!!!!!!!!!!!!!!!!!!!!)",
"+**===============-----------------;;;;;;;;;;;;;;;;>>>>>>>>>>>>>>>>>>>>>>>>>>>>>>>>>>>>>>>>>>>>>>>,,,,,,,,,,,,,,,,,,,,,,,,,,,,,,,,,,,,,,,,,,,,,,,,,,,,,,,,,,,,,,,,,,,,,,,,,,,,,!!!!!!!!!!!!!!!!!!!!!!!)",
"+===============---------------;;;;;;;;;;;;;;;;>>>>>>>>>>>>>>>>>>>>>>>>>>>>>>>>>>>>>>>>>>>>>>>>,,,,,,,,,,,,,,,,,,,,,,,,,,,,,,,,,,,,,,,,,,,,,,,,,,,,,,,,,,,,,,,,,,,,,,,,,,,,,,!!!!!!!!!!!!!!!!!!!!!!!!!)",
"+=============---------------;;;;;;;;;;;;;;>>>>>>>>>>>>>>>>>>>>>>>>>>>>>>>>>>>>>>>>>>>>>>>>,,,,,,,,,,,,,,,,,,,,,,,,,,,,,,,,,,,,,,,,,,,,,,,,,,,,,,,,,,,,,,,,,,,,,,,,,,,,,,,!!!!!!!!!!!!!!!!!!!!!!!!!!!!)",
"+==========----------------;;;;;;;;;;;>>>>>>>>>>>>>>>>>>>>>>>>>>>>>>>>>>>>>>>>>>>>>>>>>,,,,,,,,,,,,,,,,,,,,,,,,,,,,,,,,,,,,,,,,,,,,,,,,,,,,,,,,,,,,,,,,,,,,,,,,,,,,,,,,!!!!!!!!!!!!!!!!!!!!!!!!!!!!!!!)",
"+=========---------------;;;;;;;;;>>>>>>>>>>>>>>>>>>>>>>>>>>>>>>>>>>>>>>>>>>>>>>>>>,,,,,,,,,,,,,,,,,,,,,,,,,,,,,,,,,,,,,,,,,,,,,,,,,,,,,,,,,,,,,,,,,,,,,,,,,,,,,,,,,!!!!!!!!!!!!!!!!!!!!!!!!!!!!!!!!!!)",
"+=======---------------;;;;;;;;>>>>>>>>>>>>>>>>>>>>>>>>>>>>>>>>>>>>>>>>>>>>>>>>,,,,,,,,,,,,,,,,,,,,,,,,,,,,,,,,,,,,,,,,,,,,,,,,,,,,,,,,,,,,,,,,,,,,,,,,,,,,,,,,,,,!!!!!!!!!!!!!!!!!!!!!!!!!!!!!!!!!!!!)",
"+=====---------------;;;;;;;>>>>>>>>>>>>>>>>>>>>>>>>>>>>>>>>>>>>>>>>>>>>>>>,,,,,,,,,,,,,,,,,,,,,,,,,,,,,,,,,,,,,,,,,,,,,,,,,,,,,,,,,,,,,,,,,,,,,,,,,,,,,,,,,,,!!!!!!!!!!!!!!!!!!!!!!!!!!!!!!!!!!!!!!!!)",
"+==----------------;;;;;;;;>>>>>>>>>>>>>>>>>>>>>>>>>>>>>>>>>>>>>>>>>>>>,,,,,,,,,,,,,,,,,,,,,,,,,,,,,,,,,,,,,,,,,,,,,,,,,,,,,,,,,,,,,,,,,,,,,,,,,,,,,,,,,,,,,!!!!!!!!!!!!!!!!!!!!!!!!!!!!!!!!!!!!!!!!!!)",
"+----------------;;;;;;;>>>>>>>>>>>>>>>>>>>>>>>>>>>>>>>>>>>>>>>>>>>,,,,,,,,,,,,,,,,,,,,,,,,,,,,,,,,,,,,,,,,,,,,,,,,,,,,,,,,,,,,,,,,,,,,,,,,,,,,,,,,,,,,,!!!!!!!!!!!!!!!!!!!!!!!!!!!!!!!!!!!!!!!!!!!!!!)",
"@-------------;;;;;;;;>>>>>>>>>>>>>>>>>>>>>>>>>>>>>>>>>>>>>>>>,,,,,,,,,,,,,,,,,,,,,,,,,,,,,,,,,,,,,,,,,,,,,,,,,,,,,,,,~~,,,,,,,,,,,,,,,,,,,,,,,,,,,,!!!!!!!!!!!!!!!!!!!!!!!!!!!!!!!!!!!!!!!!!!!!!!!!!!)",
"@------------;;;;;;;;>>>>>>>>>>>>>>>>>>>>>>>>>>>>>>>>>>>>>,,,,,,,,{]^,,,,,,,,,,/](,,,,,,,,,,,_]:,,,,,,,,,,,,,,,,,,,,,,]],,,,,,,,,,,,,,,,,,,,,,,,,,!!!!!!!!!!!!!!!!!!!!!!!!!!!!!!!!!!!!!!!!!!!!!!!!!!!!)",
"@----------;;;;;;;>>>>>>>>>>>>>>>>>>>>>>>>>>>>>>>>>>>>>,,,,,,,,,,,<]_,,,,,,,,,,^]]~,,,,,,,,,,(][,,,,,,,,,,,,,,,,,,,,,,]],,,,,,,,,,,,,,,,,,,,,,!!!!!!!!!!!!!!!!!!!!!!!!!!!!!!!!!!!!!!!!!!!!!!!!!!!!!!!!)",
"@-------;;;;;;;;>>>>>>>>>>>>>>>>>>>>>>>>>>>>>>>>>,,,,,,,,,,,,,,,,,[]],,,,,,,,,,}]]^,,,,,,,,,~]]|,,,,,,,,,,,,,,,,,,,,,,]],,,,,,,,,,,,,,,,,,!!!!!!!!!!!!!!!!!!!!!!!!!!!!!!!!!!!!!!!!!!!!!!!!!!!!!!!!!!!!)",
"@-----;;;;;;;;>>>>>>>>>>>>>>>>>>>>>>>>>>>>>>>,,,,,,,,,,,,,,,,,,,,,,]]~,,,,,,,,,]{]1,,,,,,,,,^]},,,,,,,,,,,,,,,,,,,,,,,]],,,,,,,,,,,,,,!!!!!!!!!!!!!!!!!!!!!!!!!!!!!!!!!!!!!!!!!!!!!!!!!!!!!!!!!!!!!!!!)",
"@---;;;;;;;;>>>>>>>>>>>>>>>>>>>>>>>>>>>>>,,,,,,,,,,,,,,,,,,,,,,,,,,_]<,,,,,,,,[]<1]|,,,,,,,,1]^,,,,,,,,,,,,,,,,,,,,,,,]],,,,,,,,,,,!!!!!!!!!!!!!!!!!!!!!!!!!!!!!!!!!!!!!!!!!!!!!!!!!!!!!!!!!!!!!!!!!!!)",
"@-;;;;;;;;>>>>>>>>>>>>>>>>>>>>>>>>>>,,,,,,,,,,,,,,,,,,,,,,,,,,,,,,,^]1,,,,,,,,<][^]2,,,,,,,|]]/,,,,,,,,,,,,,,,,,,,,,,,]],,,,,,,,!!!!!!!!!!!!!!!!!!!!!!!!!!!!!!!!!!!!!!!!!!!!!!!!!!!!!!!!!!!!!!!!!!!!!!)",
"#;;;;;;;>>>>>>>>>>>>>>>>>>>>>>>,,,,,,,,,,,,,,,,,,,,,,,,,,,,,,,,,,,,3]]|,,,,,,,{]|~]:,,,,,,,[]{,,,,,,,2_{]{_^|,,,,,,,,,]],,|45]]{_6!!!!!!!!!!!!!!!!!!!!!!!!!!!!!!!!!!!!!!!!!!!!!!!!!!!!!!!!!!!!!!!!!!!!)",
"#;;;;;>>>>>>>>>>>>>>>>>>>>>>>,,,,,,,,,,,,,,,,,,,,,,,,,,,,,,,,,,,,,,,{]2,,,,,,3]},,({,,,,,,,:]:,,,,,~{]{:^:{](2,,,,,,,,]]!7(]5}}(]]_8!!!!!!!!!!!!!!!!!!!!!!!!!!!!!!!!!!!!!!!!!!!!!!!!!!!!!!!!!!!!!!!!!!)",
"#;;>>>>>>>>>>>>>>>>>>>>>>>>,,,,,,,,,,,,,,,,,,,,,,,,,,,,,,,,,,,,,,,,,<]:,,,,,,2]^,,_]/,,,,,,{][,,,,2]([,,,,,~{]2,,,,!!!]]7]:9!!!!0{]5!!!!!!!!!!!!!!!!!!!!!!!!!!!!!!!!!!!!!!!!!!!!!!!!!!!!!!!!!!!!!!!!!!)",
"#;>>>>>>>>>>>>>>>>>>>>>>>,,,,,,,,,,,,,,,,,,,,,,,,,,,,,,,,,,,,,,,,,,,[]{,,,,,,_]/,,2]^,,,,,3]]|,,,/((/,,,,,,,|1]6!!!!!!]](a!!!!!!!85]<!!!!!!!!!!!!!!!!!!!!!!!!!!!!!!!!!!!!!!!!!!!!!!!!!!!!!!!!!!!!!!!bb)",
"$>>>>>>>>>>>>>>>>>>>>>>,,,,,,,,,,,,,,,,,,,,,,,,,,,,,,,,,,,,,,,,,,,,,,]]/,,,,,((,,,3]},,,,,^]},,,,}]~,,,,,,!!!a]{!!!!!!]]a!!!!!!!!!9]]8!!!!!!!!!!!!!!!!!!!!!!!!!!!!!!!!!!!!!!!!!!!!!!!!!!!!!!!!!!bbbbbb)",
"$>>>>>>>>>>>>>>>>>>>>,,,,,,,,,,,,,,,,,,,,,,,,,,,,,,,,,,,,,,,,,,,,,,,,_]^,,,,~]:,,,,{],,,,,_]^,,,~]_,,,!!!!!!!!:]6!!!!!]]!!!!!!!!!!!:]4!!!!!!!!!!!!!!!!!!!!!!!!!!!!!!!!!!!!!!!!!!!!!!!!!!!!!!!bbbbbbbbb)",
"$>>>>>>>>>>>>>>>>>,,,,,,,,,,,,,,,,,,,,,,,,,,,,,,,,,,,,,,,,,,,,,,,,,,,^]_,,,,^]2,,,,<][,,,,(]/,,,<]0!!!!!!!!!!!6]<!!!!!]]!!!!!!!!!!!0]_!!!!!!!!!!!!!!!!!!!!!!!!!!!!!!!!!!!!!!!!!!!!!!!!!!!!bbbbbbbbbbbb)",
"$>>>>>>>>>>>>>>>,,,,,,,,,,,,,,,,,,,,,,,,,,,,,,,,,,,,,,,,,,,,,,,,,,,,,3]],,,,1]|,,,,[]<,,,~]{,!!!}]8!!!!!!!!!!!!]}!!!!!]]!!!!!!!!!!!8]5!!!!!!!!!!!!!!!!!!!!!!!!!!!!!!!!!!!!!!!!!!!!!!!!bbbbbbbbbbbbbbbb)",
"$>>>>>>>>>>>>>>,,,,,,,,,,,,,,,,,,,,,,,,,,,,,,,,,,,,,,,,,,,,,,,,,,,,,,,{][,,|]1,,,,,,]1,,!4]:!!!!]]4444444444444](!!!!!]]!!!!!!!!!!!!]]!!!!!!!!!!!!!!!!!!!!!!!!!!!!!!!!!!!!!!!!!!!!bbbbbbbbbbbbbbbbbbbb)",
"$>>>>>>>>>>>,,,,,,,,,,,,,,,,,,,,,,,,,,,,,,,,,,,,,,,,,,,,,,,,,,,,,,,,,,<]<,,2]<,,,,!!}]9!!5]0!!!!]]]]]]]]]]]]]]]]]!!!!!]]!!!!!!!!!!!!]]!!!!!!!!!!!!!!!!!!!!!!!!!!!!!!!!!!!!!!!!!bbbbbbbbbbbbbbbbbbbbbbb)",
"$>>>>>>>>>,,,,,,,,,,,,,,,,,,,,,,,,,,,,,,,,,,,,,,,,,,,,,,,,,,,,,,,,,,,,[]1,,:]6!!!!!!4]7!8]]8!!!!(]!!!!!!!!!!!!!!!!!!!!]]!!!!!!!!!!!8]5!!!!!!!!!!!!!!!!!!!!!!!!!!!!!!!!!!!!bbbbbbbbbbbbbbbbbbbbbbbbbbbb)",
"$>>>>>>>,,,,,,,,,,,,,,,,,,,,,,,,,,,,,,,,,,,,,,,,,,,,,,,,,,,,,,,,,,,,,,,]]9!((!!!!!!!a]_!7]}!!!!!}]a!!!!!!!!!!!!!!!!!!!]]!!!!!!!!!!!6]_!!!!!!!!!!!!!!!!!!!!!!!!!!!!!!!!bbbbbbbbbbbbbbbbbbbbbbbbbbbbbbbb)",
"$>>>>>,,,,,,,,,,,,,,,,,,,,,,,,,,,,,,,,,,,,,,,,,,,,,,,,,,,,,,,,,,,,,!!!!_]7a]_!!!!!!!!{(!:]4!!!!!4]<!!!!!!!!!!!!!!!!!!!]]!!!!!!!!!!!:]4!!!!!!!!!!!!!!!!!!!!!!!!!!!bbbbbbbbbbbbbbbbbbbbbbbbbbbbbbbbbbbbb)",
"$>>>,,,,,,,,,,,,,,,,,,,,,,,,,,,,,,,,,,,,,,,,,,,,,,,,,,,,,,,,,,,!!!!!!!!4]:4]7!!!!!!!!:]a{]a!!!!!8(]a!!!!!!!!!!!!!!!!!!]]a!!!!!!!!!9(]8!!!!!!!!!!!!!!!!!!!!!!!!bbbbbbbbbbbbbbbbbbbbbbbbbbbbbbbbbbbbbbbb)",
"$,,,,,,,,,,,,,,,,,,,,,,,,,,,,,,,,,,,,,,,,,,,,,,,,,,,,,,,,!!!!!!!!!!!!!!9](}]9!!!!!!!!7]_](!!!!!!!7]58!!!!!!!!!4a!!!!!!]](a!!!!!!!85]<!!!!!!!!!!!!!!!!!!!bbbbbbbbbbbbbbbbbbbbbbbbbbbbbbbbbbbbbbbbbbbbbb)",
"$,,,,,,,,,,,,,,,,,,,,,,,,,,,,,,,,,,,,,,,,,,,,,,,,,,,!!!!!!!!!!!!!!!!!!!!{]]{!!!!!!!!!8]]]:!!!!!!!!<](7!!!!!!6}]<!!!!!!]]:]49!!!!0{]58!!!!!!!!!!!!!bbbbbbbbbbbbbbbbbbbbbbbbbbbbbbbbbbbbbbbbbbbbbbbbbbbb)",
"$,,,,,,,,,,,,,,,,,,,,,,,,,,,,,,,,,,,,,,,,,,,,,,!!!!!!!!!!!!!!!!!!!!!!!!!<]]<!!!!!!!!!!5]]7!!!!!!!!!0{](}44}(](7!!!!!!!]]!4]]5}}(]]}8!!!!!!!!!!!bbbbbbbbbbbbbbbbbbbbbbbbbbbbbbbbbbbbbbbbbbbbbbbbbbbbbbb)",
"$,,,,,,,,,,,,,,,,,,,,,,,,,,,,,,,,,,,,,,,,,!!!!!!!!!!!!!!!!!!!!!!!!!!!!!!0]]0!!!!!!!!!!4]]8!!!!!!!!!!!7_5]]}:78!!!!!!!!]]!!9<5]]{_6!!!!!!!bbbbbbbbbbbbbbbbbbbbbbbbbbbbbbbbbbbbbbbbbbbbbbbbbbbbbbbbbbbbb)",
"$,,,,,,,,,,,,,,,,,,,,,,,,,,,,,,,,,,,,,!!!!!!!!!!!!!!!!!!!!!!!!!!!!!!!!!!!!!!!!!!!!!!!!!!!!!!!!!!!!!!!!!!!!!!!!!!!!!!!!!!!!!!!!!!!!!!bbbbbbbbbbbbbbbbbbbbbbbbbbbbbbbbbbbbbbbbbbbbbbbbbbbbbbbbbbbbbbbbbb)",
"$,,,,,,,,,,,,,,,,,,,,,,,,,,,,,,!!!!!!!!!!!!!!!!!!!!!!!!!!!!!!!!!!!!!!!!!!!!!!!!!!!!!!!!!!!!!!!!!!!!!!!!!!!!!!!!!!!!!!!!!!!!!!!bbbbbbbbbbbbbbbbbbbbbbbbbbbbbbbbbbbbbbbbbbbbbbbbbbbbbbbbbbbbbbbbbbbbbbbb)",
"$,,,,,,,,,,,,,,,,,,,,,,,,,,,,!!!!!!!!!!!!!!!!!!!!!!!!!!!!!!!!!!!!!!!!!!!!!!!!!!!!!!!!!!!!!!!!!!!!!!!!!!!!!!!!!!!!!!!!!!!bbbbbbbbbbbbbbbbbbbbbbbbbbbbbbbbbbbbbbbbbbbbbbbbbbbbbbbbbbbbbbbbbbbbbbbbbbbbbb)",
"$,,,,,,,,,,,,,,,,,,,,,,,,,,!!!!!!!!!!!!!!!!!!!!!!!!!!!!!!!!!!!!!!!!!!!!!!!!!!!!!!!!!!!!!!!!!!!!!!!!!!!!!!!!!!!!!!!bbbbbbbbbbbbbbbbbbbbbbbbbbbbbbbbbbbbbbbbbbbbbbbbbbbbbbbbbbbbbbbbbbbbbbbbbbbbbbbbbbbb)",
"$,,,,,,,,,,,,,,,,,,,,,,,!!!!!!!!!!!!!!!!!!!!!!!!!!!!!!!!!!!!!!!!!!!!!!!!!!!!!!!!!!!!!!!!!!!!!!!!!!!!!!!!!!!!bbbbbbbbbbbbbbbbbbbbbbbbbbbbbbbbbbbbbbbbbbbbbbbbbbbbbbbbbbbbbbbbbbbbbbbbbbbbbbbbbbbbbbbbbb)",
"$,,,,,,,,,,,,,,,,,,,,,!!!!!!!!!!!!!!!!!!!!!!!!!!!!!!!!!!!!!!!!!!!!!!!!!!!!!!!!!!!!!!!!!!!!!!!!!!!!!!!!bbbbbbbbbbbbbbbbbbbbbbbbbbbbbbbbbbbbbbbbbbbbbbbbbbbbbbbbbbbbbbbbbbbbbbbbbbbbbbbbbbbbbbbbbbbbbbbb)",
"$,,,,,,,,,,,,,,,,,,,!!!!!!!!!!!!!!!!!!!!!!!!!!!!!!!!!!!!!!!!!!!!!!!!!!!!!!!!!!!!!!!!!!!!!!!!!!!!!bbbbbbbbbbbbbbbbbbbbbbbbbbbbbbbbbbbbbbbbbbbbbbbbbbbbbbbbbbbbbbbbbbbbbbbbbbbbbbbbbbbbbbbbbbbbbbbbbbbbb)",
"$,,,,,,,,,,,,,,,,,!!!!!!!!!!!!!!!!!!!!!!!!!!!!!!!!!!!!!!!!!!!!!!!!!!!!!!!!!!!!!!!!!!!!!!!!bbbbbbbbbbbbbbbbbbbbbbbbbbbbbbbbbbbbbbbbbbbbbbbbbbbbbbbbbbbbbbbbbbbbbbbbbbbbbbbbbbbbbbbbbbbbbbbbbbbbbbbbbbbb)",
"$,,,,,,,,,,,,,,!!!!!!!!!!!!!!!!!!!!!!!!!!!!!!!!!!!!!!!!!!!!!!!!!!!!!!!!!!!!!!!!!!!!bbbbbbbbbbbbbbbbbbbbbbbbbbbbbbbbbbbbbbbbbbbbbbbbbbbbbbbbbbbbbbbbbbbbbbbbbbbbbbbbbbbbbbbbbbbbbbbbbbbbbbbbbbbbbbbbbbb)",
"$,,,,,,,,,,,,!!!!!!!!!!!!!!!!!!!!!!!!!!!!!!!!!!!!!!!!!!!!!!!!!!!!!!!!!!!!!!!!bbbbbbbbbbbbbbbbbbbbbbbbbbbbbbbbbbbbbbbbbbbbbbbbbbbbbbbbbbbbbbbbbbbbbbbbbbbbbbbbbbbbbbbbbbbbbbbbbbbbbbbbbbbbbbbbbbbbbbbbb)",
"$,,,,,,,,,,!!!!!!!!!!!!!!!!!!!!!!!!!!!!!!!!!!!!!!!!!!!!!!!!!!!!!!!!!!!!!bbbbbbbbbbbbbbbbbbbbbbbbbbbbbbbbbbbbbbbbbbbbbbbbbbbbbbbbbbbbbbbbbbbbbbbbbbbbbbbbbbbbbbbbbbbbbbbbbbbbbbbbbbbbbbbbbbbbbbbbbbbbbb)",
"$,,,,,,,,!!!!!!!!!!!!!!!!!!!!!!!!!!!!!!!!!!!!!!!!!!!!!!!!!!!!!!!!bbbbbbbbbbbbbbbbbbbbbbbbbbbbbbbbbbbbbbbbbbbbbbbbbbbbbbbbbbbbbbbbbbbbbbbbbbbbbbbbbbbbbbbbbbbbbbbbbbbbbbbbbbbbbbbbbbbbbbbbbbbbbbbbbbbbb)",
"$,,,,,,!!!!!!!!!!!!!!!!!!!!!!!!!!!!!!!!!!!!!!!!!!!!!!!!!!bbbbbbbbbbbbbbbbbbbbbbbbbbbbbbbbbbbbbbbbbbbbbbbbbbbbbbbbbbbbbbbbbbbbbbbbbbbbbbbbbbbbbbbbbbbbbbbbbbbbbbbbbbbbbbbbbbbbbbbbbbbbbbbbbbbbbbbbbbbbb)",
"$,,,!!!!!!!!!!!!!!!!!!!!!!!!!!!!!!!!!!!!!!!!!!!!!!!!bbbbbbbbbbbbbbbbbbbbbbbbbbbbbbbbbbbbbbbbbbbbbbbbbbbbbbbbbbbbbbbbbbbbbbbbbbbbbbbbbbbbbbbbbbbbbbbbbbbbbbbbbbbbbbbbbbbbbbbbbbbbbbbbbbbbbbbbbbbbbbbbbb)",
"$,!!!!!!!!!!!!!!!!!!!!!!!!!!!!!!!!!!!!!!!!!!!!bbbbbbbbbbbbbbbbbbbbbbbbbbbbbbbbbbbbbbbbbbbbbbbbbbbbbbbbbbbbbbbbbbbbbbbbbbbbbbbbbbbbbbbbbbbbbbbbbbbbbbbbbbbbbbbbbbbbbbbbbbbbbbbbbbbbbbbbbbbbbbbbbbbbbbbb)",
"c!!!!!!!!!!!!!!!!!!!!!!!!!!!!!!!!!!!!!!bbbbbbbbbbbbbbbbbbbbbbbbbbbbbbbbbbbbbbbbbbbbbbbbbbbbbbbbbbbbbbbbbbbbbbbbbbbbbbbbbbbbbbbbbbbbbbbbbbbbbbbbbbbbbbbbbbbbbbbbbbbbbbbbbbbbbbbbbbbbbbbbbbbbbbbbbbbbbbb)",
"c!!!!!!!!!!!!!!!!!!!!!!!!!!!!!!!!bbbbbbbbbbbbbbbbbbbbbbbbbbbbbbbbbbbbbbbbbbbbbbbbbbbbbbbbbbbbbbbbbbbbbbbbbbbbbbbbbbbbbbbbbbbbbbbbbbbbbbbbbbbbbbbbbbbbbbbbbbbbbbbbbbbbbbbbbbbbbbbbbbbbbbbbbbbbbbbbbbbbb)",
"c!!!!!!!!!!!!!!!!!!!!!!!!!!!!bbbbbbbbbbbbbbbbbbbbbbbbbbbbbbbbbbbbbbbbbbbbbbbbbbbbbbbbbbbbbbbbbbbbbbbbbbbbbbbbbbbbbbbbbbbbbbbbbbbbbbbbbbbbbbbbbbbbbbbbbbbbbbbbbbbbbbbbbbbbbbbbbbbbbbbbbbbbbdbbbbbbdbbdde",
"c!!!!!!!!!!!!!!!!!!!!!!!!!!bbbbbbbbbbbbbbbbbbbbbbbbbbbbbbbbbbbbbbbbbbbbbbbbbbbbbbbbbbbbbbbbbbbbbbbbbbbbbbbbbbbbbbbbbbbbbbbbbbbbbbbbbbbbbbbbbbbbbbbbbbbbbbbbbbbbbbbbbbbbbbbdddbbddddddddddddddddddddddde",
"c!!!!!!!!!!!!!!!!!!!!!!!!bbbbbbbbbbbbbbbbbbbbbbbbbbbbbbbbbbbbbbbbbbbbbbbbbbbbbbbbbbbbbbbbbbbbbbbbbbbbbbbbbbbbbbbbbbbbbbbbbbbbbbbbbbbbbbbbbbbbbbbbbbbbbbbbbbdbbdddddddddddddddddddddddddddddddddddddddde",
"c!!!!!!!!!!!!!!!!!!!!!bbbbbbbbbbbbbbbbbbbbbbbbbbbbbbbbbbbbbbbbbbbbbbbbbbbbbbbbbbbbbbbbbbbbbbbbbbbbbbbbbbbbbbbbbbbbbbbbbbbbbbbbbbbbbbbbbbbbbbbbbddddddddddddddddddddddddddddddddddddddddddddddddddddddde",
"c!!!!!!!!!!!!!!!!!!!bbbbbbbbbbbbbbbbbbbbbbbbbbbbbbbbbbbbbbbbbbbbbbbbbbbbbbbbbbbbbbbbbbbbbbbbbbbbbbbbbbbbbbbbbbbbbbbbbbbbbbbbbbbbbbdddddddddddddddddddddddddddddddddddddddddddddddddddddddddddddddddddde",
"c!!!!!!!!!!!!!!!!bbbbbbbbbbbbbbbbbbbbbbbbbbbbbbbbbbbbbbbbbbbbbbbbbbbbbbbbbbbbbbbbbbbbbbbbbbbbbbbbbbbbbbbbbbbbbbbbbbbbbbbdddddddddddddddddddddddddddddddddddddddddddddddddddddddddddddddddddddddddddddde",
"c!!!!!!!!!!!!!!bbbbbbbbbbbbbbbbbbbbbbbbbbbbbbbbbbbbbbbbbbbbbbbbbbbbbbbbbbbbbbbbbbbbbbbbbbbbbbbbbbbbbbbbbbbbdbddddddddddddddddddddddddddddddddddddddddddddddddddddddddddddddddddddddddddddddddddddddddde",
"c!!!!!!!!!!!!bbbbbbbbbbbbbbbbbbbbbbbbbbbbbbbbbbbbbbbbbbbbbbbbbbbbbbbbbbbbbbbbbbbbbbbbbbbbbbbbbbbbbdddddddddddddddddddddddddddddddddddddddddddddddddddddddddddddddddddddddddddddddddddddddddddddddddddde",
"c!!!!!!!!!bbbbbbbbbbbbbbbbbbbbbbbbbbbbbbbbbbbbbbbbbbbbbbbbbbbbbbbbbbbbbbbbbbbbbbbbbbbbbddddddddddddddddddddddddddddddddddddddddddddddddddddddddddddddddddddddddddddddddddddddddddddddddddddddddddddddde",
"c!!!!!!!bbbbbbbbbbbbbbbbbbbbbbbbbbbbbbbbbbbbbbbbbbbbbbbbbbbbbbbbbbbbbbbbbbbbbbdbdddddddddddddddddddddddddddddddddddddddddddddddddddddddddddddddddddddddddddddddddddddddddddddddddddddddddddddddddddddde",
"c!!!!bbbbbbbbbbbbbbbbbbbbbbbbbbbbbbbbbbbbbbbbbbbbbbbbbbbbbbbbbbbbbbbbbdddddddddddddddddddddddddddddddddddddddddddddddddddddddddddddddddddddddddddddddddddddddddddddddddddddddddddddddddddddddddddddddde",
"c!!bbbbbbbbbbbbbbbbbbbbbbbbbbbbbbbbbbbbbbbbbbbbbbbbbbbbbbbbbbddddddddddddddddddddddddddddddddddddddddddddddddddddddddddddddddddddddddddddddddddddddddddddddddddddddddddddddddddddddddddddddddddddddddde",
"cbbbbbbbbbbbbbbbbbbbbbbbbbbbbbbbbbbbbbbbbbbbbbbbbbbbdddddddddddddddddddddddddddddddddddddddddddddddddddddddddddddddddddddddddddddddddddddddddddddddddddddddddddddddddddddddddddddddddddddddddddddddddde",
"c))))))))))))))))))))))))))))))))))))))))))))eeeeeeeeeeeeeeeeeeeeeeeeeeeeeeeeeeeeeeeeeeeeeeeeeeeeeeeeeeeeeeeeeeeeeeeeeeeeeeeeeeeeeeeeeeeeeeeeeeeeeeeeeeeeeeeeeeeeeeeeeeeeeeeeeeeeeeeeeeeeeeeeeeeeeeeeee"};
