/* XPM */
static const char * about_1[] = {
"199 85 38 1",
" 	c #8FA68A",
".	c #8FA58A",
"+	c #1E4D15",
"@	c #1E4C15",
"#	c #1E4B14",
"$	c #0F250A",
"%	c #5A7B53",
"&	c #A5B7A1",
"*	c #FFFFFF",
"=	c #789372",
"-	c #2D5724",
";	c #F0F3EF",
">	c #C3CFC0",
",	c #D2DBD0",
"'	c #3C6333",
")	c #1D4B14",
"!	c #E1E7E0",
"~	c #4A6F43",
"{	c #2C5724",
"]	c #96AB91",
"^	c #779372",
"/	c #3B6333",
"(	c #869F82",
"_	c #B4C3B1",
":	c #597B53",
"<	c #879F82",
"[	c #688762",
"}	c #1D4A14",
"|	c #3B6233",
"1	c #869E82",
"2	c #2C5624",
"3	c #688662",
"4	c #597A53",
"5	c #779272",
"6	c #4A6E43",
"7	c #8EA58A",
"8	c #0E250A",
"9	c #0E240A",
"                                                                                  .....................................................................................................................",
" ++@@@@@@@@@@@@@@@@@@@@@@@@@@@@@@@@@@@@@@@@@@@@@@@@@@@@@@@@@@@@@@@@@@@@@@@@@@#########################################################################################################################$",
" +@@@@@@@@@@@@@@@@@@@@@@@@@@@@@@@@@@@@@@@@@@@@@@@@@@@@@@@@@@@@@@@@@@@@@###############################################################################################################################$",
" @@@@@@@@@@@@@@@@@@@@@@@@@@@@@@@@@@@@@@@@@@@@@@@@@@@@@@@@@@@@@@@@@@@##################################################################################################################################$",
" @@@@@@@@@@@@@@@@@@@@@@@@@@@@@@@@@@@@@@@@@@@@@@@@@@@@@@@@@@@@@@#######################################################################################################################################$",
" @@@@@@@@@@@@@@@@@@@@@@@@@@@@@@@@@@@@@@@@@@@@@@@@@@@@@@@@@############################################################################################################################################$",
" @@@@@@@@@@@@@@@@@@@@@@@@@@@@@@@@@@@@@@@@@@@@@@@@@@@@#################################################################################################################################################$",
" @@@@@@@@@@@@@@@@@@@@@@@@@@@@@@@@@@@@@@@@@@@@@@@@@@###################################################################################################################################################$",
" @@@@@@@@@@@@@@@@@@@@@@@@@@@@@@@@@@@@@@@@@@@@@########################################################################################################################################################$",
" @@@@@@@@@@@@@@@@@@@@@@@@@@@@@@@@@@@@@@@@@############################################################################################################################################################$",
" @@@@@@@@@@@@@@@@@@@@@@@@@@@@@@@@@@@@#################################################################################################################################################################$",
" @@@@@@@@@@@@@@@@@@@@@@@@@@@@@@@@@####################################################################################################################################################################$",
" @@@@@@@@@@@@@@@@@@@@@@@@@@@@@########################################################################################################################################################################$",
" @@@@@@@@@@@@@@@@@@@@@@@@@@@@@########################################################################################################################################################################$",
" @@@@@@@@@@@@@@@@@@@@@@@@@@@##########################################################################################################################################################################$",
" @@@@@@@@@@@@@@@@@@@@@@@@@@###########################################################################################################################################################################$",
" @@@@@@@@@@@@@@@@@@@@@@@@#############################################################################################################################################################################$",
" @@@@@@@@@@@@@@@@@@@@@@@##############################################################################################################################################################################$",
" @@@@@@@@@@@@@@@@@@@@@@###############################################################################################################################################################################$",
" @@@@@@@@@@@@@@@@@@@@#################################################################################################################################################################################$",
" @@@@@@@@@@@@@@@@@@@##################################################################################################################################################################################$",
" @@@@@@@@@@@@@@@@@@###################################################################################################################################################################################$",
" @@@@@@@@@@@@@@@@@####################################################################################################################################################################################$",
" @@@@@@@@@@@@@@@######################################################################################################################################################################################$",
" @@@@@@@@@@@@@@#######################################################################################################################################################################################$",
" @@@@@@@@@@@@@########################################################################################################################################################################################$",
" @@@@@@@@@@@##########################################################################################################################################################################################$",
" @@@@@@@@@@###########################################################################################################################################################################################$",
" @@@@@@@@#############################################################################################################################################################################################$",
" @@@@@@@#######################################################################%%#####################################################################################################################$",
" @@@@@@########################################################&**=############**#####################################################################################################################$",
" @@@@@########################################################-;**>############**###########################################################>>########################################################$",
" @@@##########################################################=*,;*'###########**#################)#########################################**########################################################$",
" @@###########################################################!*=&*&##)##))#)))**)))))))))))))))))))#)))))))##)#############################**########################################################$",
" @###########################################################%*;)~*;{))))))))))**)))))))))))))))))))))))))))))))#))##)######################**########################################################$",
".####################################################))))))))&*])),*^))))))))))**)))))))))))))))))))))))))))))))))))))))))##################**########################################################$",
".#############################################)))))))))))))){**/))^*,))))))))))**)){(,**!_:)))))))))))){(>***>({)))))))))**))))######**##>*******<####################################################$",
".######################################)))))))))))))))))))))(*>))){;*:)))))))))**)^;*,>>;**_{)))))))))^;**>>>**;())))))))**)))))))###**##]>>**>>>=####################################################$",
".#################################))))))))))))))))))))))))))!*^))))&*&)))))))))**^*&/))))[!*,))))))))&*;({))){(;*&)))))))**))))))))))**#####**########################################################$",
".##############################))))))))))))))))))))))))))))[*;)))))~**{))))))))**;~))))))){,*]))))))[*;~)))))))~;*[))))))**))))))))))**##)##**########################################################$",
".############################))))))))))))))))))))))))))))))_*]))))))>*())))))))**~)))))))))/**{)))))!*:))))))))):*!))))))**))))))))))**))))#**########################################################$",
".##########################)))))))))))))))))))))))))))))))/**/))))))^*!))))))))**)))))))))))&*())))^*>)))))))))))>*^)))))**))))))))))**)))))**########################################################$",
".#########################))))))))))))))))))))))))))))))))(*>))))))));*:)))))))**)))))))))))[*_))))&*[)))))))))))[*&)))))**))))))))))**)))))**))######################################################$",
".#######################))))))))))))))))))))))))))))))))));*^))))))))]*_)))))))**))))))))))){*,)))),*{))))))))))){*,)))))**))))))))))**)))))**)))))###################################################$",
".#####################)))))))))))))))))))))))))))))))))))^*!))))))}})/**|}))}}}**}}})}}}}))})**))))**)))))))))))))**)))))**))))))))))**)))))**))))))##################################################$",
".####################)))))))))))))))))))))))))))))}})}}}}>*1}}}}}}}}}}>*1}}}}}}**}}}}}}}}}}}}**}}}}**)))))))))))))**)))))**))))))))))**)))))**)))))))#################################################$",
".###################))))))))))))))))))))))))}}}}}}}}}}}}|**,>>>>>>>>>>!*!}}}}}}**}}}}}}}}}}}2*,}}}},*2}}}}}))))))/*,)))))**))))))))))**)))))**))))))))))##############################################$",
".#################))))))))))))))))))}}}}}}}}}}}}}}}}}}}}]****************3}}}}}**}}}}}}}}}}}4*_}}}}&*3}}}}}}}}}))[*&)))))**))))))))))**)))))**))))))))))##############################################$",
".###############))))))))))))))}}}}}}}}}}}}}}}}}}}}}}}}}2;*3}}}}}}}}}}}}]*>}}}}}**}}}}}}}}}}}&*1}}}}5*>}}}}}}}}}}}>*5)))))**))))))))))**)))))**)))))))))))))###########################################$",
".##############))))))))))))))}}}}}}}}}}}}}}}}}}}}}}}}}}5*!}}}}}}}}}}}}}|**|}}}}**6}}}}}}}}}|;*2}}}}}!*4}}}}}}}}}4*!}}}}));*/)))))))){**)))))**))))))))))))))##########################################$",
".############))))))))))))))}}}}}}}}}}}}}}}}}}}}}}}}}}}},*]}}}}}}}}}}}}}},*]}}}}**;6}}}}}}}2,*]}}}}}}3*;6}}}}}}}6;*3}}}}}}_*()))))))/,**)))))**))))))))))))))##########################################$",
".###########)))))))))))))}}}}}}}}}}}}}}}}}}}}}}}}}}}}}6**|}}}}}}}}}}}}}}5*;}}}}**&*1|}}}}3!*,2}}}}}}}]*;12}}}21;*&}}}}}}}5**^))))/(;]**))))),*^)):)))))))))))#########################################$",
".##########)))))))))))))}}}}}}}}}}}}}}}}}}}}}}}}}}}}}}&*>}}}}}}}}}}}}}}}2;*5}}}**}1**,>>;**>2}}}}}}}}}5;**>>>**;5}}}}}}}}}&**!>>,*![)**)))))^**>,*:)))))))))))########################################$",
".########)))))))))))))}}}}}}}}}}}}}}}}}}}}}}}}}}}}}}}2**5}}}}}}}}}}}}}}}}&*,}}}**}}|],**!_4}}}}}}}}}}}}21>***>12}}}}}}}}}}}5>;**>1{))**))))))(!*!]{)))))))))))))######################################$",
".######))))))))))))))}}}}}}}}}}}}}}}}}}}}}}}}}}}}}}}}}}}}}}}}}}}}}}}}}}}}}}}}}}}}}}}}}}}}}}}}}}}}}}}}}}}}}}}}}}}}}}}}}}}}}}}}}}}}}}))))))))))))))))))))))))))))))#####################################$",
".#####))))))))))))))}}}}}}}}}}}}}}}}}}}}}}}}}}}}}}}}}}}}}}}}}}}}}}}}}}}}}}}}}}}}}}}}}}}}}}}}}}}}}}}}}}}}}}}}}}}}}}}}}}}}}}}}}}}}}}}}}}}})))))))))))))))))))))))))))###################################$",
".###)))))))))))))}}}}}}}}}}}}}}}}}}}}}}}}}}}}}}}}}}}}}}}}}}}}}}}}}}}}}}}}}}}}}}}}}}}}}}}}}}}}}}}}}}}}}}}}}}}}}}}}}}}}}}}}}}}}}}}}}}}}}}}))))))))))))))))))))))))))####################################$",
".##))))))))))))}}}}}}}}}}}}}}}}}}}}}}}}}}}}}}}}}}}}}}}}}}}}}}}}}}}}}}}}}}}}}}}}}}}}}}}}}}}}}}}}}}}}}}}}}}}}}}}}}}}}}}}}}}}}}}}}}}}}}}}}}}})))))))))))))))))))))))))###################################$",
".)))))))))))))}}}}}}}}}}}}}}}}}}}}}}}}}}}}}}}}}}}}}}}}}}}}}}}}}}}}}}}}}}}}}}}}}}}}}}}}}}}}}}}}}}}}}}}}}}}}}}}}}}}}}}}}}}}}}}}}}}}}}}}}}}}}})))))))))))))))))))))))))##################################$",
"7)))))))))))}}}}}}}}}}}}}}}}}}}}}}}}}}}}}}}}}}}}}}}}}}}}}}}}}}}}}}}}}}}}}}}}}}}}}}}}}}}}}}}}}}}}}}}}}}}}}}}}}}}}}}}}}}}}}}}}}}}}}}}}}}}}}}}}}))))))))))))))))))))))))#################################$",
"7))))))))))}}}}}}}}}}}}}}}}}}}}}}}}}}}}}}}}}}}}}}}}}}}}}}}}}}}}}}}}}}}}}}}}}}}}}}}}}}}}}}}}}}}}}}}}}}}}}}}}}}}}}}}}}}}}}}}}}}}}}}}}}}}}}}}}}}})})))))))))))))))))))))#################################$",
"7))))))))}}}}}}}}}}}}}}}}}}}}}}}}}}}}}}}}}}}}}}}}}}}}}}}}}}}}}}}}}}}}}}}}}}}}}}}}}}}}}}}}}}}}}}}}}}}}}}}}}}}}}}}}}}}}}}}}}}}}}}}}}}}}}}}}}}}}}}}))))))))))))))))))))))################################$",
"7)))))))}}}}}}}}}}}}}}}}}}}}}}}}}}}}}}}}}}}}}}}}}}}}}}}}}}}}}}}}}}}}}}}}}}}}}}}}}}}}}}}}}}}}}}}}}}}}}}}}}}}}}}}}}}}}}}}}}}}}}}}}}}}}}}}}}}}}}}}}})))))))))))))))))))))))##############################$",
"7)))))}}}}}}}}}}}}}}}}}}}}}}}}}}}}}}}}}}}}}}}}}}}}}}}}}}}}}}}}}}}}}}}}}}}}}}}}}}}}}}}}}}}}}}}}}}}}}}}}}}}}}}}}}}}}}}}}}}}}}}}}}}}}}}}}}}}}}}}}}}}}))))))))))))))))))))))##############################$",
"7))))}}}}}}}}}}}}}}}}}}}}}}}}}}}}}}}}}}}}}}}}}}}}}}}}}}}}}}}}}}}}}}}}}}}}}}}}}}}}}}}}}}}}}}}}}}}}}}}}}}}}}}}}}}}}}}}}}}}}}}}}}}}}}}}}}}}}}}}}}}}}}}})))))))))))))))))))))#############################$",
"7))}}}}}}}}}}}}}}}}}}}}}}}}}}}}}}}}}}}}}}}}}}}}}}}}}}}}}}}}}}}}}}}}}}}}}}}}}}}}}}}}}}}}}}}}}}}}}}}}}}}}}}}}}}}}}}}}}}}}}}}}}}}}}}}}}}}}}}}}}}}}}}}}})))))))))))))))))))))#############################$",
"7)}}}}}}}}}}}}}}}}}}}}}}}}}}}}}}}}}}}}}}}}}}}}}}}}}}}}}}}}}}}}}}}}}}}}}}}}}}}}}}}}}}}}}}}}}}}}}}}}}}}}}}}}}}}}}}}}}}}}}}}}}}}}}}}}}}}}}}}}}}}}}}}}}}}})))))))))))))))))))#############################$",
"7}}}}}}}}}}}}}}}}}}}}}}}}}}}}}}}}}}}}}}}}}}}}}}}}}}}}}}}}}}}}}}}}}}}}}}}}}}}}}}}}}}}}}}}}}}}}}}}}}}}}}}}}}}}}}}}}}}}}}}}}}}}}}}}}}}}}}}}}}}}}}}}}}}}}}))))))))))))))))))))############################$",
"7}}}}}}}}}}}}}}}}}}}}}}}}}}}}}}}}}}}}}}}}}}}}}}}}}}}}}}}}}}}}}}}}}}}}}}}}}}}}}}}}}}}}}}}}}}}}}}}}}}}}}}}}}}}}}}}}}}}}}}}}}}}}}}}}}}}}}}}}}}}}}}}}}}}}}}))))))))))))))))))))###########################$",
"7}}}}}}}}}}}}}}}}}}}}}}}}}}}}}}}}}}}}}}}}}}}}}}}}}}}}}}}}}}}}}}}}}}}}}}}}}}}}}}}}}}}}}}}}}}}}}}}}}}}}}}}}}}}}}}}}}}}}}}}}}}}}}}}}}}}}}}}}}}}}}}}}}}}}}}})))))))))))))))))))###########################$",
"7}}}}}}}}}}}}}}}}}}}}}}}}}}}}}}}}}}}}}}}}}}}}}}}}}}}}}}}}}}}}}}}}}}}}}}}}}}}}}}}}}}}}}}}}}}}}}}}}}}}}}}}}}}}}}}}}}}}}}}}}}}}}}}}}}}}}}}}}}}}}}}}}}}}}}}}})))))))))))))))))))##########################$",
"7}}}}}}}}}}}}}}}}}}}}}}}}}}}}}}}}}}}}}}}}}}}}}}}}}}}}}}}}}}}}}}}}}}}}}}}}}}}}}}}}}}}}}}}}}}}}}}}}}}}}}}}}}}}}}}}}}}}}}}}}}}}}}}}}}}}}}}}}}}}}}}}}}}}}}}}}}))))))))))))))))))##########################$",
"7}}}}}}}}}}}}}}}}}}}}}}}}}}}}}}}}}}}}}}}}}}}}}}}}}}}}}}}}}}}}}}}}}}}}}}}}}}}}}}}}}}}}}}}}}}}}}}}}}}}}}}}}}}}}}}}}}}}}}}}}}}}}}}}}}}}}}}}}}}}}}}}}}}}}}}}}}}))))))))))))))))))#########################$",
"7}}}}}}}}}}}}}}}}}}}}}}}}}}}}}}}}}}}}}}}}}}}}}}}}}}}}}}}}}}}}}}}}}}}}}}}}}}}}}}}}}}}}}}}}}}}}}}}}}}}}}}}}}}}}}}}}}}}}}}}}}}}}}}}}}}}}}}}}}}}}}}}}}}}}}}}}}}}))))))))))))))))))########################$",
"7}}}}}}}}}}}}}}}}}}}}}}}}}}}}}}}}}}}}}}}}}}}}}}}}}}}}}}}}}}}}}}}}}}}}}}}}}}}}}}}}}}}}}}}}}}}}}}}}}}}}}}}}}}}}}}}}}}}}}}}}}}}}}}}}}}}}}}}}}}}}}}}}}}}}}}}}}}})))))))))))))))))#########################$",
"7}}}}}}}}}}}}}}}}}}}}}}}}}}}}}}}}}}}}}}}}}}}}}}}}}}}}}}}}}}}}}}}}}}}}}}}}}}}}}}}}}}}}}}}}}}}}}}}}}}}}}}}}}}}}}}}}}}}}}}}}}}}}}}}}}}}}}}}}}}}}}}}}}}}}}}}}}}}}))))))))))))))))#########################$",
"7}}}}}}}}}}}}}}}}}}}}}}}}}}}}}}}}}}}}}}}}}}}}}}}}}}}}}}}}}}}}}}}}}}}}}}}}}}}}}}}}}}}}}}}}}}}}}}}}}}}}}}}}}}}}}}}}}}}}}}}}}}}}}}}}}}}}}}}}}}}}}}}}}}}}}}}}}}}}}))))))))))))))))########################$",
"7}}}}}}}}}}}}}}}}}}}}}}}}}}}}}}}}}}}}}}}}}}}}}}}}}}}}}}}}}}}}}}}}}}}}}}}}}}}}}}}}}}}}}}}}}}}}}}}}}}}}}}}}}}}}}}}}}}}}}}}}}}}}}}}}}}}}}}}}}}}}}}}}}}}}}}}}}}}}})))))))))))))))))#######################$",
"7}}}}}}}}}}}}}}}}}}}}}}}}}}}}}}}}}}}}}}}}}}}}}}}}}}}}}}}}}}}}}}}}}}}}}}}}}}}}}}}}}}}}}}}}}}}}}}}}}}}}}}}}}}}}}}}}}}}}}}}}}}}}}}}}}}}}}}}}}}}}}}}}}}}}}}}}}}}}}))))))))))))))))))######################$",
"7}}}}}}}}}}}}}}}}}}}}}}}}}}}}}}}}}}}}}}}}}}}}}}}}}}}}}}}}}}}}}}}}}}}}}}}}}}}}}}}}}}}}}}}}}}}}}}}}}}}}}}}}}}}}}}}}}}}}}}}}}}}}}}}}}}}}}}}}}}}}}}}}}}}}}}}}}}}}}}})))))))))))))))#######################$",
"7}}}}}}}}}}}}}}}}}}}}}}}}}}}}}}}}}}}}}}}}}}}}}}}}}}}}}}}}}}}}}}}}}}}}}}}}}}}}}}}}}}}}}}}}}}}}}}}}}}}}}}}}}}}}}}}}}}}}}}}}}}}}}}}}}}}}}}}}}}}}}}}}}}}}}}}}}}}}}}}}))))))))))))))#######################$",
"7}}}}}}}}}}}}}}}}}}}}}}}}}}}}}}}}}}}}}}}}}}}}}}}}}}}}}}}}}}}}}}}}}}}}}}}}}}}}}}}}}}}}}}}}}}}}}}}}}}}}}}}}}}}}}}}}}}}}}}}}}}}}}}}}}}}}}}}}}}}}}}}}}}}}}}}}}}}}}}}})))))))))))))))######################$",
"7}}}}}}}}}}}}}}}}}}}}}}}}}}}}}}}}}}}}}}}}}}}}}}}}}}}}}}}}}}}}}}}}}}}}}}}}}}}}}}}}}}}}}}}}}}}}}}}}}}}}}}}}}}}}}}}}}}}}}}}}}}}}}}}}}}}}}}}}}}}}}}}}}}}}}}}}}}}}}}}}))))))))))))))))#####################$",
"7}}}}}}}}}}}}}}}}}}}}}}}}}}}}}}}}}}}}}}}}}}}}}}}}}}}}}}}}}}}}}}}}}}}}}}}}}}}}}}}}}}}}}}}}}}}}}}}}}}}}}}}}}}}}}}}}}}}}}}}}}}}}}}}}}}}}}}}}}}}}}}}}}}}}}}}}}}}}}}}}))))))))))))))))#####################$",
"788888888888888888888888888888888888889888888888988888888888888888888888888888888888888888888888888888888888888888888888888888888888888888888888888888888888888888888888888888888$$$$$$$$$$$$$$$$$$$$$$"};
