/* XPM */
static const char * about_2[] = {
"199 85 46 1",
" 	c #CEF0C7",
".	c #CDEFC7",
"+	c #CCEEC6",
"@	c #CBEDC5",
"#	c #CBECC4",
"$	c #CAEBC3",
"%	c #9FC397",
"&	c #68925F",
"*	c #27561D",
"=	c #89AF81",
"-	c #BFE1B8",
";	c #326028",
">	c #527E49",
",	c #48743E",
"'	c #B4D7AD",
")	c #C9EAC2",
"!	c #3D6A33",
"~	c #A9CCA1",
"{	c #BEE0B7",
"]	c #68915F",
"^	c #739B6A",
"/	c #47743E",
"(	c #88AF80",
"_	c #B3D6AC",
":	c #7DA575",
"<	c #5D8754",
"[	c #9EC396",
"}	c #527D49",
"|	c #7EA576",
"1	c #739C6A",
"2	c #93B98B",
"3	c #C8E9C2",
"4	c #B3D5AC",
"5	c #7DA475",
"6	c #47733E",
"7	c #3C6A33",
"8	c #BDDFB7",
"9	c #729B6A",
"0	c #92B88B",
"a	c #9DC296",
"b	c #67915F",
"c	c #88AE80",
"d	c #A8CCA1",
"e	c #C7E8C1",
"f	c #C6E7C0",
"g	c #C5E6BF",
"    ..........++++++++++++++++++++++++++++@@@@@@@@@@@@@@@@@@@@@@@@@@@@@@@@@@@@@@@@#####################################################################################################################",
"   .........+++++++++++++++++++++++++@@@@@@@@@@@@@@@@@@@@@@@@@@@@@@@@@@@@@@@@##########################################################################################################################",
"  .........+++++++++++++++++++++++@@@@@@@@@@@@@@@@@@@@@@@@@@@@@@@@@@@@@################################################################################################################################",
" .........+++++++++++++++++++++@@@@@@@@@@@@@@@@@@@@@@@@@@@@@@@@@@@@@###################################################################################################################################",
".........+++++++++++++++++++++@@@@@@@@@@@@@@@@@@@@@@@@@@@@@@@@@########################################################################################################################################",
"........++++++++++++++++++++@@@@@@@@@@@@@@@@@@@@@@@@@@@@@@#############################################################################################################################################",
".......++++++++++++++++++++@@@@@@@@@@@@@@@@@@@@@@@@@@##################################################################################################################################################",
".....+++++++++++++++++++++@@@@@@@@@@@@@@@@@@@@@@@@@###############################################################$$$#$###$$$$#####$$##$#$$$$##########################################################",
"....+++++++++++++++++++++@@@@@@@@@@@@@@@@@@@@@##########################################################$$$$$#$$#$$$$$$$$$$$$$$$$$$$$$$$$$$$$$$$$$$$$$#################################################",
"...++++++++++++++++++++@@@@@@@@@@@@@@@@@@@######################################################$#$$$$$$$$$$$$$$$$$$$$$$$$$$$$$$$$$$$$$$$$$$$$$$$$$$$$$$$$$$$$$$$######################################",
"..++++++++++++++++++++@@@@@@@@@@@@@@@##################################################$###$$$$$$$$$$$$$$$$$$$$$$$$$$$$$$$$$$$$$$$$$$$$$$$$$$$$$$$$$$$$$$$$$$$$$#######################################",
".++++++++++++++++++++@@@@@@@@@@@@@############################################$##$$$$$$$$$$$$$$$$$$$$$$$$$$$$$$$$$$$$$$$$$$$$$$$$$$$$$$$$$$$$$$$$$$$$$$$$$$$$$$$$$$$$##################################",
"++++++++++++++++++++@@@@@@@@@@##############################################$$$$$$$$$$$$$$$$$$$$$$$$$$$$$$$$$$$$$$$$$$$$$$$$$$$$$$$$$$$$$$$$$$$$$$$$$$$$$$$$$$$$$$$$$$$$$$$############################",
"++++++++++++++++++@@@@@@@@@@@@#######################################$$$$$$$$$$$$$$$$$$$$$$$$$$$$$$$$$$$$$$$$$$$$$$$$$$$$$$$$$$$$$$$$$$$$$$$$$$$$$$$$$$$$$$$$$$$$$$$$$$$$$$$###########################",
"+++++++++++++++++@@@@@@@@@@@###################################$$$$$$$$$$$$$$$$$$$$$$$$$$$$$$$$$$$$$$$$$$$$$$$$$$$$$$$$$$$$$$$$$$$$$$$$$$$$$$$$$$$$$$$$$$$$$$$$$$$$$$$$$$$$$$##########################",
"++++++++++++++++@@@@@@@@@@@################################$$$$$$$$$$$$$$$$$$$$$$$$$$$$$$$$$$$$$$$$$$$$$$$$$$$$$$$$$$$$$$$$$$$$$$$$$$$$$$$$$$$$$$$$$$$$$$$$$$$$$$$$$$$$$$$$$$$$$$$#####################",
"+++++++++++++++@@@@@@@@@@###########################$$$$$$$$$$$$$$$$$$$$$$$$$$$$$$$$$$$$$$$$$$$$$$$$$$$$$$$$$$$$$$$$$$$$$$$$$$$$$$$$$$$$$$$$$$$$$$$$$$$$$$$$$$$$$$$$$$$$$$$$$$$$$$#####################",
"++++++++++++++@@@@@@@@@@########################$$$$$$$$$$$$$$$$$$$$$$$$$$$$$$$$$$$$$$$$$$$$$$$$$$$$$$$$$$$$$$$$$$$$$$$$$$$$$$$$$$$$$$$$$$$$$$$$$$$$$$$$$$$$$$$$$$$$$$$$$$$$$$$$$$$####################",
"++++++++++++@@@@@@@@@@@####################$$$$$$$$$$$$$$$$$$$$$$$$$$$$$$$$$$$$$$$$$$$$$$$$$$$$$$$$$$$$$$$$$$$$$$$$$$$$$$$$$$$$$$$$$$$$$$$$$$$$$$$$$$$$$$$$$$$$$$$$$$$$$$$$$$$$$$$$$$$#################",
"+++++++++++@@@@@@@@@@#################$$$$$$$$$$$$$$$$$$$$$$$$$$$$$$$$$$$$$$$$$$$$$$$$$$$$$$$$$$$$$$$$$$$$$$$$$$$$$$$$$$$$$$$$$$$$$$$$$$$$$$$$$$$$$$$$$$$$$$$$$$$$$$$$$$$$$$$$$$$$$$$$$################",
"+++++++++@@@@@@@@@@@##############$$$$$$$$$$$$$$$$$$$$$$$$$$$$$$$$$$$$$$$$$$$$$$$$$$$$$$$$$$$$$$$$$$$$$$$$$$$$$$$$$$$$$$$$$$$$$$$$$$$$$$$$$$$$$$$$$$$$$$$$$$$$$$$$$$$$$$$$$$$$$$$$$$$$$$###############",
"++++++++@@@@@@@@@@@############$$$$$$$$$$$$$$$$$$$$$$$$$$$$$$$$$$$$$$$$$$$$$$$$$$$$$$$$$$$$$$$$$$$$$$$$$$$$$$$$$$$$$$$$$$$$$$$$$$$$$$$$$$$$$$$$$$$$$$$$$$$$$$$$$$$$$$$$$$$$$$$$$$$$$$$$$$$#############",
"+++++++@@@@@@@@@@@###########$$$$$$$$$$$$$$$$$$$$$$$$$$$$$$$$$$$$$$$$$$$$$$$$$$$$$$$$$$$$$$$$$$$$$$$$$$$$$$$$$$$$$$$$$$$$$$$$$$$$$$$$$$$$$$$$$$$$$$$$$$$$$$$$$$$$$$$$$$$$$$$$$$$$$$$$$$$$$$############",
"++++++@@@@@@@@@@############$$$$$$$$$$$$$$$$$$$$$$$$$$$$$$$$$$$$$$$$$$$$$$$$$$$$$$$$$$$$$$$$$$$$$$$$$$$$$$$$$$$$$$$$$$$$$$$$$$$$$$$$$$$$$$$$$$$$$$$$$$$$$$$$$$$$$$$$$$$$$$$$$$$$$$$$$$$$$$$$###########",
"+++++@@@@@@@@@@############$$$$$$$$$$$$$$$$$$$$$$$$$$$$$$$$$$$$$$$$$$$$$$$$$$$$$$$$$$$$$$$$$$$$$$$$$$$$$$$$$$$$$$$$$$$$$$$$$$$$$$$$$$$$$$$$$$$$$$$$$$$$$$$$$$$$$$$$$$$$$$$$$$$$$$$$$$$$$$$$$###########",
"+++@@@@@@@@@@@###########$$$$$$$$$$$$$$$$$$$$$$$$$$$$$$$$$$$$$$$$$$$$$$$$$$$$$$$$$$$$$$$$$$$$$$$$$$$$$$$$$$$$$$$$$$$$$$$$$$$$$$$$$$$$$$$$$$$$$$$$$$$$$$$$$$$$$$$$$$$$$$$$$$$$$$$$$$$$$$$$$$$###########",
"++@@@@@@@@@@############$$$$$$$$$$$$$$$$$$$$$$$$$$$$$$$$$$$$$$$$$$$$$$$$$$$$$$$$$$$$$$$$$$$$$$$$$$$$$$$$$$$$$$$$$$$$$$$$$$$$$$$$$$$$$$$$$$$$$$$$$$$$$$$$$$$$$$$$$$$$$$$$$$$$$$$$$$$$$$$$$$$$$$$########",
"+@@@@@@@@@@############$$$$$$$$$$$$$$$$$$$$$$$$$$$$$$$$$$$$$$$$$$$$$$$$$$$$$$$$$$$$$$$$$$$$$$$$$$$$$$$$$$$$$$$$$$$$$$$$$$$$$$$$$$$$$$$$$$$$$$$$$$$$$$$$$$$$$$$$$$$$$$$$$$$$$$$$$$$$$$$$$$$$$$$#########",
"@@@@@@@@@############$$$$$$$$$$$$$$$$$$$$$$$$$$$$$$$$$$$$$$$$$$$$$$$$$$$$$$$$$$$$$$$$$$$$$$$$$$$$$$$$$$$$$$$$$$$$$$$$$$$$$$$$$$$$$$$$$$$$$$$$$$$$$$$$$$$$$$$$$$$$$$$$$$$$$$$$$$$$$$$$$$$$$$$$$$########",
"@@@@@@@@############$$$$$$$$$$$$$$$$$$$$$$$$$$$$$$$$$$$$$$$$$$$$$$$$$$$$$$$$$$$%%$$$$$$$$$$$$$$$$$$$$$$$$$$$$$$$$$$$$$$$$$$$$$$$$$$$$$$$$$$$$$$$$$$$$$$$$$$$$$$$$$$$$$$$$$$$$$$$$$$$$$$$$$$$$$$$$$#####",
"@@@@@@@###########$$$$$$$$$$$$$$$$$$$$$$$$$$$$$$$$$$$$$$$$$$$$$&**=$$$$$$$$$$$$**$$$$$$$$$$$$$$$$$$$$$$$$$$$$$$$$$$$$$$$$$$$$$$$$$$$$$$$$$$$$$$$$$$$$$$$$$$$$$$$$$$$$$$$$$$$$$$$$$$$$$$$$$$$$$$$$######",
"@@@@@@###########$$$$$$$$$$$$$$$$$$$$$$$$$$$$$$$$$$$$$$$$$$$$$-;**>$$$$$$$$$$$$**$$$$$$$$$$$$$$$$$$$$$$$$$$$$$$$$$$$$$$$$$$$$$$$$$$$$$$$$$$$>>$$$$$$$$$$$$$$$$$$$$$$$$$$$$$$$$$$$$$$$$$$$$$$$$$$$######",
"@@@@############$$$$$$$$$$$$$$$$$$$$$$$$$$$$$$$$$$$$$$$$$$$$$$=*,;*'$$$$$$$$$$$**$$$$$$$$$$$$$$$$$)$$$$$$$$$$$$$$$$$$$$$$$$$$$$$$$$$$$$$$$$$**$$$$$$$$$$$$$$$$$$$$$$$$$$$$$$$$$$$$$$$$$$$$$$$$$$$$#####",
"@@@###########$$$$$$$$$$$$$$$$$$$$$$$$$$$$$$$$$$$$$$$$$$$$$$$$!*=&*&$$)$$))$)))**)))))))))))))))))))$)))))))$$)$$$$$$$$$$$$$$$$$$$$$$$$$$$$$**$$$$$$$$$$$$$$$$$$$$$$$$$$$$$$$$$$$$$$$$$$$$$$$$$$$$$####",
"@@###########$$$$$$$$$$$$$$$$$$$$$$$$$$$$$$$$$$$$$$$$$$$$$$$$%*;)~*;{))))))))))**)))))))))))))))))))))))))))))))$))$$)$$$$$$$$$$$$$$$$$$$$$$**$$$$$$$$$$$$$$$$$$$$$$$$$$$$$$$$$$$$$$$$$$$$$$$$$$$$$####",
"############$$$$$$$$$$$$$$$$$$$$$$$$$$$$$$$$$$$$$$$$$))))))))]*^))/*())))))))))**)))))))))))))))))))))))))))))))))))))))))$$$$$$$$$$$$$$$$$$**$$$$$$$$$$$$$$$$$$$$$$$$$$$$$$$$$$$$$$$$$$$$$$$$$$$$$$###",
"##########$$$$$$$$$$$$$$$$$$$$$$$$$$$$$$$$$$$$)))))))))))))){**_))(*/))))))))))**)){:/**!<[)))))))))))){:}***}:{)))))))))**))))$$$$$$**$$>*******|$$$$$$$$$$$$$$$$$$$$$$$$$$$$$$$$$$$$$$$$$$$$$$$$$$###",
"#########$$$$$$$$$$$$$$$$$$$$$$$$$$$$$$))))))))))))))))))))):*}))){;*[)))))))))**)(;*/}};**<{)))))))))(;**}}}**;:))))))))**)))))))$$$**$$1>>**>>>=$$$$$$$$$$$$$$$$$$$$$$$$$$$$$$$$$$$$$$$$$$$$$$$$$$###",
"#######$$$$$$$$$$$$$$$$$$$$$$$$$$$))))))))))))))))))))))))))!*())))]*])))))))))**(*]_))))2!*/))))))))]*;:{))){:;*])))))))**))))))))))**$$$$$**$$$$$$$$$$$$$$$$$$$$$$$$$$$$$$$$$$$$$$$$$$$$$$$$$$$$$$###",
"######$$$$$$$$$$$$$$$$$$$$$$$$$))))))))))))))))))))))))))))2*;)))))~**{))))))))**;~))))))){/*^))))))2*;~)))))))~;*2))))))**))))))))))**$$)$$**$$$$$$$$$$$$$$$$$$$$$$$$$$$$$$$$$$$$$$$$$$$$$$$$$$$$$$###",
"#####$$$$$$$$$$$$$$$$$$$$$$$$))))))))))))))))))))))))))))))<*^))))))}*:))))))))**~)))))))))_**{)))))!*[)))))))))[*!))))))**))))))))))**))))$**$$$$$$$$$$$$$$$$$$$$$$$$$$$$$$$$$$$$$$$$$$$$$$$$$$$$$$$#$",
"###$$$$$$$$$$$$$$$$$$$$$$$$)))))))))))))))))))))))))))))))_**_))))))(*!))))))))**)))))))))))]*:))))(*})))))))))))}*()))))**))))))))))**)))))**$$$$$$$$$$$$$$$$$$$$$$$$$$$$$$$$$$$$$$$$$$$$$$$$$$$$$$$$$",
"##$$$$$$$$$$$$$$$$$$$$$$$$)))))))))))))))))))))))))))))))):*}))))))));*[)))))))**)))))))))))2*<))))]*2)))))))))))2*])))))**))))))))))**)))))**))$$$$$$$$$$$$$$$$$$$$$$$$$$$$$$$$$$$$$$$$$$$$$$$$$$$$$$$",
"#$$$$$$$$$$$$$$$$$$$$$$$))))))))))))))))))))))))))))))))));*())))))))^*<)))))))**))))))))))){*/))))/*{))))))))))){*/)))))**))))))))))**)))))**)))))$$$$$$$$$$$$$$$$$$$$$$$$$$$$$$$$$$$$$$$$$$$$$$$$$$$#",
"$$$$$$$$$$$$$$$$$$$$$$)))))))))))))))))))))))))))))))))))(*!))))))33)_**43))333**333)3333))3)**))))**)))))))))))))**)))))**))))))))))**)))))**))))))$$$$$$$$$$$$$$$$$$$$$$$$$$$$$$$$$$$$$$$$$$$$$$$$$$$",
"$$$$$$$$$$$$$$$$$$$$$)))))))))))))))))))))))))))))33)3333}*53333333333}*5333333**333333333333**3333**)))))))))))))**)))))**))))))))))**)))))**)))))))$$$$$$$$$$$$$$$$$$$$$$$$$$$$$$$$$$$$$$$$$$$$$$$$$$",
"$$$$$$$$$$$$$$$$$$$$))))))))))))))))))))))))3333333333334**6}}}}}}}}}}7*7333333**333333333338*633336*833333))))))_*/)))))**))))))))))**)))))**))))))))))$$$$$$$$$$$$$$$$$$$$$$$$$$$$$$$$$$$$$$$$$$$$$$$",
"$$$$$$$$$$$$$$$$$$))))))))))))))))))333333333333333333339****************033333**33333333333a*<3333b*0333333333))2*])))))**))))))))))**)))))**))))))))))$$$$$$$$$$$$$$$$$$$$$$$$$$$$$$$$$$$$$$$$$$$$$$$",
"$$$$$$$$$$$$$$$$))))))))))))))33333333333333333333333338;*03333333333339*}33333**33333333333b*53333c*}33333333333}*c)))))**))))))))))**)))))**)))))))))))))$$$$$$$$$$$$$$$$$$$$$$$$$$$$$$$$$$$$$$$$$$$$",
"$$$$$$$$$$$$$$$))))))))))))))33333333333333333333333333c*733333333333334**43333**d3333333334;*8333337*a333333333a*73333));*_)))))))){**)))))**))))))))))))))$$$$$$$$$$$$$$$$$$$$$$$$$$$$$$$$$$$$$$$$$$$",
"$$$$$$$$$$$$$))))))))))))))33333333333333333333333333336*9333333333333336*93333**;d333333386*93333330*;d3333333d;*0333333<*:)))))))_/**)))))**))))))))))))))$$$$$$$$$$$$$$$$$$$$$$$$$$$$$$$$$$$$$$$$$$$",
"$$$$$$$$$$$$)))))))))))))33333333333333333333333333333d**433333333333333c*;3333**b*54333307*6833333339*;5833385;*b3333333c**())))_:;^**)))))/*())[)))))))))))$$$$$$$$$$$$$$$$$$$$$$$$$$$$$$$$$$$$$$$$$$",
"$$$$$$$$$$$)))))))))))))333333333333333333333333333333b*}3333333333333338;*c333**35**6}};**}8333333333c;**}}}**;c333333333b**7}}6*!2)**)))))(**}/*[)))))))))))$$$$$$$$$$$$$$$$$$$$$$$$$$$$$$$$$$$$$$$$$",
"$$$$$$$$$)))))))))))))33333333333333333333333333333338**c3333333333333333b*6333**33496**7<a33333333333385}***}5833333333333c};**}5{))**)))))):!*!^{)))))))))))))$$$$$$$$$$$$$$$$$$$$$$$$$$$$$$$$$$$$$$$",
"$$$$$$$))))))))))))))33333333333333333333333333333333333333333333333333333333333333333333333333333333333333333333333333333333333333))))))))))))))))))))))))))))))$$$$$$$$$$$$$$$$$$$$$$$$$$$$$$$$$$$$$$",
"$$$$$$))))))))))))))33333333333333333333333e3333eeeeeeeeeeeeeeeeeeeeeeeeeeeeeeeee3eee333333333333333333333333333333333333333333333333333)))))))))))))))))))))))))))$$$$$$$$$$$$$$$$$$$$$$$$$$$$$$$$$$$$",
"$$$$)))))))))))))33333333333333333333eeeeeeeeeeeeeeeeeeeeeeeeeeeeeeeeeeeeeeeeeeeeeeeeeeeeee333333333333333333333333333333333333333333333))))))))))))))))))))))))))$$$$$$$$$$$$$$$$$$$$$$$$$$$$$$$$$$$$$",
"$$$))))))))))))333333333333333eeeeeeeeeeeeeeeeeeeeeeeeeeeeeeeeeeeeeeeeeeeeeeeeeeeeeeeeeeeeeeeeeeeee333333333333333333333333333333333333333)))))))))))))))))))))))))$$$$$$$$$$$$$$$$$$$$$$$$$$$$$$$$$$$$",
"$)))))))))))))333333333333333eeeeeeeeeeeeeeeeeeeeeeeeeeeeeeeeeeeeeeeeeeeeeeeeeeeeeeeeeeeeeeeeeeeeeee333333333333333333333333333333333333333)))))))))))))))))))))))))$$$$$$$$$$$$$$$$$$$$$$$$$$$$$$$$$$$",
"))))))))))))333333333333333eeeeeeeeeeeeeeeeeeeeeeeeeeeeeeeeeeeeeeeeeeeeeeeeeeeeeeeeeeeeeeeeeeeeeeeeeeeeee333333333333333333333333333333333333))))))))))))))))))))))))$$$$$$$$$$$$$$$$$$$$$$$$$$$$$$$$$$",
")))))))))))33333333333333eeeeeeeeeeeeeeeeeeeeeeeeeeeeeeeeeeeeeeeeeeeeeeeeeeeeeeeeeeeeeeeeeeeeeeeeeeeeeeeeeee3333333333333333333333333333333333)3)))))))))))))))))))))$$$$$$$$$$$$$$$$$$$$$$$$$$$$$$$$$$",
")))))))))333333333333333eeeeeeeeeeeeeeeeeeeeeeeeeeeeeeeeeeeeeeeeeeeeeeeeeeeeeeeeeeeeeeeeeeeeeeeeeeeeeeeeeeeeeeeee3333333333333333333333333333333))))))))))))))))))))))$$$$$$$$$$$$$$$$$$$$$$$$$$$$$$$$$",
"))))))))33333333333333eeeeeeeeeeeeeeeeeeeeeeeeeeeeeeeeeeeeeeeeeeeeeeeeeeeeeeeeeeeeeeeeeeeeeeeeeeeeeeeeeeeeeeeeeeee3333333333333333333333333333333)))))))))))))))))))))))$$$$$$$$$$$$$$$$$$$$$$$$$$$$$$$",
"))))))33333333333333eeeeeeeeeeeeeeeeeeeeeeeeeeeeeeeeeeeeeeeeeeeeeeeeeeeeeeeeeeeeeeeeeeeeeeeeeeeeeeeeeeeeeeeeeeeeeeeeee3333333333333333333333333333))))))))))))))))))))))$$$$$$$$$$$$$$$$$$$$$$$$$$$$$$$",
")))))3333333333333eeeeeeeeeeeeeeeeeeeeeeeeeeeeeeeeeeeeeeeeeeeeeeeeeeeeeeeeeeeeeeeeeeeeeeeeeeeeeeeeeeeeeeeeeeeeeeeeeeeee33333333333333333333333333333)))))))))))))))))))))$$$$$$$$$$$$$$$$$$$$$$$$$$$$$$",
")))3333333333333eeeeeeeeeeeeeeeeeeeeeeeeeeeeeeeeeeeeeeeeeeeeeeeeeeeeeeeeeeeeeeeeeeeeeeeeeeeeeeeeeeeeeeeeeeeeeeeeeeeeeeeeee33333333333333333333333333)))))))))))))))))))))$$$$$$$$$$$$$$$$$$$$$$$$$$$$$$",
"))3333333333333eeeeeeeeeeeeeeeeeeeeeeeeeeeeeeeeeeeeeeeeeeeeeeeeeeeeeeeeeeeeeeeeeeeeeeeeeeeeeeeeeeeeeeeeeeeeeeeeeeeeeeeeeeeee33333333333333333333333333)))))))))))))))))))$$$$$$$$$$$$$$$$$$$$$$$$$$$$$$",
"3333333333333eeeeeeeeeeeeeeeeeeeeeeeeeeeeeeeeeeeeeeeeeeeeeeeeeeeeeeeeeeeeeeeeeeeeeeeeeeeeeeeeeeeeeeeeeeeeeeeeeeeeeeeeeeeeeeee3333333333333333333333333))))))))))))))))))))$$$$$$$$$$$$$$$$$$$$$$$$$$$$$",
"33333333333eeeeeeeeeeeeeeeeeeeeeeeeeeeeeeeeeeeeeeeeeeeeeeeeeeeeeeeeeeeeeeeeeeeeeeeeeeeeeeeeeeeeeeeeeeeeeeeeeeeeeeeeeeeeeeeeeeeee33333333333333333333333))))))))))))))))))))$$$$$$$$$$$$$$$$$$$$$$$$$$$$",
"3333333333eeeeeeeeeeeeeeeeeeeeeeeeeeeeeeeeeeeeeeeeeeeeeeeeeeeeeeeeeeeeeeeeeeeeeeeeeeeeeeeeeeeeeeeeeeeeeeeeeeeeeeeeeeeeeeeeeeeeeee33333333333333333333333)))))))))))))))))))$$$$$$$$$$$$$$$$$$$$$$$$$$$$",
"33333333eeeeeeeeeeeeeeeeeeeeeeeeeeeeeeeeeeeeeeeeeeeeeeeeeeeeeeeeeeeeeeeeeeeeeeeeeeeeeeeeeeeeeeeeeeeeeeeeeeeeeeeeeeeeeeeeeeeeeeeeeee3333333333333333333333)))))))))))))))))))$$$$$$$$$$$$$$$$$$$$$$$$$$$",
"333333eeeeeeeeeeeeeeeeeeeeeeeeeeeeeeeeeeeeeeeeeeeeeeeeeeeeeeeeeeeeeeeeeeeeeeeeeeeeeeeeeeeeeeeeeeeeeeeeeeeeeeeeeeeeeeeeeeeeeeeeeeeeee3333333333333333333333))))))))))))))))))$$$$$$$$$$$$$$$$$$$$$$$$$$$",
"33333eeeeeeeeeeeeeeeeeeeeeeeeeeeeeeeeeeeeeeeeeeeeeeeeeeeeeeeeeeeeeeeeeeeeeeeeeeeeeeeeeeeeeeeeeeeeeeeeeeeeeeeeeeeeeeeeeeeeeeeeeeeeeeee3333333333333333333333))))))))))))))))))$$$$$$$$$$$$$$$$$$$$$$$$$$",
"333eeeeeeeeeeeeeeeeeeeeeeeeeeeeeeeeeeeeeeeeeeeeeeeeeeeeeeeeeeeeeeeeeeeeeeeeeeeeeeeeeeeeeeeeeeeeeeeeeeeeeeeeeeeeeeeeeeeeeeeeeeeeeeeeeee3333333333333333333333))))))))))))))))))$$$$$$$$$$$$$$$$$$$$$$$$$",
"3eeeeeeeeeeeeeeeeeeeeeeeeeeeeeeeeeeeeeeeeeeeeeeeeeeeeeeeeeeeeeeeeeeeeeeeeeeeeeeeeeeeeeeeeeeeeeeeeeeeeeeeeeeeeeeeeeeeeeeeeeeeeeeeeeeeeee333333333333333333333)))))))))))))))))$$$$$$$$$$$$$$$$$$$$$$$$$$",
"eeeeeeeeeeeeeeeeeeeeeeeeeeeeeefffffffffffffffffffffffffffffffeffeeeeeeeeeeeeeeeeeeeeeeeeeeeeeeeeeeeeeeeeeeeeeeeeeeeeeeeeeeeeeeeeeeeeeeeee33333333333333333333))))))))))))))))$$$$$$$$$$$$$$$$$$$$$$$$$$",
"eeeeeeeeeeeeeeeeeeeeeeeeeeeeefffffffffffffffffffffffffffffffffffffffffffeeeeeeeeeeeeeeeeeeeeeeeeeeeeeeeeeeeeeeeeeeeeeeeeeeeeeeeeeeeeeeeeee33333333333333333333))))))))))))))))$$$$$$$$$$$$$$$$$$$$$$$$$",
"eeeeeeeeeeeeeeeeeeeeeeeeeeeffffffffffffffffffffffffffffffffffffffffffffffffefeeeeeeeeeeeeeeeeeeeeeeeeeeeeeeeeeeeeeeeeeeeeeeeeeeeeeeeeeeeeee3333333333333333333)))))))))))))))))$$$$$$$$$$$$$$$$$$$$$$$$",
"eeeeeeeeeeeeeeeeeeeeeeeefffffffffffffffffffffffffffffffffffffffffffffffffffffffffeeeeeeeeeeeeeeeeeeeeeeeeeeeeeeeeeeeeeeeeeeeeeeeeeeeeeeeeeeee33333333333333333))))))))))))))))))$$$$$$$$$$$$$$$$$$$$$$$",
"eeeeeeeeeeeeeeeeeeeeeeffffffffffffffffffffffffffffffffffffffffffffffffffffffffffffffefeeeeeeeeeeeeeeeeeeeeeeeeeeeeeeeeeeeeeeeeeeeeeeeeeeeeeee3333333333333333333)))))))))))))))$$$$$$$$$$$$$$$$$$$$$$$$",
"eeeeeeeeeeeeeeeeeeeefffffffffffffffffffffffffffffffffffffffffffffffffffffffffffffffffffffeeeeeeeeeeeeeeeeeeeeeeeeeeeeeeeeeeeeeeeeeeeeeeeeeeeee3333333333333333333))))))))))))))$$$$$$$$$$$$$$$$$$$$$$$$",
"eeeeeeeeeeeeeeeeefffffffffffffffffffffffffffffffffffffffffffffffffffffffffffffffffffffffffffeeeeeeeeeeeeeeeeeeeeeeeeeeeeeeeeeeeeeeeeeeeeeeeeeeee33333333333333333)))))))))))))))$$$$$$$$$$$$$$$$$$$$$$$",
"eeeeeeeeeeeeeeeefffffffffffffffffffffffffffffffffffffffffffffffffffffffffffffffffffffffffffffffeeeeeeeeeeeeeeeeeeeeeeeeeeeeeeeeeeeeeeeeeeeeeeeee33333333333333333))))))))))))))))$$$$$$$$$$$$$$$$$$$$$$",
"eeeeeeeeeeeeeefffffffffffffffffffffffffffffffffffffffffffffffffffffffffffffffffffffffffffffffffffeeeeeeeeeeeeeeeeeeeeeeeeeeeeeeeeeeeeeeeeeeeeeeee3333333333333333))))))))))))))))$$$$$$$$$$$$$$$$$$$$$$",
"eeeeeeeeeeeeffffffffffffffffffffffffffgfffffffffgfffffffffffffffffffffffffffffffffffffffffffffffffffeeeeeeeeeeeeeeeeeeeeeeeeeeeeeeeeeeeeeeeeeeeeee3333333333333333)))))))))))))))$$$$$$$$$$$$$$$$$$$$$$"};
