/* XPM */
static char * configure_2[] = {
"199 85 83 1",
" 	c #DCFED5",
".	c #DBFED5",
"+	c #DBFED4",
"@	c #DAFED4",
"#	c #DAFED3",
"$	c #D9FDD2",
"%	c #D8FCD1",
"&	c #D7FBD1",
"*	c #CFF3C8",
"=	c #93BB8B",
"-	c #6F9966",
";	c #57834E",
">	c #336129",
",	c #27561D",
"'	c #4B7842",
")	c #7BA472",
"!	c #B7DCAF",
"~	c #87B07F",
"{	c #3F6C35",
"]	c #638E5A",
"^	c #C3E8BC",
"/	c #ABD1A3",
"(	c #9FC697",
"_	c #D7FAD0",
":	c #AAD1A2",
"<	c #4B7841",
"[	c #86B07E",
"}	c #C2E8BB",
"|	c #CEF3C7",
"1	c #92BA8A",
"2	c #628E59",
"3	c #86AF7E",
"4	c #CDF2C6",
"5	c #92BB8B",
"6	c #9EC696",
"7	c #AAD0A2",
"8	c #6E9965",
"9	c #9EC596",
"0	c #B6DCAF",
"a	c #B5DCAE",
"b	c #4B7741",
"c	c #A9D0A1",
"d	c #56834D",
"e	c #B5DBAD",
"f	c #D6F9CF",
"g	c #6E9865",
"h	c #7AA471",
"i	c #79A371",
"j	c #56824D",
"k	c #85AF7D",
"l	c #85AE7D",
"m	c #D5F8CE",
"n	c #B4DAAD",
"o	c #D4F7CD",
"p	c #AAD1A3",
"q	c #C1E7BA",
"r	c #CBF0C5",
"s	c #9EC697",
"t	c #C0E6B9",
"u	c #4A7741",
"v	c #91B989",
"w	c #CBEFC4",
"x	c #85AD7C",
"y	c #B4D9AC",
"z	c #CEF3C8",
"A	c #86B07F",
"B	c #7AA371",
"C	c #91B888",
"D	c #A8CEA0",
"E	c #9DC595",
"F	c #9CC394",
"G	c #3E6C35",
"H	c #91BA89",
"I	c #CCF1C5",
"J	c #628D59",
"K	c #6D9865",
"L	c #D3F6CC",
"M	c #D2F5CC",
"N	c #D1F4CB",
"O	c #D1F3CA",
"P	c #D0F2C9",
"Q	c #CFF1C8",
"R	c #CEF0C7",
"                                                                      .....................................................++++++++++++++++++++++++++++++++++++++++++++++++++++++++++++++++++++++++++++",
"                                                                   ....................................................+++++++++++++++++++++++++++++++++++++++++++++++++++++++++++++++++++++++++++++@@@",
"                                                              ....................................................+++++++++++++++++++++++++++++++++++++++++++++++++++++++++++++++++++++++++++++++++@@@@",
"                                                            ...................................................+++++++++++++++++++++++++++++++++++++++++++++++++++++++++++++++++++++++++++++++++@@@@@@@",
"                                                        ...................................................+++++++++++++++++++++++++++++++++++++++++++++++++++++++++++++++++++++++++++++++++++@@@@@@@@#",
"                                                     ...................................................+++++++++++++++++++++++++++++++++++++++++++++++++++++++++++++++++++++++++++++++++++++@@@@@@@###",
"                                                 .................................................+++++++++++++++++++++++++++++++++++++++++++++++++++++++++++++++++++++++++++++++++++++++++@@@@@@@#####",
"                                             ...................................................+++++++++++++++++++++++++++++++++++++++++++++++++++++++++++++++++++++++++++++++++++++++++@@@@@@@#######",
"                                           .................................................+++++++++++++++++++++++++++++++++++++++++++++++++++++++++++++++++++++++++++++++++++++++++++@@@@@@@#########",
"                                       ..................................................++++++++++++++++++++++++++++++++++++++++++++++++++++++++++++++++++++++++++++++++++++++++++++@@@@@@@###########",
"                                    ................................................+++++++++++++++++++++++++++++++++++++++++++++++++++++++++++++++++++++++++++++++++++++++++++++++@@@@@@@#############",
"                                ..................................................+++++++++++++++++++++++++++++++++++++++++++++++++++++++++++++++++++++++++++++++++++++++++++++++@@@@@@@###############",
"                              ...............................................++++++++++++++++++++++++++++++++++++++++++++++++++++++++++++++++++++++++++++++++++++++++++++++++++@@@@@@@#################",
"                           ...............................................++++++++++++++++++++++++++++++++++++++++++++++++++++++++++++++++++++++++++++++++++++++++++++++++++@@@@@@@@###################",
"                        ...............................................++++++++++++++++++++++++++++++++++++++++++++++++++++++++++++++++++++++++++++++++++++++++++++++++++++@@@@@@@#####################",
"                      .............................................++++++++++++++++++++++++++++++++++++++++++++++++++++++++++++++++++++++++++++++++++++++++++++++++++++++@@@@@@@#######################",
"                   ..............................................++++++++++++++++++++++++++++++++++++++++++++++++++++++++++++++++++++++++++++++++++++++++++++++++++++@@@@@@@@@#########################",
"                 ............................................+++++++++++++++++++++++++++++++++++++++++++++++++++++++++++++++++++++++++++++++++++++++++++++++++++++@@@@@@@@@@###########################",
"              ............................................+++++++++++++++++++++++++++++++++++++++++++++++++++++++++++++++++++++++++++++++++++++++++++++++++++@@@@@@@@@@@@@#############################",
"            ...........................................++++++++++++++++++++++++++++++++++++++++++++++++++++++++++++++++++++++++++++++++++++++++++++++++++++@@@@@@@@@@@@@#############################$$",
"         ............................................++++++++++++++++++++++++++++++++++++++++++++++++++++++++++++++++++++++++++++++++++++++++++++++++++@@@@@@@@@@@@@###############################$$$$",
"       ...........................................+++++++++++++++++++++++++++++++++++++++++++++++++++++++++++++++++++++++++++++++++++++++++++++++++@@@@@@@@@@@@@@###############################$$$$$$$",
"    ..........................................+++++++++++++++++++++++++++++++++++++++++++++++++++++++++++++++++++++++++++++++++++++++++++++++++@@@@@@@@@@@@@@##################################$$$$$$$$",
"  .........................................++++++++++++++++++++++++++++++++++++++++++++++++++++++++++++++++++++++++++++++++++++++++++++++++@@@@@@@@@@@@@@####################################$$$$$$$$$$",
" ........................................+++++++++++++++++++++++++++++++++++++++++++++++++++++++++++++++++++++++++++++++++++++++++++++++@@@@@@@@@@@@@######################################$$$$$$$$$$$$",
".......................................++++++++++++++++++++++++++++++++++++++++++++++++++++++++++++++++++++++++++++++++++++++++++++++@@@@@@@@@@@@@#######################################$$$$$$$$$$$$$$",
"....................................+++++++++++++++++++++++++++++++++++++++++++++++++++++++++++++++++++++++++++++++++++++++++++++@@@@@@@@@@@@@#########################################$$$$$$$$$$$$$$%%",
".................................++++++++++++++++++++++++++++++++++++++++++++++++++++++++++++++++++++++++++++++++++++++++++++@@@@@@@@@@@@@###########################################$$$$$$$$$$$$$$%%%%",
"...............................+++++++++++++++++++++++++++++++++++++++++++++++++++++++++++++++++++++++++++++++++++++++++++@@@@@@@@@@@@@############################################$$$$$$$$$$$$$$%%%%%%",
"............................+++++++++++++++++++++++++++++++++++++++++++++++++++++++++++++++++++++++++++++++++++++++++++@@@@@@@@@@@@@#############################################$$$$$$$$$$$$$$%%%%%%%&",
"..........................+++++*=-;>,';)!++++++++++++++++++++++++++++++++++++++++++++++++++*~{,,]++++++++++++++++++@@@@@@@@@@@@@###############################################$$$$$$$$$$$$$$%%%%%%%&&&",
"........................+++++^-,,,,;;{,,,'/+++++++++++++++++++++++++++++++++++++++++++++++*',>;;;++~,~++++++++++@@@@@@@@@@@@@################################################$$$$$$$$$$$$$$%%%%%%%&&&&&",
".....................+++++++=>,>~!++++*=;,,~++++++++++++++++++++++++++++++++++++++++++++++~,]*+++++>,>++++++@@@@@@@@@@@@@@#################################################$$$$$$$$$$$$$$%%%%%%%&&&&&&&",
"...................++++++++),,)*+++++++++(>,~+++++++++++++++++++++++++++++++++++++++++++++',^++++++(;(++++@@@@@@@@@@@@###################################################$$$$$$$$$$$$$$%%%%%%%&&&&&&&__",
".................+++++++++=,,=++++++++++++!>~+++++++++++++++++++++++++++++++++++++++++++++,,+++++++++++@@@@@@@@@@@@###################################################$$$$$$$$$$$$$$$%%%%%%%&&&&&&&____",
"...............++++++++++!,,~++++++++++++++*++++++++++++++++++++++++++++++++++++++++++++++,,++++++++@@@@@@@@@@@@###################################################$$$$$$$$$$$$$$$$%%%%%%%&&&&&&&______",
".............++++++++++++;,]+++++++++++++++++++++++++*~;,,,;~*++++++++,,+++=]>,>](+++++;,,,,,,,~@@@,,@@@@@@@@#:]{,,<[}##,,#####,,##########,,######,,##|[<;####$$$12{,{234$$$$$$$%%%%%%%&&&&&&&________",
"...........+++++++++++++^,,^++++++++++++++++++++++++=>,,;;;,,>~+++++++,,+({,';;>,,-++++);;,,;;;5@@@,,@@@@@##|],,>;;<,>[#,,#####,,##########,,######,,#6>,,;#$$$$7{,{838{,>1$$$$%%%%%%%&&&&&&&__________",
".........+++++++++++++++~,'++++++++++++++++++++++++-,>~*+++*~>,-++++++,,=,~^++++~,,/++++++,,@@@@@@@,,@@#####<,{6####}),-,,#####,,##########,,######,,6,;9$$$$$$1,>9$$$$$7{,1$%%%%%%%%&&&&&&____________",
".......+++++++++++++++++;,~+++++++++++++++++++++++(,>!+++++++!>,(+++++,,'^+++++++~,]++++@@,,@@@@@@@,,######),<|#######0>,,#####,,##########,,######,,>1$$$$$$$a>>a$$$$$$$4b,c%%%%%&&&&&&&______________",
".....+++++++++++++++++++{,(+++++++++++++++++++++++{,/+++++++++/,{+++++,,*++++++++^,{+@@@@@,,@@@@###,,#####|,,0#########0,,#####,,##########,,####$$,,1$$$$$$$$d,7$$$$$$$$%e,{%%%&&&&&&&&_____________ff",
"...+++++++++++++++++++++,,/++++++++++++++++++++++=,;+++++++++++;,=++++,,++++++++++,,@@@@@@,,@######,,#####[,-###########,,#####,,##########,,#$$$$$,,$$$$$$$$7,2$$$$$$$%%%%g,c%&&&&&&_______________fff",
".+++++++++++++++++++++++,,/++++++++++++++++++++++-,(+++++++++++(,-++++,,+++++++@@@,,@@@@@@,,#######,,#####],6###########,,#####,,#########$,,$$$$$$,,$$$$$$$$h,9$$$%%%%%%%%c,i&&&&&_______________fffff",
"++++++++++++++++++++++++{,(++++++++++++++++++++++',*+++++++++++*,'++++,,++++@@@@@@,,@@@@##,,#######,,#####<,|###########,,#####,,#######$$$,,$$$$$$,,$$$$$$$$d,4%%%%%%%%%%%&,j&&&&_____________ffffffff",
"++++++++++++++++++++++++;,~++++++++++++++++++++++,,+++++++++++++,,++++,,++@@@@@@@@,,@#####,,#######,,#####,,############,,#####,,###$$$$$$$,,$$$$$$,,$$$$$$$$,,kkkkkkkkkllll,>&&______________fffffffmm",
"++++++++++++++++++++++++~,'++++++++++++++++++++++,,+++++++++++++,,++++,,@@@@@@@@@@,,######,,#######,,#####,,############,,#####,,$$$$$$$$$$,,$$$$$$,,$$$$%%%%,,,,,,,,,,,,,,,,,______________fffffffmmmm",
"++++++++++++++++++++++++^,,!+++++++++++++++++++++',*+++++++++++^,'++@@,,@@@@@@@###,,######,,#######,,#####<,|###########,,####$,,$$$$$$$$$$,,$$$$$$,,%%%%%%%%>,%%%&&&&&&&&&&_____________ffffffffmmmmmm",
"+++++++++++++++++++++++++;,;+++++++++++++++++++++-,(+++++++++++(,-@@@@,,@@@@@#####,,######,,#######,,#####],:###########,,#$$$$,,$$$$$$$$$$,,$$$$$$,,%%%%%%%%j,n&&&&&&&&&&______________fffffffmmmmmmmo",
"+++++++++++++++++++++++++!,,~++++++++++++++*+++++=,;+++++++++++;,5@@@@,,@@########,,######,,#######,,#####[,-##########$,,$$$$$,,$$$$$$$$$$,,$$%%%%,,%%%%%%&&l,i&&&&&&&&______________fffffffmmmmmmmooo",
"++++++++++++++++++++++++++=,,=++++++++++++!>~+++++{,/++++++++@p,{@@@@@,,##########,,######,,#######,,#####},,}#######$$a,,$$$$$>,q$$$$$$$$4,,%%%%%%,,%%%&&&&&r>,n&&&________________fffffffmmmmmmmooooo",
"+++++++++++++++++++++++++++),,)*+++++++++(>,~+++++(,>!+++++@@0>,s@@@@#,,##########,,######,,#######,,######),<|##$$$$$a>,,$$$$$2,3$$$$$$$tu,,%%%%%%,,&&&&&&&&&v,uw_________xy_____fffffffmmmmmmmooooooo",
"++++++++++++++++++++++++++++=>,>)!++++*(;,,=+++++++),>~*@@@zA>,-@@@###,,##########,,######,,#######,,######|<,{9$$$$q3,1,,$$$$$1,,1$$%%tk>B,,%%%%&&,,&&&&&&&&__i,>C______Dj,i___fffffffmmmmmmmooooooooo",
"+++++++++++++++++++++++++++++^-,,,,;;{,,,;/+++++++++=>,,;;;,,>5@######,,##########,,######,,#######,,#######4d,,>ddb,>9$,,$$$$$$8,,{jju,{E%,,%&&&&&,,&&&&&______FG,>jxxj>,>C__fffffffmmmmmmmooooooooooo",
"+++++++++++++++++++++++++++++++*=-;>,';)!+++++++++++@zA;,,,;Az########,,##########,,######,,#######,,####$$$$$72{,,d34$$,,$$$$$%%Hj>,,jkI%&,,&&&&&&,,&&___________CJu,,jKCw_fffffffmmmmmmmooooooooooooo",
"+++++++++++++++++++++++++++++++++++++++++++++++++@@@@@@@@@@@##########################################$$$$$$$$$$$$$$$$$$,>$$%%%%%%%%%%%%&&&&&&&&&&&&______________________fffffffmmmmmmmooooooooooooooL",
"+++++++++++++++++++++++++++++++++++++++++++++++@@@@@@@@@@##########################################$$$$$$$$$$$$$$$$$$$$7,j%%%%%%%%%%&&&&&&&&&&&&________________________fffffffmmmmmmmooooooooooooooLLL",
"+++++++++++++++++++++++++++++++++++++++++++++@@@@@@@@@@#########################################$$$$$$$$$$$$4$$$$$$$$$%g,B%%%%%%%%&&&&&&&&&&&________________________ffffffffmmmmmmmooooooooooooooLLLLL",
"+++++++++++++++++++++++++++++++++++++++++++@@@@@@@@@@#########################################$$$$$$$$$$$$$3b4$$$$$$%%H,>I%%%%&&&&&&&&&&&&_______________________ffffffffffmmmmmmmooooooooooooooLLLLLLL",
"+++++++++++++++++++++++++++++++++++++++++@@@@@@@@@#########################################$$$$$$$$$$$$$$$$d,{1$$%%%tB,,H%%&&&&&&&&&&&_______________________ffffffffffffmmmmmmmooooooooooooooLLLLLLLMM",
"+++++++++++++++++++++++++++++++++++++++@@@@@@@@@########################################$$$$$$$$$$$$$$$$$$$$h,,,jjju,,>H%&&&&&&&&&&&______________________ffffffffffffmmmmmmmmooooooooooooooLLLLLLLMMMM",
"+++++++++++++++++++++++++++++++++++++@@@@@@@@@########################################$$$$$$$$$$$$$$$$$$$$$%%eBj,,,>jlr&&&&&&&&&&______________________ffffffffffffmmmmmmmmmooooooooooooooLLLLLLLMMMMMM",
"+++++++++++++++++++++++++++++++++++@@@@@@@@@#######################################$$$$$$$$$$$$$$$$$$$$$%%%%%%%%%%%&&&&&&&&&&&______________________ffffffffffffmmmmmmmmmmooooooooooooooLLLLLLLMMMMMMMN",
"+++++++++++++++++++++++++++++++++@@@@@@@@@#######################################$$$$$$$$$$$$$$$$$$$$%%%%%%%%%%%&&&&&&&&&&&______________________fffffffffffmmmmmmmmmmmmooooooooooooooLLLLLLLMMMMMMMNNN",
"+++++++++++++++++++++++++++++++@@@@@@@@@######################################$$$$$$$$$$$$$$$$$$$$%%%%%%%%%%%&&&&&&&&&&&______________________fffffffffffmmmmmmmmmmmmoooooooooooooooLLLLLLLMMMMMMMNNNNN",
"+++++++++++++++++++++++++++++@@@@@@@@@#####################################$$$$$$$$$$$$$$$$$$$$$%%%%%%%%%%&&&&&&&&&&&______________________fffffffffffmmmmmmmmmmmoooooooooooooooooLLLLLLLMMMMMMMNNNNNNN",
"+++++++++++++++++++++++++++@@@@@@@@@#####################################$$$$$$$$$$$$$$$$$$$$%%%%%%%%%%%&&&&&&&&&&______________________fffffffffffmmmmmmmmmmmooooooooooooooooooLLLLLLLMMMMMMMMNNNNNNNN",
"+++++++++++++++++++++++++@@@@@@@@@#####################################$$$$$$$$$$$$$$$$$$$$%%%%%%%%%%&&&&&&&&&&______________________ffffffffffmmmmmmmmmmmooooooooooooooooooooLLLLLLLMMMMMMMNNNNNNNNNNN",
"++++++++++++++++++++++++@@@@@@@@#####################################$$$$$$$$$$$$$$$$$$$%%%%%%%%%%&&&&&&&&&&______________________fffffffffffmmmmmmmmmmmooooooooooooooooooooLLLLLLLMMMMMMMNNNNNNNNNNNNN",
"++++++++++++++++++++++@@@@@@@@####################################$$$$$$$$$$$$$$$$$$$%%%%%%%%%%%&&&&&&&&&&____________________fffffffffffmmmmmmmmmmmmoooooooooooooooooooooLLLLLLLMMMMMMMNNNNNNNNNNNNNNN",
"++++++++++++++++++++@@@@@@@@@###################################$$$$$$$$$$$$$$$$$$$%%%%%%%%%%&&&&&&&&&&____________________fffffffffffmmmmmmmmmmmmooooooooooooooooooooooLLLLLLLMMMMMMMNNNNNNNNNNNNNNOOO",
"++++++++++++++++++@@@@@@@@@###################################$$$$$$$$$$$$$$$$$$$%%%%%%%%%%&&&&&&&&&_____________________ffffffffffmmmmmmmmmmmoooooooooooooooooooooooLLLLLLLLMMMMMMMNNNNNNNNNNNNNNOOOOO",
"+++++++++++++++++@@@@@@@@###################################$$$$$$$$$$$$$$$$$$%%%%%%%%%%&&&&&&&&&&____________________fffffffffffmmmmmmmmmmoooooooooooooooooooooooLLLLLLLLLMMMMMMMNNNNNNNNNNNNNNOOOOOOO",
"+++++++++++++++@@@@@@@@###################################$$$$$$$$$$$$$$$$$$%%%%%%%%%&&&&&&&&&&____________________fffffffffffmmmmmmmmmmmooooooooooooooooooooooLLLLLLLLLLMMMMMMMNNNNNNNNNNNNNNOOOOOOOPP",
"+++++++++++++@@@@@@@@##################################$$$$$$$$$$$$$$$$$$$%%%%%%%%%&&&&&&&&&&___________________fffffffffffmmmmmmmmmmooooooooooooooooooooooLLLLLLLLLLLMMMMMMMMNNNNNNNNNNNNNNOOOOOOOPPPP",
"++++++++++++@@@@@@@###################################$$$$$$$$$$$$$$$$$%%%%%%%%%%&&&&&&&&&___________________fffffffffffmmmmmmmmmmooooooooooooooooooooooLLLLLLLLLLLMMMMMMMMMNNNNNNNNNNNNNNOOOOOOOPPPPPP",
"++++++++++@@@@@@@@##################################$$$$$$$$$$$$$$$$$%%%%%%%%%&&&&&&&&&&___________________ffffffffffmmmmmmmmmmoooooooooooooooooooooLLLLLLLLLLLLMMMMMMMMMMNNNNNNNNNNNNNNOOOOOOOPPPPPPPP",
"+++++++++@@@@@@@##################################$$$$$$$$$$$$$$$$$%%%%%%%%%&&&&&&&&&___________________ffffffffffmmmmmmmmmmooooooooooooooooooooooLLLLLLLLLLMMMMMMMMMMMMNNNNNNNNNNNNNNOOOOOOOPPPPPPPPQQ",
"+++++++@@@@@@@@################################$$$$$$$$$$$$$$$$$$%%%%%%%%%&&&&&&&&&___________________ffffffffffmmmmmmmmmmooooooooooooooooooooLLLLLLLLLLLMMMMMMMMMMMMNNNNNNNNNNNNNNNOOOOOOOPPPPPPPPQQQQ",
"++++++@@@@@@@################################$$$$$$$$$$$$$$$$$$%%%%%%%%%&&&&&&&&&__________________ffffffffffmmmmmmmmmmooooooooooooooooooooLLLLLLLLLLLMMMMMMMMMMMMNNNNNNNNNNNNNNNNOOOOOOOPPPPPPPQQQQQQQ",
"++++@@@@@@@@################################$$$$$$$$$$$$$$$$$%%%%%%%%&&&&&&&&&___________________fffffffffmmmmmmmmmmooooooooooooooooooooLLLLLLLLLLLMMMMMMMMMMMNNNNNNNNNNNNNNNNNNOOOOOOOPPPPPPPQQQQQQQQQ",
"+++@@@@@@@################################$$$$$$$$$$$$$$$$$%%%%%%%%&&&&&&&&&__________________ffffffffffmmmmmmmmmmooooooooooooooooooooLLLLLLLLLLMMMMMMMMMMMNNNNNNNNNNNNNNNNNNNOOOOOOOPPPPPPPQQQQQQQQQQQ",
"+@@@@@@@@###############################$$$$$$$$$$$$$$$$%%%%%%%%%&&&&&&&&&__________________fffffffffmmmmmmmmmmooooooooooooooooooooLLLLLLLLLLMMMMMMMMMMMNNNNNNNNNNNNNNNNNNNNOOOOOOOPPPPPPPQQQQQQQQQQQQQ",
"@@@@@@@###############################$$$$$$$$$$$$$$$$%%%%%%%%%&&&&&&&&&_________________ffffffffffmmmmmmmmmooooooooooooooooooooLLLLLLLLLLMMMMMMMMMMMNNNNNNNNNNNNNNNNNNNNNOOOOOOOPPPPPPPQQQQQQQQQQQQQQQ",
"@@@@@###############################$$$$$$$$$$$$$$$$%%%%%%%%%&&&&&&&&&_________________fffffffffmmmmmmmmmooooooooooooooooooooLLLLLLLLLLLMMMMMMMMMMNNNNNNNNNNNNNNNNNNNNNNOOOOOOOPPPPPPPQQQQQQQQQQQQQQRRR",
"@@@@###############################$$$$$$$$$$$$$$$%%%%%%%%%&&&&&&&&_________________ffffffffffmmmmmmmmmoooooooooooooooooooLLLLLLLLLLMMMMMMMMMMMNNNNNNNNNNNNNNNNNNNNNOOOOOOOOPPPPPPPPQQQQQQQQQQQQQQQRRRR"};
