/* XPM */
static char * donate_1[] = {
"199 85 60 1",
" 	c #91A98C",
".	c #90A98B",
"+	c #90A88B",
"@	c #8FA88B",
"#	c #8FA78B",
"$	c #8FA78A",
"%	c #8FA68A",
"&	c #225218",
"*	c #215217",
"=	c #205116",
"-	c #205016",
";	c #1F5016",
">	c #1F4F16",
",	c #1F4F15",
"'	c #1F4E15",
")	c #1E4D15",
"!	c #0F260A",
"~	c #1E4C15",
"{	c #FFFFFF",
"]	c #F0F3EF",
"^	c #C3D0C1",
"/	c #A5B9A2",
"(	c #88A182",
"_	c #2E5B25",
":	c #A5B9A1",
"<	c #3D6634",
"[	c #E1E8E0",
"}	c #4C7244",
"|	c #5B7E53",
"1	c #2E5A25",
"2	c #799573",
"3	c #B4C4B1",
"4	c #6A8963",
"5	c #96AC92",
"6	c #87A082",
"7	c #789473",
"8	c #E1E7E0",
"9	c #2D5925",
"0	c #D2DCD0",
"a	c #A5B8A1",
"b	c #5A7C53",
"c	c #5B7D53",
"d	c #3C6534",
"e	c #698863",
"f	c #0F250A",
"g	c #4C7144",
"h	c #4B7144",
"i	c #D2DBD0",
"j	c #1E4B14",
"k	c #C3CFC1",
"l	c #2D5825",
"m	c #4B7044",
"n	c #96AB92",
"o	c #B4C3B1",
"p	c #A5B7A1",
"q	c #0E250A",
"r	c #1D4B14",
"s	c #1D4A14",
"t	c #0F270B",
"u	c #0F270A",
"       ................++++++++++++++++++++++++++++++++++++++++++@@@@@@@@@@@@@@@@@@##########$$$$$$$$$$$$$$$$$$$$$$$$$$$$$$$$$$$$$$$$$$$$$$$$$$$$$$$$$$$$$$$$$$$$$$$$$$$$$$$$$$%%%%%%%%%%%%%%%%%%%%%%%%",
" &&&&&****************=========================-----------------;;;;;;;;;;;;;;;;;;>>>>>>>>>,,,,,,,,,,,,,,,,,,,,,,,,,,,,,,'''''''''''''''''''''''''''''''''''''''''''''''''''''))))))))))))))))))))))))!",
" &&&&****************========================-----------------;;;;;;;;;;;;;;;;;;;>>>>>>>>>,,,,,,,,,,,,,,,,,,,,,,,,,,,,,'''''''''''''''''''''''''''''''''''''''''''''''''''''')))))))))))))))))))))))))!",
" &&&****************========================-----------------;;;;;;;;;;;;;;;;;;;>>>>>>>>>,,,,,,,,,,,,,,,,,,,,,,,,,,,,,''''''''''''''''''''''''''''''''''''''''''''''''''''''))))))))))))))))))))))))))!",
" &&&***************=========================----------------;;;;;;;;;;;;;;;;;;>>>>>>>>>>,,,,,,,,,,,,,,,,,,,,,,,,,,,,,'''''''''''''''''''''''''''''''''''''''''''''''''''''')))))))))))))))))))))))))))!",
" &&***************========================-----------------;;;;;;;;;;;;;;;;;;>>>>>>>>>,,,,,,,,,,,,,,,,,,,,,,,,,,,,,'''''''''''''''''''''''''''''''''''''''''''''''''''''''))))))))))))))))))))))))))))!",
" &***************========================-----------------;;;;;;;;;;;;;;;;;;>>>>>>>>>,,,,,,,,,,,,,,,,,,,,,,,,,,,,,''''''''''''''''''''''''''''''''''''''''''''''''''''''')))))))))))))))))))))))))))))!",
" ***************========================-----------------;;;;;;;;;;;;;;;;;;>>>>>>>>>,,,,,,,,,,,,,,,,,,,,,,,,,,,,''''''''''''''''''''''''''''''''''''''''''''''''''''''''))))))))))))))))))))))))))))))!",
".**************========================-----------------;;;;;;;;;;;;;;;;;>>>>>>>>>,,,,,,,,,,,,,,,,,,,,,,,,,,,,,'''''''''''''''''''''''''''''''''''''''''''''''''''''')))))))))))))))))))))))))))))))))!",
".*************========================-----------------;;;;;;;;;;;;;;;;;>>>>>>>>>,,,,,,,,,,,,,,,,,,,,,,,,,,,,,''''''''''''''''''''''''''''''''''''''''''''''''''''''))))))))))))))))))))))))))))))))~~!",
".************========================----------------;;;;;;;;;;;;;;;;;;>>>>>>>>>,,,,,,,,,,,,,,,,,,,,,,,,,,,,''''''''''''''''''''''''''''''''''''''''''''''''''''''))))))))))))))))))))))))))))))))))~~!",
".************=======================----------------;;;;;;;;;;;;;;;;;;>>>>>>>>>,,,,,,,,,,,,,,,,,,,,,,,,,,,,'''''''''''''''''''''''''''''''''''''''''''''''''''''')))))))))))))))))))))))))))))))))~~~~!",
".***********=======================----------------;;;;;;;;;;;;;;;;;>>>>>>>>>,,,,,,,,,,,,,,,,,,,,,,,,,,,,''''''''''''''''''''''''''''''''''''''''''''''''''''')))))))))))))))))))))))))))))))))))~~~~~!",
".**********=======================----------------;;;;;;;;;;;;;;;;;>>>>>>>>>,,,,,,,,,,,,,,,,,,,,,,,,,,,,''''''''''''''''''''''''''''''''''''''''''''''''''''')))))))))))))))))))))))))))))))))))~~~~~~!",
".*********======================-----------------;;;;;;;;;;;;;;;;;>>>>>>>>>,,,,,,,,,,,,,,,,,,,,,,,,,,,,''''''''''''''''''''''''''''''''''''''''''''''''''''')))))))))))))))))))))))))))))))))))~~~~~~~!",
".********=======================----------------;;;;;;;;;;;;;;;;;>>>>>>>>>,,,,,,,,,,,,,,,,,,,,,,,,,,,'''''''''''''''''''''''''''''''''''''''''''''''''''''))))))))))))))))))))))))))))))))))))~~~~~~~~!",
".*******=======================----------------;;;;;;;;;;;;;;;;;>>>>>>>>,,,,,,,,,,,,,,,,,,,,,,,,,,,,'''''''''''''''''''''''''''''''''''''''''''''''''''')))))))))))))))))))))))))))))))))))))~~~~~~~~~!",
".******=======================----------------;;;;;;;;;;;;;;;;>>>>>>>>>,,,,,,,,,,,,,,,,,,,,,,,,,,,,'''''''''''''''''''''''''''''''''''''''''''''''''''')))))))))))))))))))))))))))))))))))))~~~~~~~~~~!",
".*****=======================----------------;;;;;;;;;;;;;;;;>>>>>>>>>,,,,,,,,,,,,,,,,,,,,,,,,,,,''''''''''''''''''''''''''''''''''''''''''''''''''''))))))))))))))))))))))))))))))))))))))~~~~~~~~~~~!",
".****=======================----------------;;;;;;;;;;;;;;;;>>>>>>>>>,,,,,,,,,,,,,,,,,,,,,,,,,,,'''''''''''''''''''''''''''''''''''''''''''''''''''))))))))))))))))))))))))))))))))))))))~~~~~~~~~~~~~!",
".***=======================----------------;;;;;;;;;;;;;;;;>>>>>>>>,,,,,,,,,,,,,,,,,,,,,,,,,,,''''''''''''''''''''''''''''''''''''''''''''''''''''))))))))))))))))))))))))))))))))))))))~~~~~~~~~~~~~~!",
".**=======================---------------;;;;;;;;;;;;;;;;;>>>>>>>>,,,,,,,,,,,,,,,,,,,,,,,,,,,''''''''''''''''''''''''''''''''''''''''''''''''''')))))))))))))))))))))))))))))))))))))))~~~~~~~~~~~~~~~!",
".**======================----------------;;;;;;;;;;;;;;;;>>>>>>>>,,,,,,,,,,,,,,,,,,,,,,,,,,,''''''''''''''''''''''''''''''''''''''''''''''''''')))))))))))))))))))))))))))))))))))))))~~~~~~~~~~~~~~~~!",
".*======================----------------;;;;;;;;;;;;;;;;>>>>>>>>,,,,,,,,,,,,,,,,,,,,,,,,,,,''''''''''''''''''''''''''''''''''''''''''''''''''))))))))))))))))))))))))))))))))))))))))~~~~~~~~~~~~~~~~~!",
".======================---------------;;;;;;;;;;;;;;;;>>>>>>>>>,,,,,,,,,,,,,,,,,,,,,,,,,,''''''''''''''''''''''''''''''''''''''''''''''''''))))))))))))))))))))))))))))))))))))))))~~~~~~~~~~~~~~~~~~~!",
"+=====================---------------;;;;;;;;;;;;;;;;>>>>>>>>>,,,,,,,,,,,,,,,,,,,,,,,,,,''''''''''''''''''''''''''''''''''''''''''''''''''))))))))))))))))))))))))))))))))))))))))~~~~~~~~~~~~~~~~~~~~!",
"+====================---------------;;;;;;;;;;;;;;;;>>>>>>>>,,,,,,,,,,,,,,,,,,,,,,,,,,'''''''''''''''''''''''''''''''''''''''''''''''''')))))))))))))))))))))))))))))))))))))))))~~~~~~~~~~~~~~~~~~~~~!",
"+===================---------------;;;;;;;;;;;;;;;;>>>>>>>>,,,,,,,,,,,,,,,,,,,,,,,,,,'''''''''''''''''''''''''''''''''''''''''''''''''))))))))))))))))))))))))))))))))))))))))))~~~~~~~~~~~~~~~~~~~~~~!",
"+==================---------------;;;;;;;;;;;;;;;;>>>>>>>>,,,,,,,,,,,,,,,,,,,,,,,,,,'''''''''''''''''''''''''''''''''''''''''''''''''))))))))))))))))))))))))))))))))))))))))))~~~~~~~~~~~~~~~~~~~~~~~!",
"+=================---------------;;;;;;;;;;;;;;;;>>>>>>>>,,,,,,,,,,,,,,,,,,,,,,,,,,'''''''''''''''''''''''''''''''''''''''''''''''')))))))))))))))))))))))))))))))))))))))))))~~~~~~~~~~~~~~~~~~~~~~~~!",
"+================---------------;;;;;;;;;;;;;{{{{{{{{]^/(_,,,,,,,,,,,,,,,,,,,,,,,''''''''''''''''''''''''''''''''''''''''''''''''')))))))))))))))))))))))))))))))))))))))))))~~~~~~~~~~~~~~~~~~~~~~~~~!",
"+===============---------------;;;;;;;;;;;;;;{{^^^^^^^{{{{:<,,,,,,,,,,,,,,,,,,,,'''''''''''''''''''''''''''''''''''''''''''''''')^^)))))))))))))))))))))))))))))))))))))))))~~~~~~~~~~~~~~~~~~~~~~~~~~!",
"+==============---------------;;;;;;;;;;;;;;;{{>>>>>>>,<([{{(,,,,,,,,,,,,,,,,,,'''''''''''''''''''''''''''''''''''''''''''''''')){{))))))))))))))))))))))))))))))))))))))))~~~~~~~~~~~~~~~~~~~~~~~~~~~!",
"+=============---------------;;;;;;;;;;;;;;;;{{>>>>>>,,,,,(]{:,,,,,,,,,,,,,,,,''''''''''''''''''''''''''''''''''''''''''''''''))){{)))))))))))))))))))))))))))))))))))))))~~~~~~~~~~~~~~~~~~~~~~~~~~~~!",
"+============---------------;;;;;;;;;;;;;;;;>{{>>>>>,,,,,,,}]{(,,,,,,,,,,,,,''''''''''''''''''''''''''''''''''''''''''''''''))))){{))))))))))))))))))))))))))))))))))))))~~~~~~~~~~~~~~~~~~~~~~~~~~~~~!",
"+============--------------;;;;;;;;;;;;;;;>>>{{>>>,,,,,,,,,,|{{},,,,,,,,,,,'''''''''''''''''''''''''''''''''''''''''''''''')))))){{)))))))))))))))))))))))))))))))))))))~~~~~~~~~~~~~~~~~~~~~~~~~~~~~~!",
"+===========--------------;;;;;;;;;;;;;;;>>>>{{>>,,,,,,,,,,,,:{^,,,,,,,,,_(^{{{^(1''''''''{{'''23]{]34''''''''''<5^{{{^(1)))))^{{{{{{{6))))))))738{8369))))))))))))))~~~~~~~~~~~~~~~~~~~~~~~~~~~~~~~~~!",
"+==========--------------;;;;;;;;;;;;;;;>>>>>{{>,,,,,,,,,,,,,<{{<,,,,,,,2]{{^^^{{]('''''''{{'48{0^^]{{a''''''''5{{8^^^{{]7))))5^^{{^^^7))))))b8{8a6a8{]7))))))))))))~~~~~~~~~~~~~~~~~~~~~~~~~~~~~~~~~~!",
"+=========--------------;;;;;;;;;;;;;;;>>>>>>{{,,,,,,,,,,,,,,,^{(,,,,,,a{](1'''1(]{a''''''{{2{(<''''({{c'''''10{^c''''95{{d)))))){{)))))))))7{]e)))))b8{7)))))))))~~~~~~~~~~~~~~~~~~~~~~~~~~~~~~~~~~~~f",
"+========--------------;;;;;;;;;;;;;;;>>>>>>>{{,,,,,,,,,,,,,,,({^,,,,,4{]g'''''''g]{4'''''{{0<'''''''({3''''''a(''''')))5{a)))))){{))))))))h]]h)))))))9i{b))))))~~~~~~~~~~~~~~~~~~~~~~~~~~~~~~~~~~~~~jf",
"+=======--------------;;;;;;;;;;;;;;;>>>>>>>>{{,,,,,,,,,,,,,,,|{[,,,,'8{c'''''''''c{8'''''{{1''''''''<{8''''''1'''')))))d{8)))))){{))))))))^{b)))))))))h{8)))))~~~~~~~~~~~~~~~~~~~~~~~~~~~~~~~~~~~~jjjf",
"+======--------------;;;;;;;;;;;;;;;>>>>>>>>,{{,,,,,,,,,,,,,,,|{{,,,'2{^'''''''''''^{2''''{{''''''''''{{''''''''')))))))){{)))))){{)))))))b{3)))))))))))a{b)~~~~~~~~~~~~~~~~~~~~~~~~~~~~~~~~~~~~~~jjjjf",
"+=====--------------;;;;;;;;;;;;;;;>>>>>>>>,,{{,,,,,,,,,,,,,,,|{{,,''a{4'''''''''''4{a''''{{''''''''''{{'''''''')b667h))){{)))))){{)))))))5{e)))))))))))b{5~~~~~~~~~~~~~~~~~~~~~~~~~~~~~~~~~~~~~~jjjjjf",
"+====--------------;;;;;;;;;;;;;;;>>>>>>>>,,,{{,,,,,,,,,,,,,,,|{[,'''0{1'''''''''''1{0''''{{''''''''''{{'''''''6]{{{{{ib){{)))))){{)))))))^{9)))))))))))){k~~~~~~~~~~~~~~~~~~~~~~~~~~~~~~~~~~~~~jjjjjjf",
"+===--------------;;;;;;;;;;;;;;;>>>>>>>>,,,,{{,,,,,,,,,,,,,,,({^''''{{'''''''''''''{{''''{{''''''''''{{''''')5{]6d))h6]6{{)))))){{))))))){{6666666666666{]~~~~~~~~~~~~~~~~~~~~~~~~~~~~~~~~~~~~jjjjjjjf",
"+==---------------;;;;;;;;;;;;;;>>>>>>>>,,,,,{{,,,,,,,,,,,,,,,^{(''''{{'''''''''''''{{''''{{''''''''''{{'''))b{]h))))))9i{{)))))){{))))))){{{{{{{{{{{{{{{{{~~~~~~~~~~~~~~~~~~~~~~~~~~~~~~~~~~jjjjjjjjjf",
"+=--------------;;;;;;;;;;;;;;;>>>>>>>,,,,,,,{{,,,,,,,,,,,,,,<{{g''''0{1'''''''''''<{0''''{{''''''''''{{'')))a{7))))))))9{{)))))){{)))))))]{))))))))~~~~~~~~~~~~~~~~~~~~~~~~~~~~~~~~~~~~~~~~jjjjjjjjjjf",
"+--------------;;;;;;;;;;;;;;;>>>>>>>>,,,,,,,{{,,,,,,,,,,,,,,a{^'''''a{4'''''''''''4{a''''{{''''''''''{{'))))8{9))))))))){{)))))){{)))))))^{h)))))~~~~~~~~~~~~~~~~~~~~~~~~~~~~~~~~~~~~~~~~~jjjjjjjjjjjf",
"+-------------;;;;;;;;;;;;;;;>>>>>>>,,,,,,,,,{{,,,,,,,,,,,,,c{{c'''''2{^'''''''''''^{2''''{{''''''''''{{))))){{)))))))))){{)))))){{)))))))6{5))))~~~~~~~~~~~~~~~~~~~~~~~~~~~~~~~~~~~~~~~~jjjjjjjjjjjjjf",
"+------------;;;;;;;;;;;;;;;>>>>>>>,,,,,,,,,,{{,,,,,,,,,,,,g]{('''''''8{c'''''''''c{8'''''{{''''''''''{{)))))i{d))))))))){{)))))){{)))))))9]{h)~~~~~~~~~~~~~~~~~~~~~~~~~~~~~~~~~~~~~~~~~jjjjjjjjjjjjjjf",
"+------------;;;;;;;;;;;;;;>>>>>>>,,,,,,,,,,,{{,,,,,,,,,,'(]{a''''''''4{]g'''''''g]{4'''''{{'''''''''){{)))))5{3))))))))7{{)))))){{))))))))7{il~~~~~~~~~6m~~~~~~~~~~~~~~~~~~~~~~~~~~~~~jjjjjjjjjjjjjjjf",
"+-----------;;;;;;;;;;;;;;>>>>>>>,,,,,,,,,,,,{{,,,,,,,,<(8{{(''''''''''5{](1'''1(]{a''''''{{'''''''))){{)))))9]{6)))))96]{{))))))i{7))b))))~n{]7~~~~~~bk{n~~~~~~~~~~~~~~~~~~~~~~~~~~~~jjjjjjjjjjjjjjjjf",
"+----------;;;;;;;;;;;;;;>>>>>>>,,,,,,,,,,,,,{{^^^^^^^{{{{a<''''''''''''2]{{^^^{{]2'''''''{{'''''))))){{))))))h8{8a663{id{{))))))7{{^i{b))~~~e8{]k66k]{]7~~~~~~~~~~~~~~~~~~~~~~~~~~~~jjjjjjjjjjjjjjjjjf",
"+---------;;;;;;;;;;;;;;>>>>>>>,,,,,,,,,,,,,,{{{{{{{{]^3(<'''''''''''''''1(^{{{^(1''''''''{{'''')))))){{)))))))96i{{837)){{)))))))68{859)~~~~~~7oi{{kp7l~~~~~~~~~~~~~~~~~~~~~~~~~~~jjjjjjjjjjjjjjjjjjjf",
"+--------;;;;;;;;;;;;;;>>>>>>>,,,,,,,,,,,,,,,,,,,,,,,''''''''''''''''''''''''''''''''''''''''''))))))))))))))))))))))))))))))))))))))))~~~~~~~~~~~~~~~~~~~~~~~~~~~~~~~~~~~~~~~~~~~jjjjjjjjjjjjjjjjjjjjf",
"+-------;;;;;;;;;;;;;;>>>>>>>,,,,,,,,,,,,,,,,,,,,,,,'''''''''''''''''''''''''''''''''''''''''')))))))))))))))))))))))))))))))))))))))~~~~~~~~~~~~~~~~~~~~~~~~~~~~~~~~~~~~~~~~~~~~jjjjjjjjjjjjjjjjjjjjjf",
"+------;;;;;;;;;;;;;;>>>>>>>,,,,,,,,,,,,,,,,,,,,,,,'''''''''''''''''''''''''''''''''''''''''))))))))))))))))))))))))))))))))))))))))~~~~~~~~~~~~~~~~~~~~~~~~~~~~~~~~~~~~~~~~~~~jjjjjjjjjjjjjjjjjjjjjjjf",
"+------;;;;;;;;;;;;;>>>>>>>,,,,,,,,,,,,,,,,,,,,,,'''''''''''''''''''''''''''''''''''''''''')))))))))))))))))))))))))))))))))))))))~~~~~~~~~~~~~~~~~~~~~~~~~~~~~~~~~~~~~~~~~~~~jjjjjjjjjjjjjjjjjjjjjjjjf",
"+-----;;;;;;;;;;;;;>>>>>>>,,,,,,,,,,,,,,,,,,,,,,''''''''''''''''''''''''''''''''''''''''''))))))))))))))))))))))))))))))))))))))~~~~~~~~~~~~~~~~~~~~~~~~~~~~~~~~~~~~~~~~~~~~~jjjjjjjjjjjjjjjjjjjjjjjjjf",
"+----;;;;;;;;;;;;;>>>>>>>,,,,,,,,,,,,,,,,,,,,,,''''''''''''''''''''''''''''''''''''''''''))))))))))))))))))))))))))))))))))))))~~~~~~~~~~~~~~~~~~~~~~~~~~~~~~~~~~~~~~~~~~~~~jjjjjjjjjjjjjjjjjjjjjjjjjjf",
"+---;;;;;;;;;;;;;>>>>>>>,,,,,,,,,,,,,,,,,,,,,,'''''''''''''''''''''''''''''''''''''''''))))))))))))))))))))))))))))))))))))))~~~~~~~~~~~~~~~~~~~~~~~~~~~~~~~~~~~~~~~~~~~~~~jjjjjjjjjjjjjjjjjjjjjjjjjjjf",
"+--;;;;;;;;;;;;;>>>>>>>,,,,,,,,,,,,,,,,,,,,,,'''''''''''''''''''''''''''''''''''''''''))))))))))))))))))))))))))))))))))))))~~~~~~~~~~~~~~~~~~~~~~~~~~~~~~~~~~~~~~~~~~~~~jjjjjjjjjjjjjjjjjjjjjjjjjjjjjq",
"+-;;;;;;;;;;;;;>>>>>>>>,,,,,,,,,,,,,,,,,,,,,''''''''''''''''''''''''''''''''''''''''')))))))))))))))))))))))))))))))))))))~~~~~~~~~~~~~~~~~~~~~~~~~~~~~~~~~~~~~~~~~~~~~~jjjjjjjjjjjjjjjjjjjjjjjjjjjjrrq",
"+;;;;;;;;;;;;;;>>>>>>,,,,,,,,,,,,,,,,,,,,,,''''''''''''''''''''''''''''''''''''''''))))))))))))))))))))))))))))))))))))))~~~~~~~~~~~~~~~~~~~~~~~~~~~~~~~~~~~~~~~~~~~~~jjjjjjjjjjjjjjjjjjjjjjjjjjjjjrrrq",
"@;;;;;;;;;;;;;>>>>>>,,,,,,,,,,,,,,,,,,,,,,'''''''''''''''''''''''''''''''''''''''')))))))))))))))))))))))))))))))))))))~~~~~~~~~~~~~~~~~~~~~~~~~~~~~~~~~~~~~~~~~~~~~~jjjjjjjjjjjjjjjjjjjjjjjjjjjjjrrrrq",
"@;;;;;;;;;;;;>>>>>>>,,,,,,,,,,,,,,,,,,,,,''''''''''''''''''''''''''''''''''''''''))))))))))))))))))))))))))))))))))))~~~~~~~~~~~~~~~~~~~~~~~~~~~~~~~~~~~~~~~~~~~~~~jjjjjjjjjjjjjjjjjjjjjjjjjjjjjrrrrrrq",
"@;;;;;;;;;;;>>>>>>>,,,,,,,,,,,,,,,,,,,,,''''''''''''''''''''''''''''''''''''''')))))))))))))))))))))))))))))))))))))~~~~~~~~~~~~~~~~~~~~~~~~~~~~~~~~~~~~~~~~~~~~~jjjjjjjjjjjjjjjjjjjjjjjjjjjjjjrrrrrrrq",
"@;;;;;;;;;;>>>>>>>,,,,,,,,,,,,,,,,,,,,,''''''''''''''''''''''''''''''''''''''')))))))))))))))))))))))))))))))))))))~~~~~~~~~~~~~~~~~~~~~~~~~~~~~~~~~~~~~~~~~~~jjjjjjjjjjjjjjjjjjjjjjjjjjjjjjjrrrrrrrrrq",
"@;;;;;;;;;>>>>>>,,,,,,,,,,,,,,,,,,,,,,'''''''''''''''''''''''''''''''''''''''))))))))))))))))))))))))))))))))))))~~~~~~~~~~~~~~~~~~~~~~~~~~~~~~~~~~~~~~~~~~~~jjjjjjjjjjjjjjjjjjjjjjjjjjjjjjjrrrrrrrrrrq",
"@;;;;;;;;>>>>>>>,,,,,,,,,,,,,,,,,,,,''''''''''''''''''''''''''''''''''''''''))))))))))))))))))))))))))))))))))))~~~~~~~~~~~~~~~~~~~~~~~~~~~~~~~~~~~~~~~~~~~jjjjjjjjjjjjjjjjjjjjjjjjjjjjjjjrrrrrrrrrrrsq",
"@;;;;;;;>>>>>>,,,,,,,,,,,,,,,,,,,,,'''''''''''''''''''''''''''''''''''''''))))))))))))))))))))))))))))))))))))~~~~~~~~~~~~~~~~~~~~~~~~~~~~~~~~~~~~~~~~~~~jjjjjjjjjjjjjjjjjjjjjjjjjjjjjjjjrrrrrrrrrrrssq",
"@;;;;;;>>>>>>,,,,,,,,,,,,,,,,,,,,,,''''''''''''''''''''''''''''''''''''''))))))))))))))))))))))))))))))))))))~~~~~~~~~~~~~~~~~~~~~~~~~~~~~~~~~~~~~~~~~~jjjjjjjjjjjjjjjjjjjjjjjjjjjjjjjjjrrrrrrrrrrssssq",
"@;;;;;>>>>>>>,,,,,,,,,,,,,,,,,,,,''''''''''''''''''''''''''''''''''''''')))))))))))))))))))))))))))))))))))~~~~~~~~~~~~~~~~~~~~~~~~~~~~~~~~~~~~~~~~~~~jjjjjjjjjjjjjjjjjjjjjjjjjjjjjjjjrrrrrrrrrrrsssssq",
"@;;;;>>>>>>>,,,,,,,,,,,,,,,,,,,,''''''''''''''''''''''''''''''''''''''')))))))))))))))))))))))))))))))))))~~~~~~~~~~~~~~~~~~~~~~~~~~~~~~~~~~~~~~~~~~jjjjjjjjjjjjjjjjjjjjjjjjjjjjjjjjjrrrrrrrrrrsssssssq",
"@;;;>>>>>>>,,,,,,,,,,,,,,,,,,,,'''''''''''''''''''''''''''''''''''''')))))))))))))))))))))))))))))))))))~~~~~~~~~~~~~~~~~~~~~~~~~~~~~~~~~~~~~~~~~~~jjjjjjjjjjjjjjjjjjjjjjjjjjjjjjjjrrrrrrrrrrrssssssssq",
"@;;;>>>>>>,,,,,,,,,,,,,,,,,,,,,''''''''''''''''''''''''''''''''''''')))))))))))))))))))))))))))))))))))~~~~~~~~~~~~~~~~~~~~~~~~~~~~~~~~~~~~~~~~~jjjjjjjjjjjjjjjjjjjjjjjjjjjjjjjjjjrrrrrrrrrrssssssssssq",
"@;;>>>>>>,,,,,,,,,,,,,,,,,,,,,'''''''''''''''''''''''''''''''''''''))))))))))))))))))))))))))))))))))~~~~~~~~~~~~~~~~~~~~~~~~~~~~~~~~~~~~~~~~~~jjjjjjjjjjjjjjjjjjjjjjjjjjjjjjjjjjrrrrrrrrrrsssssssssssq",
"@;>>>>>>,,,,,,,,,,,,,,,,,,,,''''''''''''''''''''''''''''''''''''''))))))))))))))))))))))))))))))))))~~~~~~~~~~~~~~~~~~~~~~~~~~~~~~~~~~~~~~~~~jjjjjjjjjjjjjjjjjjjjjjjjjjjjjjjjjjrrrrrrrrrrsssssssssssssq",
"@>>>>>>,,,,,,,,,,,,,,,,,,,,'''''''''''''''''''''''''''''''''''''))))))))))))))))))))))))))))))))))~~~~~~~~~~~~~~~~~~~~~~~~~~~~~~~~~~~~~~~~~~jjjjjjjjjjjjjjjjjjjjjjjjjjjjjjjjjjrrrrrrrrrrssssssssssssssq",
"#>>>>>>,,,,,,,,,,,,,,,,,,,'''''''''''''''''''''''''''''''''''''))))))))))))))))))))))))))))))))))~~~~~~~~~~~~~~~~~~~~~~~~~~~~~~~~~~~~~~~~~jjjjjjjjjjjjjjjjjjjjjjjjjjjjjjjjjjjrrrrrrrrrrsssssssssssssssq",
"#>>>>>,,,,,,,,,,,,,,,,,,,,''''''''''''''''''''''''''''''''''''))))))))))))))))))))))))))))))))))~~~~~~~~~~~~~~~~~~~~~~~~~~~~~~~~~~~~~~~~jjjjjjjjjjjjjjjjjjjjjjjjjjjjjjjjjjjrrrrrrrrrrsssssssssssssssssq",
"#>>>>,,,,,,,,,,,,,,,,,,,''''''''''''''''''''''''''''''''''''')))))))))))))))))))))))))))))))))~~~~~~~~~~~~~~~~~~~~~~~~~~~~~~~~~~~~~~~~jjjjjjjjjjjjjjjjjjjjjjjjjjjjjjjjjjjjrrrrrrrrrrssssssssssssssssssq",
"#>>>,,,,,,,,,,,,,,,,,,,''''''''''''''''''''''''''''''''''''))))))))))))))))))))))))))))))))))~~~~~~~~~~~~~~~~~~~~~~~~~~~~~~~~~~~~~~~jjjjjjjjjjjjjjjjjjjjjjjjjjjjjjjjjjjjjrrrrrrrrrssssssssssssssssssssq",
"#>>,,,,,,,,,,,,,,,,,,,''''''''''''''''''''''''''''''''''''')))))))))))))))))))))))))))))))))~~~~~~~~~~~~~~~~~~~~~~~~~~~~~~~~~~~~~~~jjjjjjjjjjjjjjjjjjjjjjjjjjjjjjjjjjjjrrrrrrrrrrsssssssssssssssssssssq",
"#tuuuuuuuuuuuuuuuuuuuuuuuuuuuuuuuuuuuuuuuuuuuuuuuuuuuuuuu!!!!!!!!!!!!!!!!!!!!!!!!!!!!!!!!!!!!!!!!!!!!!!!!!!!!!!!!!!!!!!!!!!!!!!!!ffffffffffffffffffffffffffffffffffffqqqqqqqqqqqqqqqqqqqqqqqqqqqqqqqqqq"};
