/* XPM */
static char * exit_2[] = {
"199 85 26 1",
" 	c #CEF0C7",
".	c #CDEFC7",
"+	c #CCEEC6",
"@	c #CBEDC5",
"#	c #CBECC4",
"$	c #CAEBC3",
"%	c #27561D",
"&	c #9FC397",
"*	c #527E49",
"=	c #A9CDA2",
"-	c #7EA576",
";	c #326028",
">	c #94B98C",
",	c #BFE1B8",
"'	c #C9EAC2",
")	c #5D8854",
"!	c #739C6A",
"~	c #89AF81",
"{	c #48743E",
"]	c #68925F",
"^	c #B4D7AD",
"/	c #C8E9C2",
"(	c #3D6A33",
"_	c #C7E8C1",
":	c #C6E7C0",
"<	c #C5E6BF",
"    ..........++++++++++++++++++++++++++++@@@@@@@@@@@@@@@@@@@@@@@@@@@@@@@@@@@@@@@@#####################################################################################################################",
"   .........+++++++++++++++++++++++++@@@@@@@@@@@@@@@@@@@@@@@@@@@@@@@@@@@@@@@@##########################################################################################################################",
"  .........+++++++++++++++++++++++@@@@@@@@@@@@@@@@@@@@@@@@@@@@@@@@@@@@@################################################################################################################################",
" .........+++++++++++++++++++++@@@@@@@@@@@@@@@@@@@@@@@@@@@@@@@@@@@@@###################################################################################################################################",
".........+++++++++++++++++++++@@@@@@@@@@@@@@@@@@@@@@@@@@@@@@@@@########################################################################################################################################",
"........++++++++++++++++++++@@@@@@@@@@@@@@@@@@@@@@@@@@@@@@#############################################################################################################################################",
".......++++++++++++++++++++@@@@@@@@@@@@@@@@@@@@@@@@@@##################################################################################################################################################",
".....+++++++++++++++++++++@@@@@@@@@@@@@@@@@@@@@@@@@###############################################################$$$#$###$$$$#####$$##$#$$$$##########################################################",
"....+++++++++++++++++++++@@@@@@@@@@@@@@@@@@@@@##########################################################$$$$$#$$#$$$$$$$$$$$$$$$$$$$$$$$$$$$$$$$$$$$$$#################################################",
"...++++++++++++++++++++@@@@@@@@@@@@@@@@@@@######################################################$#$$$$$$$$$$$$$$$$$$$$$$$$$$$$$$$$$$$$$$$$$$$$$$$$$$$$$$$$$$$$$$$######################################",
"..++++++++++++++++++++@@@@@@@@@@@@@@@##################################################$###$$$$$$$$$$$$$$$$$$$$$$$$$$$$$$$$$$$$$$$$$$$$$$$$$$$$$$$$$$$$$$$$$$$$$#######################################",
".++++++++++++++++++++@@@@@@@@@@@@@############################################$##$$$$$$$$$$$$$$$$$$$$$$$$$$$$$$$$$$$$$$$$$$$$$$$$$$$$$$$$$$$$$$$$$$$$$$$$$$$$$$$$$$$$##################################",
"++++++++++++++++++++@@@@@@@@@@##############################################$$$$$$$$$$$$$$$$$$$$$$$$$$$$$$$$$$$$$$$$$$$$$$$$$$$$$$$$$$$$$$$$$$$$$$$$$$$$$$$$$$$$$$$$$$$$$$$############################",
"++++++++++++++++++@@@@@@@@@@@@#######################################$$$$$$$$$$$$$$$$$$$$$$$$$$$$$$$$$$$$$$$$$$$$$$$$$$$$$$$$$$$$$$$$$$$$$$$$$$$$$$$$$$$$$$$$$$$$$$$$$$$$$$$###########################",
"+++++++++++++++++@@@@@@@@@@@###################################$$$$$$$$$$$$$$$$$$$$$$$$$$$$$$$$$$$$$$$$$$$$$$$$$$$$$$$$$$$$$$$$$$$$$$$$$$$$$$$$$$$$$$$$$$$$$$$$$$$$$$$$$$$$$$##########################",
"++++++++++++++++@@@@@@@@@@@################################$$$$$$$$$$$$$$$$$$$$$$$$$$$$$$$$$$$$$$$$$$$$$$$$$$$$$$$$$$$$$$$$$$$$$$$$$$$$$$$$$$$$$$$$$$$$$$$$$$$$$$$$$$$$$$$$$$$$$$$#####################",
"+++++++++++++++@@@@@@@@@@###########################$$$$$$$$$$$$$$$$$$$$$$$$$$$$$$$$$$$$$$$$$$$$$$$$$$$$$$$$$$$$$$$$$$$$$$$$$$$$$$$$$$$$$$$$$$$$$$$$$$$$$$$$$$$$$$$$$$$$$$$$$$$$$$#####################",
"++++++++++++++@@@@@@@@@@########################$$$$$$$$$$$$$$$$$$$$$$$$$$$$$$$$$$$$$$$$$$$$$$$$$$$$$$$$$$$$$$$$$$$$$$$$$$$$$$$$$$$$$$$$$$$$$$$$$$$$$$$$$$$$$$$$$$$$$$$$$$$$$$$$$$$####################",
"++++++++++++@@@@@@@@@@@####################$$$$$$$$$$$$$$$$$$$$$$$$$$$$$$$$$$$$$$$$$$$$$$$$$$$$$$$$$$$$$$$$$$$$$$$$$$$$$$$$$$$$$$$$$$$$$$$$$$$$$$$$$$$$$$$$$$$$$$$$$$$$$$$$$$$$$$$$$$$#################",
"+++++++++++@@@@@@@@@@#################$$$$$$$$$$$$$$$$$$$$$$$$$$$$$$$$$$$$$$$$$$$$$$$$$$$$$$$$$$$$$$$$$$$$$$$$$$$$$$$$$$$$$$$$$$$$$$$$$$$$$$$$$$$$$$$$$$$$$$$$$$$$$$$$$$$$$$$$$$$$$$$$$################",
"+++++++++@@@@@@@@@@@##############$$$$$$$$$$$$$$$$$$$$$$$$$$$$$$$$$$$$$$$$$$$$$$$$$$$$$$$$$$$$$$$$$$$$$$$$$$$$$$$$$$$$$$$$$$$$$$$$$$$$$$$$$$$$$$$$$$$$$$$$$$$$$$$$$$$$$$$$$$$$$$$$$$$$$$###############",
"++++++++@@@@@@@@@@@############$$$$$$$$$$$$$$$$$$$$$$$$$$$$$$$$$$$$$$$$$$$$$$$$$$$$$$$$$$$$$$$$$$$$$$$$$$$$$$$$$$$$$$$$$$$$$$$$$$$$$$$$$$$$$$$$$$$$$$$$$$$$$$$$$$$$$$$$$$$$$$$$$$$$$$$$$$$#############",
"+++++++@@@@@@@@@@@###########$$$$$$$$$$$$$$$$$$$$$$$$$$$$$$$$$$$$$$$$$$$$$$$$$$$$$$$$$$$$$$$$$$$$$$$$$$$$$$$$$$$$$$$$$$$$$$$$$$$$$$$$$$$$$$$$$$$$$$$$$$$$$$$$$$$$$$$$$$$$$$$$$$$$$$$$$$$$$$############",
"++++++@@@@@@@@@@############$$$$$$$$$$$$$$$$$$$$$$$$$$$$$$$$$$$$$$$$$$$$$$$$$$$$$$$$$$$$$$$$$$$$$$$$$$$$$$$$$$$$$$$$$$$$$$$$$$$$$$$$$$$$$$$$$$$$$$$$$$$$$$$$$$$$$$$$$$$$$$$$$$$$$$$$$$$$$$$$###########",
"+++++@@@@@@@@@@############$$$$$$$$$$$$$$$$$$$$$$$$$$$$$$$$$$$$$$$$$$$$$$$$$$$$$$$$$$$$$$$$$$$$$$$$$$$$$$$$$$$$$$$$$$$$$$$$$$$$$$$$$$$$$$$$$$$$$$$$$$$$$$$$$$$$$$$$$$$$$$$$$$$$$$$$$$$$$$$$$###########",
"+++@@@@@@@@@@@###########$$$$$$$$$$$$$$$$$$$$$$$$$$$$$$$$$$$$$$$$$$$$$$$$$$$$$$$$$$$$$$$$$$$$$$$$$$$$$$$$$$$$$$$$$$$$$$$$$$$$$$$$$$$$$$$$$$$$$$$$$$$$$$$$$$$$$$$$$$$$$$$$$$$$$$$$$$$$$$$$$$$###########",
"++@@@@@@@@@@############$$$$$$$$$$$$$$$$$$$$$$$$$$$$$$$$$$$$$$$$$$$$$$$$$$$$$$$$$$$$$$$$$$$$$$$$$$$$$$$$$$$$$$$$$$$$$$$$$$$$$$$$$$$$$$$$$$$$$$$$$$$$$$$$$$$$$$$$$$$$$$$$$$$$$$$$$$$$$$$$$$$$$$$########",
"+@@@@@@@@@@############$$$$$$$$$$$$$$$$$$$$$$$$$$$$$$$$$$$$$$$$$$$$$$$$$$$$$$$$$$$$$$$$$$$$$$$$$$$$$$$$$$$$$$$$$$$$$$$$$$$$$$$$$$$$$$$$$$$$$$$$$$$$$$$$$$$$$$$$$$$$$$$$$$$$$$$$$$$$$$$$$$$$$$$#########",
"@@@@@@@@@############$$$$$$$$$$$$$$$$$$$$$$$$$$$$$$$$$$$$$$$$$$$$$$$$$$$$$$$$$$$$$$$$$$$$$$$$$$$$$$$$$$$$$$$$$$$$$$$$$$$$$$$$$$$$$$$$$$$$$$$$$$$$$$$$$$$$$$$$$$$$$$$$$$$$$$$$$$$$$$$$$$$$$$$$$$########",
"@@@@@@@@############$$$$$$$$$$$$$$$$$$$$$$$$$$$$$$$$$$$$$$$$$$$$$$$$$$$$$$$$$$$$$$$$$$$$$$$$$$$$$$$$$$$$$$$$$$$$$$$$$$$$$$$$$$$$$$$$$$$$$$$$$$$$$$$$$$$$$$$$$$$$$$$$$$$$$$$$$$$$$$$$$$$$$$$$$$$$$$#####",
"@@@@@@@###########$$$$$$$$$$$$$$$$$$$$$$$$$$$$$$$$$$$$$$$$$$$$$$$$$$$$$$$$$%%%%%%%%%%%%%%%&$$$$$$$$$$$$$$$$$$$$$$$$$$$$$$$$$$$$$$$$$$$$$$$$$$$$$$$$$$$$$$$$$$$$$$$$$$$$$$$$$$$$$$$$$$$$$$$$$$$$$$######",
"@@@@@@###########$$$$$$$$$$$$$$$$$$$$$$$$$$$$$$$$$$$$$$$$$$$$$$$$$$$$$$$$$$%%*************=$$$$$$$$$$$$$$$$$$$$$-%-$$$$$$**$$$$$$$$$$$$$$$$$$$$$$$$$$$$$$$$$$$$$$$$$$$$$$$$$$$$$$$$$$$$$$$$$$$$$$######",
"@@@@############$$$$$$$$$$$$$$$$$$$$$$$$$$$$$$$$$$$$$$$$$$$$$$$$$$$$$$$$$$$%%$$$$$$$$$$$$$$$$$$$$$$$$$$$$$$$$$$$;%;$$$$$$%%$$$$$$$$$$$$$$$$$$$$$$$$$$$$$$$$$$$$$$$$$$$$$$$$$$$$$$$$$$$$$$$$$$$$$$$#####",
"@@@###########$$$$$$$$$$$$$$$$$$$$$$$$$$$$$$$$$$$$$$$$$$$$$$$$$$$$$$$$$$$$$%%$$$$$$$$$$$$$$$$$$$$$$$$$$$$$$$$$$$>*>$$$$$$%%$$$$$$$$$$$$$$$$$$$$$$$$$$$$$$$$$$$$$$$$$$$$$$$$$$$$$$$$$$$$$$$$$$$$$$$$####",
"@@###########$$$$$$$$$$$$$$$$$$$$$$$$$$$$$$$$$$$$$$$$$$$$$$$$$$$$$$$$$$$$$$%%$$$$$$$$$$$$$$$$$$$$$$$$$$$$$$$$$$$$$$$$$$$$%%$$$$$$$$$$$$$$$$$$$$$$$$$$$$$$$$$$$$$$$$$$$$$$$$$$$$$$$$$$$$$$$$$$$$$$$$####",
"############$$$$$$$$$$$$$$$$$$$$$$$$$$$$$$$$$$$$$$$$$$$$$$$$$$$$$$$$$$$$$$$%%$$$$$$$$$$$$$$$$$$$$$$$$$$$$$$$$$$$$$$$$$$$$%%$$$$$$$$$$$$$$$$$$$$$$$$$$$$$$$$$$$$$$$$$$$$$$$$$$$$$$$$$$$$$$$$$$$$$$$$$###",
"##########$$$$$$$$$$$$$$$$$$$$$$$$$$$$$$$$$$$$$$$$$$$$$$$$$$$$$$$$$$$$$$$$$%%$$$$$$$$$$$$$$$$$&%;,$$$$$$$$,;%&$$$%%$$$*%%%%%%%-$$$$$$$$$$$$$$$$$$$$$$$$$$$$$$$$$$$$$$$$$$$$$$$$$$$$$$$$$$$$$$$$$$$$$###",
"#########$$$$$$$$$$$$$$$$$$$$$$$$$$$$$$''''$$$$$$$$$$$$$$$$$$$$$$$$$$$$$$$$%%$$$$$$$$$$$$$$$$$$-%)$$$$$$$$)%-$$$$%%$$$!**%%***~$$$$$$$$$$$$$$$$$$$$$$$$$$$$$$$$$$$$$$$$$$$$$$$$$$$$$$$$$$$$$$$$$$$$$###",
"#######$$$$$$$$$$$$$$$$$$$$$$$$$$$'''''''''$$$$$$$$$$$$$$$$$$$$$$$$$$$$$$$$%%$$$$$$$$$$$$$$$$$$$*%-$$$$$$-%*$$$$$%%$$$$$$%%$$$$$$$$$$$$$$$$$$$$$$$$$$$$$$$$$$$$$$$$$$$$$$$$$$$$$$$$$$$$$$$$$$$$$$$$$###",
"######$$$$$$$$$$$$$$$$$$$$$$$$$''''''''''''$$$$$$$$$$$$$$$$$$$$$$$$$$$$$$$$%%$$$$$$$$$$$$$$$$$$$,;%=$$$$=%;,$$$$$%%$$$$$$%%$$$$$$$$$$$$$$$$$$$$$$$$$$$$$$$$$$$$$$$$$$$$$$$$$$$$$$$$$$$$$$$$$$$$$$$$$###",
"#####$$$$$$$$$$$$$$$$$$$$$$$$''''''''''''''$$$$$$$$$$$$$$$$$$$$$$$$$$$$$$$$%%$$$$$$$$$$$$$$$$$$$$&%{,$$,{%&$$$$$$%%$$$$$$%%$$$$$$$$$$$$$$$$$$$$$$$$$$$$$$$$$$$$$$$$$$$$$$$$$$$$$$$$$$$$$$$$$$$$$$$$$$#$",
"###$$$$$$$$$$$$$$$$$$$$$$$$''''''''''''''''$$$$$$$$$$$$$$$$$$$$$$$$$$$$$$$$%%%%%%%%%%%%%%%$$$$$$$$!%]$$!%!$$$$$$$%%$$$$$$%%$$$$$$$$$$$$$$$$$$$$$$$$$$$$$$$$$$$$$$$$$$$$$$$$$$$$$$$$$$$$$$$$$$$$$$$$$$$$",
"##$$$$$$$$$$$$$$$$$$$$$$$$'''''''''''''''''$$$$$$$$$$$$$$$$$$$$$$$$$$$$$$$$%%*************$$$$$$$$${%>>%{$$$$$$$$%%$$$$$$%%$$$$$$$$$$$$$$$$$$$$$$$$$$$$$$$$$$$$$$$$$$$$$$$$$$$$$$$$$$$$$$$$$$$$$$$$$$$$",
"#$$$$$$$$$$$$$$$$$$$$$$$'''''''''''''''''''$$$$$$$$$$$$$$$$$$$$$$$$$$$$$$$$%%$$$$$$$$$$$$$$$$$$$$$$^;;;;^$$$$$$$$%%$$$$$$%%$$$$$$$$$$$$$$$$$$$$$$$$$$$$$$$$$$$$$$$$$$$$$$$$$$$$$$$$$$$$$$$$$$$$$$$$$$$#",
"$$$$$$$$$$$$$$$$$$$$$$'''''''''''''''''''''$$$$$$$$$$$$$$$$$$$$$$$$$$$$$$$$%%$$$$$$$$$$$$$$$$$$$$$$$~%%~$$$$$$$$$%%$$$$$$%%$$$$$$$$$$$$$$$$$$$$$$$$$$$$$$$$$$$$$$$$$$$$$$$$$$$$$$$$$$$$$$$$$$$$$$$$$$$$",
"$$$$$$$$$$$$$$$$$$$$$''''''''''''''''''''''$$$$$$$$$$$$$$$$$$$$$$$$$$$$$$$$%%$$$$$$$$$$$$$$$$$$$$$$$)%%)$$$$$$$$$%%$$$$$$%%$$$$$$$$$$$$$$$$$$$$$$$$$$$$$$$$$$$$$$$$$$$$$$$$$$$$$$$$$$$$$$$$$$$$$$$$$$$$",
"$$$$$$$$$$$$$$$$$$$$'''''''''''''''''''''''$$$$$$$$$$$$$$$$$$$$$$$$$$$$$$$$%%$$$$$$$$$$$$$$$$$$$$$$-%))%-$$$$$$$$%%$$$$$$%%$$$$$$$$$$$$$$$$$$$$$$$$$$$$$$$$$$$$$$$$$$$$$$$$$$$$$$$$$$$$$$$$$$$$$$$$$$$$",
"$$$$$$$$$$$$$$$$$$''''''''''''''''''///////$$$$$$$$$$$$$$$$$$$$$$$$$$$$$$$$%%$$$$$$$$$$$$$$$$$$$$$=%;,,(%=$$$$$$$%%$$$$$$%%$$$$$$$$$$$$$$$$$$$$$$$$$$$$$$$$$$$$$$$$$$$$$$$$$$$$$$$$$$$$$$$$$$$$$$$$$$$$",
"$$$$$$$$$$$$$$$$''''''''''''''/////////////$$$$$$$$$$$$$$$$$$$$$$$$$$$$$$$$%%$$$$$$$$$$$$$$$$$$$$,(%&$$=%(,$$$$$$%%$$$$$$%%$$$$$$$$$$$$$$$$$$$$$$$$$$$$$$$$$$$$$$$$$$$$$$$$$$$$$$$$$$$$$$$$$$$$$$$$$$$$",
"$$$$$$$$$$$$$$$''''''''''''''//////////////$$$$$$$$$$$$$$$$$$$$$$$$$$$$$$$$%%$$$$$$$$$$$$$$$$$$$$]%-$$$$-%]$$$$$$%%$$$$$$%%$$$$$$$$$$$$$$$$$$$$$$$$$$$$$$$$$$$$$$$$$$$$$$$$$$$$$$$$$$$$$$$$$$$$$$$$$$$$",
"$$$$$$$$$$$$$''''''''''''''////////////////$$$$$$$$$$$$$$$$$$$$$$$$$$$$$$$$%%$$$$$$$$$$$$$$$$$$$~%*$$$$$$*%~$$$$$%%$$$$$$%%$$$$$$$$$$$$$$$$$$$$$$$$$$$$$$$$$$$$$$$$$$$$$$$$$$$$$$$$$$$$$$$$$$$$$$$$$$$$",
"$$$$$$$$$$$$'''''''''''''//////////////////$$$$$$$$$$$$$$$$$$$$$$$$$$$$$$$$%%$$$$$$$$$$$$$$$$$$=;;^$$$$$$^;;=$$$$%%$$$$$${%~$$&$$$$$$$$$$$$$$$$$$$$$$$$$$$$$$$$$$$$$$$$$$$$$$$$$$$$$$$$$$$$$$$$$$$$$$$$",
"$$$$$$$$$$$'''''''''''''///////////////////$$$$$$$$$$$$$$$$$$$$$$$$$$$$$$$$%%*************=$$$,{%>$$$$$$$$>%{,$$$%%$$$$$$~%%*{%&$$$$$$$$$$$$$$$$$$$$$$$$$$$$$$$$$$$$$$$$$$$$$$$$$$$$$$$$$$$$$$$$$$$$$$$",
"$$$$$$$$$'''''''''''''/////////////////////$$$$$$$$$$$$$$$$$$$$$$$$$$$$$$$$%%%%%%%%%%%%%%%&$$$]%!$$$$$$$$$$!%]$$$%%$$$$$$$-(%(!,$$$$$$$$$$$$$$$$$$$$$$$$$$$$$$$$$$$$$$$$$$$$$$$$$$$$$$$$$$$$$$$$$$$$$$$",
"$$$$$$$''''''''''''''//////////////////////$$$$$$$$$$$$$$$$$$$$$$$$$$$$$$$$$$$$$$$$$$$$$$$$$$$$$$$$$$$$$$$$$$$$$$$$$$$$$$$$$$$$$$$$$$$$$$$$$$$$$$$$$$$$$$$$$$$$$$$$$$$$$$$$$$$$$$$$$$$$$$$$$$$$$$$$$$$$",
"$$$$$$''''''''''''''///////////////////////$$$$$$$$$$$$$$$$$$$$$$$$$$$$$$$$$$$$$$$$$$$$$$$$$$$$$$$$$$$$$$$$$$$$$$$$$$$$$$$$$$$$$$$$$$$$$$$$$$$$$$$$$$$$$$$$$$$$$$$$$$$$$$$$$$$$$$$$$$$$$$$$$$$$$$$$$$$$",
"$$$$'''''''''''''////////////////////______$$$$$$$$$$$$$$$$$$$$$$$$$$$$$$$$$$$$$$$$$$$$$$$$$$$$$$$$$$$$$$$$$$$$$$$$$$$$$$$$$$$$$$$$$$$$$$$$$$$$$$$$$$$$$$$$$$$$$$$$$$$$$$$$$$$$$$$$$$$$$$$$$$$$$$$$$$$$",
"$$$''''''''''''///////////////_____________$$$$$$$$$$$$$$$$$$$$$$$$$$$$$$$$$$$$$$$$$$$$$$$$$$$$$$$$$$$$$$$$$$$$$$$$$$$$$$$$$$$$$$$$$$$$$$$$$$$$$$$$$$$$$$$$$$$$$$$$$$$$$$$$$$$$$$$$$$$$$$$$$$$$$$$$$$$$",
"$'''''''''''''///////////////______________$$$$$$$$$$$$$$$$$$$$$$$$$$$$$$$$$$$$$$$$$$$$$$$$$$$$$$$$$$$$$$$$$$$$$$$$$$$$$$$$$$$$$$$$$$$$$$$$$$$$$$$$$$$$$$$$$$$$$$$$$$$$$$$$$$$$$$$$$$$$$$$$$$$$$$$$$$$$",
"''''''''''''///////////////________________$$$$$$$$$$$$$$$$$$$$$$$$$$$$$$$$$$$$$$$$$$$$$$$$$$$$$$$$$$$$$$$$$$$$$$$$$$$$$$$$$$$$$$$$$$$$$$$$$$$$$$$$$$$$$$$$$$$$$$$$$$$$$$$$$$$$$$$$$$$$$$$$$$$$$$$$$$$$",
"'''''''''''//////////////__________________$$$$$$$$$$$$$$$$$$$$$$$$$$$$$$$$$$$$$$$$$$$$$$$$$$$$$$$$$$$$$$$$$$$$$$$$$$$$$$$$$$$$$$$$$$$$$$$$$$$$$$$$$$$$$$$$$$$$$$$$$$$$$$$$$$$$$$$$$$$$$$$$$$$$$$$$$$$$",
"'''''''''///////////////___________________$$$$$$$$$$$$$$$$$$$$$$$$$$$$$$$$$$$$$$$$$$$$$$$$$$$$$$$$$$$$$$$$$$$$$$$$$$$$$$$$$$$$$$$$$$$$$$$$$$$$$$$$$$$$$$$$$$$$$$$$$$'$$$$$$$$$$$$$$$$$$$$$$$$$$$$$$$$$",
"''''''''//////////////_____________________$$$$$$$$$$$$$$$$$$$$$$$$$$$$$$$$$$$$$$$$$$$$$$$$$$$$$$$$$$$$$$$$$$$$$$$$$$$$$$$$$$$$$$$$$$$$$$$$$$$$$$$$$$$$$$$$$$$$$$$$$$'''$$$$$$$$$$$$$$$$$$$$$$$$$$$$$$$",
"''''''//////////////_______________________$$$$$$$$$$$$$$$$$$$$$$$$$$$$$$$$$$$$$$$$$$$$$$$$$$$$$$$$$$$$$$$$$$$$$$$$$$$$$$$$$$$$$$$$$$$$$$$$$$$$$$$$$$$$$$$$$$$$$$$$$$'''$$$$$$$$$$$$$$$$$$$$$$$$$$$$$$$",
"'''''/////////////_________________________$$$$$$$$$$$$$$$$$$$$$$$$$$$$$$$$$$$$$$$$$$$$$$$$$$$$$$$$$$$$$$$$$$$$$$$$$$$$$$$$$$$$$$$$$$$$$$$$$$$$$$$$$$$$$$$$$$$$$$$$$$''''$$$$$$$$$$$$$$$$$$$$$$$$$$$$$$",
"'''/////////////___________________________$$$$$$$$$$$$$$$$$$$$$$$$$$$$$$$$$$$$$$$$$$$$$$$$$$$$$$$$$$$$$$$$$$$$$$$$$$$$$$$$$$$$$$$$$$$$$$$$$$$$$$$$$$$$$$$$$$$$$$$$$$''''$$$$$$$$$$$$$$$$$$$$$$$$$$$$$$",
"''/////////////____________________________$$$$$$$$$$$$$$$$$$$$$$$$$$$$$$$$$$$$$$$$$$$$$$$$$$$$$$$$$$$$$$$$$$$$$$$$$$$$$$$$$$$$$$$$$$$$$$$$$$$$$$$$$$$$$$$$$$$$$$$$$$''''$$$$$$$$$$$$$$$$$$$$$$$$$$$$$$",
"/////////////______________________________$$$$$$$$$$$$$$$$$$$$$$$$$$$$$$$$$$$$$$$$$$$$$$$$$$$$$$$$$$$$$$$$$$$$$$$$$$$$$$$$$$$$$$$$$$$$$$$$$$$$$$$$$$$$$$$$$$$$$$$$$$'''''$$$$$$$$$$$$$$$$$$$$$$$$$$$$$",
"///////////_____________________________________________________________________________________________________________________///////////////////////''''''''''''''''''''$$$$$$$$$$$$$$$$$$$$$$$$$$$$",
"//////////_______________________________________________________________________________________________________________________///////////////////////'''''''''''''''''''$$$$$$$$$$$$$$$$$$$$$$$$$$$$",
"////////___________________________________________________________________________________________________________________________//////////////////////'''''''''''''''''''$$$$$$$$$$$$$$$$$$$$$$$$$$$",
"//////______________________________________________________________________________________________________________________________//////////////////////''''''''''''''''''$$$$$$$$$$$$$$$$$$$$$$$$$$$",
"/////________________________________________________________________________________________________________________________________//////////////////////''''''''''''''''''$$$$$$$$$$$$$$$$$$$$$$$$$$",
"///___________________________________________________________________________________________________________________________________//////////////////////''''''''''''''''''$$$$$$$$$$$$$$$$$$$$$$$$$",
"/______________________________________________________________________________________________________________________________________/////////////////////'''''''''''''''''$$$$$$$$$$$$$$$$$$$$$$$$$$",
"______________________________:::::::::::::::::::::::::::::::_::_________________________________________________________________________////////////////////''''''''''''''''$$$$$$$$$$$$$$$$$$$$$$$$$$",
"_____________________________:::::::::::::::::::::::::::::::::::::::::::__________________________________________________________________////////////////////''''''''''''''''$$$$$$$$$$$$$$$$$$$$$$$$$",
"___________________________::::::::::::::::::::::::::::::::::::::::::::::::_:______________________________________________________________///////////////////'''''''''''''''''$$$$$$$$$$$$$$$$$$$$$$$$",
"________________________:::::::::::::::::::::::::::::::::::::::::::::::::::::::::____________________________________________________________/////////////////''''''''''''''''''$$$$$$$$$$$$$$$$$$$$$$$",
"______________________::::::::::::::::::::::::::::::::::::::::::::::::::::::::::::::_:_______________________________________________________///////////////////'''''''''''''''$$$$$$$$$$$$$$$$$$$$$$$$",
"____________________:::::::::::::::::::::::::::::::::::::::::::::::::::::::::::::::::::::_____________________________________________________///////////////////''''''''''''''$$$$$$$$$$$$$$$$$$$$$$$$",
"_________________:::::::::::::::::::::::::::::::::::::::::::::::::::::::::::::::::::::::::::____________________________________________________/////////////////'''''''''''''''$$$$$$$$$$$$$$$$$$$$$$$",
"________________:::::::::::::::::::::::::::::::::::::::::::::::::::::::::::::::::::::::::::::::_________________________________________________/////////////////''''''''''''''''$$$$$$$$$$$$$$$$$$$$$$",
"______________:::::::::::::::::::::::::::::::::::::::::::::::::::::::::::::::::::::::::::::::::::________________________________________________////////////////''''''''''''''''$$$$$$$$$$$$$$$$$$$$$$",
"____________::::::::::::::::::::::::::<:::::::::<:::::::::::::::::::::::::::::::::::::::::::::::::::______________________________________________////////////////'''''''''''''''$$$$$$$$$$$$$$$$$$$$$$"};
