/* XPM */
static char * web_2[] = {
"199 85 87 1",
" 	c #DAFED3",
".	c #D9FDD2",
"+	c #D8FCD1",
"@	c #D7FBD1",
"#	c #D7FAD0",
"$	c #D6F9CF",
"%	c #D5F8CE",
"&	c #D4F7CD",
"*	c #D3F6CC",
"=	c #D2F5CC",
"-	c #D1F4CB",
";	c #D1F3CA",
">	c #D0F2C9",
",	c #CFF1C8",
"'	c #A4CA9D",
")	c #3E6B34",
"!	c #27561D",
"~	c #83AB7A",
"{	c #B0D5A9",
"]	c #326129",
"^	c #608B57",
"/	c #6B9563",
"(	c #77A16F",
"_	c #82AB7A",
":	c #A4CB9D",
"<	c #98BF91",
"[	c #CEF0C7",
"}	c #9AC192",
"|	c #55804C",
"1	c #C6E9BF",
"2	c #497640",
"3	c #82AA7A",
"4	c #54804B",
"5	c #77A06F",
"6	c #76A06E",
"7	c #8DB585",
"8	c #AFD4A8",
"9	c #BADFB4",
"0	c #608A57",
"a	c #82AA79",
"b	c #C6E9BE",
"c	c #81A979",
"d	c #49753F",
"e	c #5F8A56",
"f	c #A3C89B",
"g	c #6B9562",
"h	c #326029",
"i	c #8DB485",
"j	c #8CB484",
"k	c #326028",
"l	c #C5E8BE",
"m	c #98BF90",
"n	c #A4C99C",
"o	c #6B9462",
"p	c #B9DDB2",
"q	c #98BE90",
"r	c #CDEFC7",
"s	c #BADEB3",
"t	c #AFD4A7",
"u	c #497540",
"v	c #AED3A7",
"w	c #759E6D",
"x	c #B9DCB1",
"y	c #C4E7BD",
"z	c #6A9461",
"A	c #81A978",
"B	c #769F6E",
"C	c #769F6D",
"D	c #97BD8F",
"E	c #CCEEC6",
"F	c #547F4B",
"G	c #ADD2A6",
"H	c #A2C89A",
"I	c #3D6B34",
"J	c #C3E6BC",
"K	c #8CB384",
"L	c #48753F",
"M	c #759E6C",
"N	c #80A878",
"O	c #B8DBB0",
"P	c #96BD8E",
"Q	c #547F4A",
"R	c #5F8956",
"S	c #A1C79A",
"T	c #CBEDC5",
"U	c #CBECC4",
"V	c #CAEBC3",
"                            .........................++++++++++++++@@@@@@@@@@@@@@@#########################$$$$$$$$$$$$$$%%%%%%%%%%%%&&&&&&&&&&&&&&&&&&&&&&&&&***********============------------------",
"                          ........................+++++++++++++@@@@@@@@@@@@@@@##########################$$$$$$$$$$$$$$%%%%%%%%%%%%&&&&&&&&&&&&&&&&&&&&&&&&*************============--------------------",
"                        ......................+++++++++++++++@@@@@@@@@@@@@###########################$$$$$$$$$$$$$%%%%%%%%%%%%%&&&&&&&&&&&&&&&&&&&&&&&&&*************============----------------------",
"                      ....................+++++++++++++++@@@@@@@@@@@@@@###########################$$$$$$$$$$$$$%%%%%%%%%%%%%&&&&&&&&&&&&&&&&&&&&&&&&&&************=============------------------------",
"                    ..................+++++++++++++++@@@@@@@@@@@@@@############################$$$$$$$$$$$$$%%%%%%%%%%%%%%&&&&&&&&&&&&&&&&&&&&&&&&&&************=============------------------------;;",
"                  ................++++++++++++++++@@@@@@@@@@@@@############################$$$$$$$$$$$$$$$%%%%%%%%%%%%&&&&&&&&&&&&&&&&&&&&&&&&&&&*************============--------------------------;;;",
"                ...............+++++++++++++++@@@@@@@@@@@@@@#############################$$$$$$$$$$$$$%%%%%%%%%%%%%%&&&&&&&&&&&&&&&&&&&&&&&&&&*************============---------------------------;;;;;",
"              ...............+++++++++++++@@@@@@@@@@@@@@#############################$$$$$$$$$$$$$$%%%%%%%%%%%%%%&&&&&&&&&&&&&&&&&&&&&&&&&&**************=============-------------------------;;;;;;;;",
"            ...............++++++++++@@@@@@@@@@@@@@@@#############################$$$$$$$$$$$$$%%%%%%%%%%%%%%%&&&&&&&&&&&&&&&&&&&&&&&&&&&*************=============--------------------------;;;;;;;;;;",
"          ...............+++++++++@@@@@@@@@@@@@@#############################$$$$$$$$$$$$$$$%%%%%%%%%%%%%%&&&&&&&&&&&&&&&&&&&&&&&&&&&&*************==============--------------------------;;;;;;;;;;;;",
"        ...............+++++++@@@@@@@@@@@@@@@##############################$$$$$$$$$$$$$$%%%%%%%%%%%%%%&&&&&&&&&&&&&&&&&&&&&&&&&&&&*************===============--------------------------;;;;;;;;;;;;;>",
"      ...............+++++++@@@@@@@@@@@@@##############################$$$$$$$$$$$$$$%%%%%%%%%%%%%%%&&&&&&&&&&&&&&&&&&&&&&&&&&&&**************=============----------------------------;;;;;;;;;;;;;>>>",
"    ..............++++++++@@@@@@@@@@@##############################$$$$$$$$$$$$$$$%%%%%%%%%%%%%%%&&&&&&&&&&&&&&&&&&&&&&&&&&&&**************==============----------------------------;;;;;;;;;;;;;>>>>>",
"  ...............+++++++@@@@@@@@@##############################$$$$$$$$$$$$$$$%%%%%%%%%%%%%%%&&&&&&&&&&&&&&&&&&&&&&&&&&&&&**************==============----------------------------;;;;;;;;;;;;;>>>>>>>>",
"...............+++++++@@@@@@@@#############################$$$$$$$$$$$$$$$%%%%%%%%%%%%%%%&&&&&&&&&&&&&&&&&&&&&&&&&&&&&***************==============----------------------------;;;;;;;;;;;;;;;>>>>>>>>>",
".............++++++++@@@@@@@############################$$$$$$$$$$$$$$$%%%%%%%%%%%%%%%&&&&&&&&&&&&&&&&&&&&&&&&&&&&&&**************==============-----------------------------;;;;;;;;;;;;;;>>>>>>>>>>>>",
"...........+++++++@@@@@@@@#########################$$$$$$$$$$$$$$$$%%%%%%%%%%%%%%%&&&&&&&&&&&&&&&&&&&&&&&&&&&&&&***************===============----------------------------;;;;;;;;;;;;;;;>>>>>>>>>>>>>>",
".........+++++++@@@@@@@@########################$$$$$$$$$$$$$$$%%%%%%%%%%%%%%%&&&&&&&&&&&&&&&&&&&&&&&&&&&&&&&&*************================-----------------------------;;;;;;;;;;;;;;;>>>>>>>>>>>>>>,,",
".......+++++++@@@@@@@@#####################$$$$$$$$$$$$$$$$%%%%%%%%%%%%%%%%&&&&&&&&&&&&&&&&&&&&&&&&&&&&&&&***************==============------------------------------;;;;;;;;;;;;;;;>>>>>>>>>>>>>>>,,,,",
"....++++++++@@@@@@@@###################$$$$$$$$$$$$$$$$%%%%%%%%%%%%%%%&&&&&&&&&&&&&&&&&&&&&&&&&&&&&&&&****************==============-------------------------------;;;;;;;;;;;;;;;>>>>>>>>>>>>>>>,,,,,,",
"...+++++++@@@@@@@@#################$$$$$$$$$$$$$$$$%%%%%%%%%%%%%%%%&&&&&&&&&&&&&&&&&&&&&&&&&&&&&&&****************===============-------------------------------;;;;;;;;;;;;;;;>>>>>>>>>>>>>>>,,,,,,,,,",
"++++++++@@@@@@@@###############$$$$$$$$$$$$$$$$%%%%%%%%%%%%%%%&&&&&&&&&&&&&&&&&&&&&&&&&&&&&&&&&****************==============--------------------------------;;;;;;;;;;;;;;;;>>>>>>>>>>>>>>>>,,,,,,,,,,",
"++++++@@@@@@@@###############$$$$$$$$$$$$$$%%%%%%%%%%%%%%%%&&&&&&&&&&&&&&&&&&&&&&&&&&&&&&&&***************=================-------------------------------;;;;;;;;;;;;;;;;>>>>>>>>>>>>>>>>,,,,,,,,,,,,,",
"++++@@@@@@@################$$$$$$$$$$$%%%%%%%%%%%%%%%%&&&&&&&&&&&&&&&&&&&&&&&&&&&&&&&&&****************=================-------------------------------;;;;;;;;;;;;;;;;>>>>>>>>>>>>>>>>>,,,,,,,,,,,,,,,",
"++@@@@@@@@###############$$$$$$$$$%%%%%%%%%%%%%%%%%&&&&&&&&&&&&&&&&&&&&&&&&&&&&&&&&****************=================--------------------------------;;;;;;;;;;;;;;;;>>>>>>>>>>>>>>>>>,,,,,,,,,,,,,,,,,,",
"@@@@@@@@###############$$$$$$$$%%%%%%%%%%%%%%%&&&&&&&&&&&&&&&&&&&&&&&&&&&&&&&&&****************=================----------------------------------;;;;;;;;;;;;;;;;>>>>>>>>>>>>>>>>,,,,,,,,,,,,,,,,,,,,,",
"@@@@@@###############$$$$$$$%%%%%%%%%%%%%%&&&&&&&&&&&&&&&&&&&&&&&&&&&&&&&&&****************=================----------------------------------;;;;;;;;;;;;;;;;>>>>>>>>>>>>>>>>>,,,,,,,,,,,,,,,,,,,,,,,,",
"@@@################$$$$$$$$%%%%%%%%%%%&&&&&&&&&&&&&&&&&&&&&&&&&&&&&&&&&*****************=================---------------------------------;;;;;;;;;;;;;;;;;;>>>>>>>>>>>>>>>>>,,,,,,,,,,,,,,,,,,,,,,,,,,",
"@################$$$$$$$%%%%%%%%%%&&&&&&&&&&&&&&&&&&&&&&&&&&&&&&&&&****************==================----------------------------------;;;;;;;;;;;;;;;;;>>>>>>>>>>>>>>>>>>,,,,,,,,,,,,,,,,,,,,,,,,,,,,,",
"##############$$$$$$$$%%%%%%%%&&&&&&&&&&&&&&&&&&&&&&&&&&&&&&&&******************=================---------------------''------------;;;;;;;;;;;;;;;;>>>>>>>>>>>>>>>>>>,,,,,,,,,,,,,,,,,,,,,,,,,,,,,,,,,",
"#############$$$$$$$$%%%%%%%&&&&&&&&&&&&&&&&&&&&&&&&&&&&&&********)!~******===={!]===========^!/----------------------!!--------;;;;;;;;;;;;;;;;;;>>>>>>>>>>>>>>>>>,,,,,,,,,,,,,,,,,,,,,,,,,,,,,,,,,,,,",
"###########$$$$$$$%%%%%%%%&&&&&&&&&&&&&&&&&&&&&&&&&&&&&***********(!^***=======_!!:======----]!<----------------------!!----;;;;;;;;;;;;;;;;;;>>>>>>>>>>>>>>>>>>,,,,,,,,,,,,,,,,,,,,,,,,,,,,,,,,,,,,,[[",
"########$$$$$$$$%%%%%%%%&&&&&&&&&&&&&&&&&&&&&&&&&*****************}!!==========|!!_=--------'!!1----------------------!!-;;;;;;;;;;;;;;;;;>>>>>>>>>>>>>>>>>>>,,,,,,,,,,,,,,,,,,,,,,,,,,,,,,,,,,,,,[[[[[",
"######$$$$$$$$%%%%%%%%&&&&&&&&&&&&&&&&&&&&&&&******************====!!:=========!)!2---------3!4--------------------;;;!!;;;;;;;;;;;;;;>>>>>>>>>>>>>>>>>>>>,,,,,,,,,,,,,,,,,,,,,,,,,,,,,,,,,,,,,,[[[[[[[",
"####$$$$$$$$%%%%%%%%&&&&&&&&&&&&&&&&&&&&&*****************=========^!5=======-<!62!1--------2!3-----------------;;;;;;!!;;;;;;;;;;;>>>>>>>>>>>>>>>>>>>,,,,,,,,,,,,,,,,,,,,,,,,,,,,,,,,,,,,,,,[[[[[[[[[[",
"##$$$$$$$$%%%%%%%&&&&&&&&&&&&&&&&&&&*****************==============_!2==------6!<3!7-------1!!8--------------;;;;;;;;;!!;;;;;;;;>>>>>>>>>>>>>>>>>>>,,,,,,,,,,,,,,,,,,,,,,,,,,,,,,,,,,,,,,,[[[[[[[[[[[[[",
"$$$$$$$$%%%%%%%&&&&&&&&&&&&&&&&******************==================9!!1-------)!1'!/-------<!)-------7^)!)0ab;;;;;;;;;!!;;bcd!!)ef>>>>>>>>>>>>>,,,,,,,,,,,,,,,,,,,,,,,,,,,,,,,,,,,,,,,,[[[[[[[[[[[[[[[[",
"$$$$$$%%%%%%%&&&&&&&&&&&&&&&&****************=================------)!7------9!4--])-------/!/-----')!)gag)!hi;;;;;;;;!!>jk!d44k!!el>>>>>>>,,,,,,,,,,,,,,,,,,,,,,,,,,,,,,,,,,,,,,,,,[[[[[[[[[[[[[[[[[[[",
"$$$%%%%%%%%&&&&&&&&&&&&&&&&*************==================----------6!/------7!3--^!8------)!<--;;i!hm;;;;;n)!i;;;;>>>!!j!op>>>>q)!d>>,,,,,,,,,,,,,,,,,,,,,,,,,,,,,,,,,,,,,,,,,,[[[[[[[[[[[[[[[[[[[[[[r",
"$$%%%%%%%&&&&&&&&&&&&&&&&***********=================---------------<!)------^!8--7!3-----s!!b;;;thht;;;;;;;bu!f>>>>>>!!kv>>>>>>>ld!w,,,,,,,,,,,,,,,,,,,,,,,,,,,,,,,,,,,,,,,,[[[[[[[[[[[[[[[[[[[[[[[rrr",
"%%%%%%%&&&&&&&&&&&&&&&&********==================--------------------!!8-----]]---9!4--;;;a!4;;;;4!n;;;;;;>>>v!)>>>>>>!!v>>>>>,,,,x!!y,,,,,,,,,,,,,,,,,,,,,,,,,,,,,,,,,,,,[[[[[[[[[[[[[[[[[[[[[[rrrrrrr",
"%%%%%&&&&&&&&&&&&&&&&*******================-------------------------^!3----'!/---;)!;;;;;0!a;;;n!0;;;>>>>>>>>o!f>>>>>!!>>,,,,,,,,,z!A,,,,,,,,,,,,,,,,,,,,,,,,,,,,,,,,[[[[[[[[[[[[[[[[[[[[[[[rrrrrrrrrr",
"%%%&&&&&&&&&&&&&&&*********============------------------------------3!^----3!i;;;;B!m;;;;h!t;;;B!q>>>>>>>>>>>f!C>>>>>!!,,,,,,,,,,,D!e,,,,,,,,,,,,,,,,,,,,,,,,,,,,[[[[[[[[[[[[[[[[[[[[[[[[rrrrrrrrrrrrr",
"&&&&&&&&&&&&&&&&********===========----------------------------------9!!;;;;u!b;;;;m!B;;;n!);>>>4!l>>>>>>>>>>>>!4>,,,,!!,,,,,,,,,,,y!d,,,,,,,,,,,,,,,,,,,,,,,[[[[[[[[[[[[[[[[[[[[[[[[[rrrrrrrrrrrrrrrrr",
"&&&&&&&&&&&&&&&*******========-------------------------------------;;;)!m;;b!u;;;;;;!u;;>c!o>>>>!!cccccccccccAA!k,,,,,!!,,,,,,,,,,,,!!,,,,,,,,,,,,,,,,,,,,[[[[[[[[[[[[[[[[[[[[[[[[rrrrrrrrrrrrrrrrrrrrr",
"&&&&&&&&&&&&********========----------------------------------;;;;;;;;B!B;;i!B;;;;>>4!p>>d!q>>>>!!!!!!!!!!!!!!!!!,,,,,!!,,,,,,,,,,,,!!,,,,,,,,,,,,,,,,[[[[[[[[[[[[[[[[[[[[[[[[[rrrrrrrrrrrrrrrrrrrrrrrr",
"&&&&&&&&&&********=========-------------------------------;;;;;;;;;;;;m!u;;g!f>>>>>>c!j>l!!l>>>>k!>,,,,,,,,,,,,,,,,,,,!!,,,,,,,,,,,y!d,,,,,,,,,,[[[[[[[[[[[[[[[[[[[[[[[[[[rrrrrrrrrrrrrrrrrrrrrrrrrrrrE",
"&&&&&&&&********========-----------------------------;;;;;;;;;;;;;;;;;;!!p>kk>>>>>>>v!e>j!4>>>,,F!G,,,,,,,,,,,,,,,,,,,!!,,,,,,,,,,,H!e,,,,,,[[[[[[[[[[[[[[[[[[[[[[[[[[rrrrrrrrrrrrrrrrrrrrrrrrrrrrrEEEE",
"&&&&&&********========--------------------------;;;;;;;;;;;;;;;;;;;>>>>e!jv!e>>>>>>>>)k>o!A,,,,,A!w,,,,,,,,,,,,,,,,,,,!!,,,,,,,,,,,z!A,,[[[[[[[[[[[[[[[[[[[[[[[[[rrrrrrrrrrrrrrrrrrrrrrrrrrrrEEEEEEEEEE",
"&&&&*******=========-----------------------;;;;;;;;;;;;;;;;;;;;>>>>>>>>c!oc!j>>>>>>>,z!GI!G,,,,,yk!G,,,,,,,,,,,,,,,,,,!!G,,,,,,,,,xk!J[[[[[[[[[[[[[[[[[[[[[[[[rrrrrrrrrrrrrrrrrrrrrrrrrrrrEEEEEEEEEEEEE",
"&********========---------------------;;;;;;;;;;;;;;;;;;;>>>>>>>>>>>>>>p!k4!p>>>,,,,,K!e!k,,,,,,,K!dy,,,,,,,,,AG,,,,,,!!kG,,,,[[[JL!M[[[[[[[[[[[[[[[[[[[rrrrrrrrrrrrrrrrrrrrrrrrrrrrEEEEEEEEEEEEEEEEEEE",
"*******========-----------------;;;;;;;;;;;;;;;;;;;;>>>>>>>>>>>>>>>>>>>>)!!I,,,,,,,,,y!!!z,,,,,,,,w!kK,,,,,,HF!w,,,,,,!!z!NO[[[[PI!LJ[[[[[[[[[[[[[rrrrrrrrrrrrrrrrrrrrrrrrrrrrrrrEEEEEEEEEEEEEEEEEEEEEE",
"*****========-----------------;;;;;;;;;;;;;;;;;>>>>>>>>>>>>>>>>>>>>>,,,,w!!w,,,,,,,,,,d!!K,,,,,,,,,DI!kFAAFk!kK,,,,,[[!![N!!LQQk!!QJ[[[[[[[[[[[rrrrrrrrrrrrrrrrrrrrrrrrrrrrrEEEEEEEEEEEEEEEEEEEEEEEEEEE",
"***========----------------;;;;;;;;;;;;;;;>>>>>>>>>>>>>>>>>>>>,,,,,,,,,,D!!D,,,,,,,,,,A!!y,,,,,,,,,,,Ked!!FzKy[[[[[[[[!![[OML!!IRS[[[[[[[rrrrrrrrrrrrrrrrrrrrrrrrrrrrrrEEEEEEEEEEEEEEEEEEEEEEEEEEEEEEEE",
"*=======-----------------;;;;;;;;;;;;;>>>>>>>>>>>>>>>>>>>>,,,,,,,,,,,,,,,,,,,,,,,,,,,,,,,,,,,,,,,,,,,,,,[[[[[[[[[[[[[[[[[[[[[[[[[[[[rrrrrrrrrrrrrrrrrrrrrrrrrrrrrrEEEEEEEEEEEEEEEEEEEEEEEEEEEEEEEEEEEEE",
"=======----------------;;;;;;;;>>>>>>>>>>>>>>>>>>>>>,,,,,,,,,,,,,,,,,,,,,,,,,,,,,,,,,,,,,,,,,,,,,,,[[[[[[[[[[[[[[[[[[[[[[[[[[[rrrrrrrrrrrrrrrrrrrrrrrrrrrrrEEEEEEEEEEEEEEEEEEEEEEEEEEEEEEEEEEEEEEEEEEEE",
"====-----------------;;;;;;;;>>>>>>>>>>>>>>>>>>,,,,,,,,,,,,,,,,,,,,,,,,,,,,,,,,,,,,,,,,,,,,,,[[[[[[[[[[[[[[[[[[[[[[[[[[[rrrrrrrrrrrrrrrrrrrrrrrrrrrrrrrEEEEEEEEEEEEEEEEEEEEEEEEEEEEEEEEEEEEEEEEEEEEEEEE",
"==-----------------;;;;;;;;>>>>>>>>>>>>>>>,,,,,,,,,,,,,,,,,,,,,,,,,,,,,,,,,,,,,,,,,,,,,[[[[[[[[[[[[[[[[[[[[[[[[[[[rrrrrrrrrrrrrrrrrrrrrrrrrrrrrrrEEEEEEEEEEEEEEEEEEEEEEEEEEEEEEEEEEEEEEEEEEEEEEEEEEEEEE",
"----------------;;;;;;;;>>>>>>>>>>>>,,,,,,,,,,,,,,,,,,,,,,,,,,,,,,,,,,,,,,,,,,,,,,[[[[[[[[[[[[[[[[[[[[[[[[[[rrrrrrrrrrrrrrrrrrrrrrrrrrrrrrrEEEEEEEEEEEEEEEEEEEEEEEEEEEEEEEEEEEEEEEEEEEEEEEEEEEEEEEEEEEE",
"--------------;;;;;;;;>>>>>>>>>,,,,,,,,,,,,,,,,,,,,,,,,,,,,,,,,,,,,,,,,,,,,,[[[[[[[[[[[[[[[[[[[[[[[[[[rrrrrrrrrrrrrrrrrrrrrrrrrrrrrrEEEEEEEEEEEEEEEEEEEEEEEEEEEEEEEEEEEEEEEEEEEEEEEEEEEEEEEEEEEEEEEEEEE",
"------------;;;;;;;;>>>>>>>>>,,,,,,,,,,,,,,,,,,,,,,,,,,,,,,,,,,,,,,,,,,[[[[[[[[[[[[[[[[[[[[[[[[[[rrrrrrrrrrrrrrrrrrrrrrrrrrrrrEEEEEEEEEEEEEEEEEEEEEEEEEEEEEEEEEEEEEEEEEEEEEEEEEEEEEEEEEEEEEEEEEEEEEEEEE",
"---------;;;;;;;;;>>>>>>>>>,,,,,,,,,,,,,,,,,,,,,,,,,,,,,,,,,,,,[[[[[[[[[[[[[[[[[[[[[[[[[[[rrrrrrrrrrrrrrrrrrrrrrrrrrrrEEEEEEEEEEEEEEEEEEEEEEEEEEEEEEEEEEEEEEEEEEEEEEEEEEEEEEEEEEEEEEEEEEEEEEEEEEEEEEEEE",
"-------;;;;;;;;>>>>>>>>>,,,,,,,,,,,,,,,,,,,,,,,,,,,,,,,,,,,[[[[[[[[[[[[[[[[[[[[[[[[rrrrrrrrrrrrrrrrrrrrrrrrrrrrrrEEEEEEEEEEEEEEEEEEEEEEEEEEEEEEEEEEEEEEEEEEEEEEEEEEEEEEEEEEEEEEEEEEEEEEEEEEEEEEEEEEEEEE",
"-----;;;;;;;;>>>>>>>>>,,,,,,,,,,,,,,,,,,,,,,,,,,,,,,[[[[[[[[[[[[[[[[[[[[[[[[[rrrrrrrrrrrrrrrrrrrrrrrrrrrrrEEEEEEEEEEEEEEEEEEEEEEEEEEEEEEEEEEEEEEEEEEEEEEEEEEEEEEEEEEEEEEEEEEEEEEEEEEEEEEEEEEEEETTTTTTTT",
"---;;;;;;;;>>>>>>>>>,,,,,,,,,,,,,,,,,,,,,,,,,,[[[[[[[[[[[[[[[[[[[[[[[[[[rrrrrrrrrrrrrrrrrrrrrrrrrrrEEEEEEEEEEEEEEEEEEEEEEEEEEEEEEEEEEEEEEEEEEEEEEEEEEEEEEEEEEEEEEEEEEEEEEEEEEEEEEEEEEEEETTTTTTTTTTTTTTT",
"-;;;;;;;;>>>>>>>>,,,,,,,,,,,,,,,,,,,,,,[,[[[[[[[[[[[[[[[[[[[[[[[[rrrrrrrrrrrrrrrrrrrrrrrrrrrEEEEEEEEEEEEEEEEEEEEEEEEEEEEEEEEEEEEEEEEEEEEEEEEEEEEEEEEEEEEEEEEEEEEEEEEEEEEEEEEEEETTTTTTTTTTTTTTTTTTTTTTTT",
";;;;;;;>>>>>>>>,,,,,,,,,,,,,,,,,,,,[[[[[[[[[[[[[[[[[[[[[[rrrrrrrrrrrrrrrrrrrrrrrrrrrrrrEEEEEEEEEEEEEEEEEEEEEEEEEEEEEEEEEEEEEEEEEEEEEEEEEEEEEEEEEEEEEEEEEEEEEEEEEEEEETETTTTTTTTTTTTTTTTTTTTTTTTTTTTTTTTT",
";;;;>>>>>>>>,,,,,,,,,,,,,,,,,,[[[[[[[[[[[[[[[[[[[[[[rrrrrrrrrrrrrrrrrrrrrrrrrrErrEEEEEEEEEEEEEEEEEEEEEEEEEEEEEEEEEEEEEEEEEEEEEEEEEEEEEEEEEEEEEEEEEEEEEEEEEETTTTTTTTTTTTTTTTTTTTTTTTTTTTTTTTTTTTTTTTTTTT",
";;>>>>>>>>,,,,,,,,,,,,,,,,,,[[[[[[[[[[[[[[[[[[rrrrrrrrrrrrrrrrrrrrrrrrrrEEEEEEEEEEEEEEEEEEEEEEEEEEEEEEEEEEEEEEEEEEEEEEEEEEEEEEEEEEEEEEEEEEEEEEEETEEETTTTTTTTTTTTTTTTTTTTTTTTTTTTTTTTTTTTTTTTTTTTTTTTTTT",
">>>>>>>>,,,,,,,,,,,,,,,,,[[[[[[[[[[[[[[rrrrrrrrrrrrrrrrrrrrrrrrrrrEEEEEEEEEEEEEEEEEEEEEEEEEEEEEEEEEEEEEEEEEEEEEEEEEEEEEEEEEEEEEEEEEEEEEEEETTTTTTTTTTTTTTTTTTTTTTTTTTTTTTTTTTTTTTTTTTTTTTTTTTTTTTTTTTTTT",
">>>>>>,,,,,,,,,,,,,,,,,[[[[[[[[[[rrrrrrrrrrrrrrrrrrrrrrrrrrEEEEEEEEEEEEEEEEEEEEEEEEEEEEEEEEEEEEEEEEEEEEEEEEEEEEEEEEEEEEEEEEEEEEEETTTTTTTTTTTTTTTTTTTTTTTTTTTTTTTTTTTTTTTTTTTTTTTTTTTTTTTTTTTTTTTTTTTTTT",
">>>>,,,,,,,,,,,,,,,,,[[[[[[[[rrrrrrrrrrrrrrrrrrrrrrrEEEEEEEEEEEEEEEEEEEEEEEEEEEEEEEEEEEEEEEEEEEEEEEEEEEEEEEEEEEEEEEEEETTTTTTTTTTTTTTTTTTTTTTTTTTTTTTTTTTTTTTTTTTTTTTTTTTTTTTTTTTTTTTTTTTTTUTTTTTTUTTUUU",
">,,,,,,,,,,,,,,,,,[[[[[[[[[rrrrrrrrrrrrrrrrrrEEEEEEEEEEEEEEEEEEEEEEEEEEEEEEEEEEEEEEEEEEEEEEEEEEEEEEEEEEEEEEEEEETTTTTTTTTTTTTTTTTTTTTTTTTTTTTTTTTTTTTTTTTTTTTTTTTTTTTTTTTTTUUUTTUUUUUUUUUUUUUUUUUUUUUUUU",
",,,,,,,,,,,,,,,,[[[[[[[[[rrrrrrrrrrrrrrEEEEEEEEEEEEEEEEEEEEEEEEEEEEEEEEEEEEEEEEEEEEEEEEEEEEEEEEEEEEEETTTTTTTTTTTTTTTTTTTTTTTTTTTTTTTTTTTTTTTTTTTTTTTTTTTTTTUTTUUUUUUUUUUUUUUUUUUUUUUUUUUUUUUUUUUUUUUUUU",
",,,,,,,,,,,,,[[[[[[[[[rrrrrrrrrrrEEEEEEEEEEEEEEEEEEEEEEEEEEEEEEEEEEEEEEEEEEEEEEEEEEEEEEEEEEEETTTTTTTTTTTTTTTTTTTTTTTTTTTTTTTTTTTTTTTTTTTTTTTTTTUUUUUUUUUUUUUUUUUUUUUUUUUUUUUUUUUUUUUUUUUUUUUUUUUUUUUUUU",
",,,,,,,,,,,[[[[[[[[[rrrrrrrrrEEEEEEEEEEEEEEEEEEEEEEEEEEEEEEEEEEEEEEEEEEEEEEEEEEEEEEEETTTTTTTTTTTTTTTTTTTTTTTTTTTTTTTTTTTTTTTTTTTTTUUUUUUUUUUUUUUUUUUUUUUUUUUUUUUUUUUUUUUUUUUUUUUUUUUUUUUUUUUUUUUUUUUUUU",
",,,,,,,,,[[[[[[[[rrrrrrrrrrEEEEEEEEEEEEEEEEEEEEEEEEEEEEEEEEEEEEEEEEEEEEEEEEETTTTTTTTTTTTTTTTTTTTTTTTTTTTTTTTTTTTTTTTTTTTUUUUUUUUUUUUUUUUUUUUUUUUUUUUUUUUUUUUUUUUUUUUUUUUUUUUUUUUUUUUUUUUUUUUUUUUUUUUUUU",
",,,,,,[[[[[[[[[rrrrrrrrrEEEEEEEEEEEEEEEEEEEEEEEEEEEEEEEEEEEEEEEEEEEEETTTTTTTTTTTTTTTTTTTTTTTTTTTTTTTTTTTTTTUTUUUUUUUUUUUUUUUUUUUUUUUUUUUUUUUUUUUUUUUUUUUUUUUUUUUUUUUUUUUUUUUUUUUUUUUUUUUUUUUUUUUUUUUUUU",
",,,,[[[[[[[[[rrrrrrrrrEEEEEEEEEEEEEEEEEEEEEEEEEEEEEEEEEEEEEEETTTTTTTTTTTTTTTTTTTTTTTTTTTTTTTTTTTTTUUUUUUUUUUUUUUUUUUUUUUUUUUUUUUUUUUUUUUUUUUUUUUUUUUUUUUUUUUUUUUUUUUUUUUUUUUUUUUUUUUUUUUUUUUUUUUUUUUUUU",
",,[[[[[[[[rrrrrrrrrEEEEEEEEEEEEEEEEEEEEEEEEEEEEEEEEETTTTTTTTTTTTTTTTTTTTTTTTTTTTTTTTTTTUUUUUUUUUUUUUUUUUUUUUUUUUUUUUUUUUUUUUUUUUUUUUUUUUUUUUUUUUUUUUUUUUUUUUUUUUUUUUVUUUUUUVUUUUUUVVVUUUUUUUUUUUUUUUUUU",
"[[[[[[[[rrrrrrrrrEEEEEEEEEEEEEEEEEEEEEEEEEEEEETTTTTTTTTTTTTTTTTTTTTTTTTTTTTTTTUTUUUUUUUUUUUUUUUUUUUUUUUUUUUUUUUUUUUUUUUUUUUUUUUUUUUUUUUVUVUUVVUVVVVVVVVVVVVVVVVVVVVVVVVVVVVVVVVVVVVVVVVVVVVVVVVVVVVUUVV",
"[[[[[rrrrrrrrrrEEEEEEEEEEEEEEEEEEEEEEETTTTTTTTTTTTTTTTTTTTTTTTTTTTTTTTUUUUUUUUUUUUUUUUUUUUUUUUUUUUUUUUUUUUUUUUUUUUUUUUUUUUVVVVVVVVVVVVVVVVVVVVVVVVVVVVVVVVVVVVVVVVVVVVVVVVVVVVVVVVVVVVVVVVVVVVVVVVVVVVV",
"[[[rrrrrrrrrEEEEEEEEEEEEEEEEEEETTTTTTTTTTTTTTTTTTTTTTTTTTTTTTUUUUUUUUUUUUUUUUUUUUUUUUUUUUUUUUUUUUUUUUUUUUUVVVVVVVVVVVVVVVVVVVVVVVVVVVVVVVVVVVVVVVVVVVVVVVVVVVVVVVVVVVVVVVVVVVVVVVVVVVVVVVVVVVVVVVVVVVVV",
"[rrrrrrrrEEEEEEEEEEEEEEEEEEETTTTTTTTTTTTTTTTTTTTTTTTUUUUUUUUUUUUUUUUUUUUUUUUUUUUUUUUUUUUUUUUUUVVVVVVVVVVVVVVVVVVVVVVVVVVVVVVVVVVVVVVVVVVVVVVVVVVVVVVVVVVVVVVVVVVVVVVVVVVVVVVVVVVVVVVVVVVVVVVVVVVVVVVVVV",
"rrrrrrrEEEEEEEEEEEEEEEEEEETTTTTTTTTTTTTTTTTTTUUUUUUUUUUUUUUUUUUUUUUUUUUUUUUUUUUUUUVVVVVVVVVVVVVVVVVVVVVVVVVVVVVVVVVVVVVVVVVVVVVVVVVVVVVVVVVVVVVVVVVVVVVVVVVVVVVVVVVVVVVVVVVVVVVVVVVVVVVVVVVVVVVVVVVVVVV"};
