/* XPM */
static const char *Icon[] = {
/* columns rows colors chars-per-pixel */
"32 32 9 1",
"  c None",
". c #222222",
"X c #663200",
"o c #444444",
"O c #777777",
"+ c #996533",
"@ c #BBBBBB",
"# c #DDDDDD",
"$ c gray100",
/* pixels */
"                                ",
"                                ",
"                                ",
"                                ",
"                                ",
"                                ",
"                                ",
"          ooooo                 ",
"        .o@###@o.               ",
"        o@#$$##@o               ",
"       o@#$$####@O              ",
"       o##$######O              ",
"       o#$#######O              ",
"       o#########O              ",
"       o@######$@o              ",
"        O@###$$@O               ",
"        oO@###@O.               ",
"          OOOOo  .+             ",
"                 .X+            ",
"                  .X+           ",
"                   .X+          ",
"                    .X+         ",
"                     .X+        ",
"                      .X+       ",
"                       .        ",
"                                ",
"                                ",
"                                ",
"                                ",
"                                ",
"                                ",
"                                "
};
